<svg width="221" height="122" viewBox="0 0 221 122" fill="none" xmlns="http://www.w3.org/2000/svg">
<path d="M201.917 47.6443C194.87 38.7962 185.648 31.7901 173.847 30.9338C163.196 30.161 154.618 35.7407 158.402 47.2725C160.193 52.7314 165.965 58.0066 172.038 57.1795C178.804 56.2581 176.352 47.6486 173.211 44.3825C165.875 36.7539 152.78 34.9885 143.805 42.332C133.176 51.0284 143.706 60.4478 143.742 60.3611" stroke="#FFCC00" stroke-width="2.43636" stroke-miterlimit="1.5" stroke-linecap="round" stroke-linejoin="round"/>
<path d="M203.661 35.1629C202.982 36.2136 202.812 37.4295 202.579 38.634C201.817 42.589 202.259 47.0925 204.477 50.561C201.02 47.7439 195.582 45.2515 191.167 46.8232" stroke="#FFCC00" stroke-width="2.43636" stroke-miterlimit="1.5" stroke-linecap="round" stroke-linejoin="round"/>
<path d="M2.89424 95.5152C2.70224 95.5152 2.54624 95.4492 2.42624 95.3172C2.30624 95.1852 2.24624 94.9512 2.24624 94.6152C2.24624 94.3632 2.32424 93.9552 2.48024 93.3912C2.64824 92.8152 2.87024 92.1432 3.14624 91.3752C3.43424 90.6072 3.75224 89.7972 4.10024 88.9452C4.46024 88.0812 4.83224 87.2232 5.21624 86.3712C5.60024 85.5192 5.97824 84.7332 6.35024 84.0132C6.72224 83.2812 7.06424 82.6632 7.37624 82.1592C7.68824 81.6552 7.95224 81.3252 8.16824 81.1692C8.42024 80.9892 8.65424 80.8992 8.87024 80.8992C8.99024 80.8992 9.11024 80.9112 9.23024 80.9352C9.35024 80.9592 9.45224 81.0012 9.53624 81.0612C9.75224 81.1932 9.93824 81.4872 10.0942 81.9432C10.2622 82.3872 10.4062 82.9332 10.5262 83.5812C10.6462 84.2172 10.7422 84.9012 10.8142 85.6332C10.8982 86.3532 10.9702 87.0672 11.0302 87.7752C11.3902 87.7272 11.6902 87.6912 11.9302 87.6672C12.1702 87.6432 12.3442 87.6312 12.4522 87.6312C12.8602 87.6312 13.1182 87.6852 13.2262 87.7932C13.3342 87.9012 13.3942 88.0272 13.4062 88.1712C13.4302 88.3872 13.3702 88.5792 13.2262 88.7472C13.0822 88.9152 12.8782 89.0412 12.6142 89.1252C12.5302 89.1492 12.3502 89.1912 12.0742 89.2512C11.8102 89.2992 11.4922 89.3592 11.1202 89.4312C11.1322 89.7912 11.1382 90.1272 11.1382 90.4392C11.1502 90.7392 11.1562 90.9972 11.1562 91.2132C11.1562 92.3052 11.0902 93.1272 10.9582 93.6792C10.8262 94.2192 10.6642 94.5852 10.4722 94.7772C10.2802 94.9692 10.0942 95.0652 9.91424 95.0652C9.69824 95.0652 9.54824 95.0052 9.46424 94.8852C9.38024 94.7532 9.33824 94.5672 9.33824 94.3272V93.0492C9.33824 92.6052 9.33224 92.1012 9.32024 91.5372C9.32024 90.9612 9.31424 90.3552 9.30224 89.7192C8.59424 89.8392 7.87424 89.9532 7.14224 90.0612C6.42224 90.1692 5.79824 90.2652 5.27024 90.3492C5.00624 91.0332 4.77824 91.6512 4.58624 92.2032C4.39424 92.7432 4.26224 93.1572 4.19024 93.4452C4.01024 94.0452 3.84824 94.4952 3.70424 94.7952C3.56024 95.0832 3.42224 95.2752 3.29024 95.3712C3.17024 95.4672 3.03824 95.5152 2.89424 95.5152ZM5.88224 88.7472C6.50624 88.6032 7.10024 88.4712 7.66424 88.3512C8.24024 88.2312 8.76824 88.1292 9.24824 88.0452C9.21224 86.9652 9.14624 85.9332 9.05024 84.9492C8.96624 83.9532 8.84024 83.1672 8.67224 82.5912C8.44424 82.9872 8.17424 83.5152 7.86224 84.1752C7.55024 84.8352 7.22024 85.5672 6.87224 86.3712C6.53624 87.1632 6.20624 87.9552 5.88224 88.7472ZM21.785 95.5692C21.581 95.5692 21.407 95.4792 21.263 95.2992C21.119 95.1192 21.047 94.8552 21.047 94.5072C21.047 94.0992 21.107 93.5172 21.227 92.7612C21.359 92.0052 21.551 91.0032 21.803 89.7552C21.479 90.5232 21.119 91.2492 20.723 91.9332C20.339 92.6172 19.931 93.1752 19.499 93.6072C19.067 94.0392 18.623 94.2552 18.167 94.2552C17.723 94.2552 17.327 94.0812 16.979 93.7332C16.643 93.3852 16.475 92.7732 16.475 91.8972C16.475 91.4052 16.517 90.8532 16.601 90.2412C16.685 89.6172 16.793 88.9992 16.925 88.3872C17.057 87.7752 17.189 87.2292 17.321 86.7492C17.453 86.2572 17.573 85.8972 17.681 85.6692C17.765 85.4772 17.849 85.3512 17.933 85.2912C18.017 85.2192 18.131 85.1832 18.275 85.1832C18.443 85.1832 18.623 85.2552 18.815 85.3992C19.007 85.5432 19.103 85.7832 19.103 86.1192C19.103 86.2032 19.061 86.4012 18.977 86.7132C18.905 87.0132 18.809 87.3852 18.689 87.8292C18.581 88.2612 18.467 88.7292 18.347 89.2332C18.227 89.7372 18.125 90.2412 18.041 90.7452C17.969 91.2492 17.933 91.7112 17.933 92.1312C17.933 92.3592 17.957 92.5452 18.005 92.6892C18.053 92.8332 18.173 92.9052 18.365 92.9052C18.533 92.9052 18.743 92.7372 18.995 92.4012C19.259 92.0652 19.541 91.6212 19.841 91.0692C20.153 90.5052 20.471 89.8812 20.795 89.1972C21.131 88.5132 21.455 87.8112 21.767 87.0912C22.091 86.3712 22.385 85.6872 22.649 85.0392C22.745 84.8232 22.847 84.6912 22.955 84.6432C23.063 84.5832 23.183 84.5532 23.315 84.5532C23.531 84.5532 23.723 84.6432 23.891 84.8232C24.071 84.9912 24.161 85.2132 24.161 85.4892C24.161 85.6692 24.125 85.9812 24.053 86.4252C23.993 86.8692 23.903 87.3912 23.783 87.9912C23.675 88.5792 23.549 89.2032 23.405 89.8632C23.273 90.5232 23.141 91.1772 23.009 91.8252C22.877 92.4612 22.751 93.0432 22.631 93.5712C22.523 94.0992 22.433 94.5252 22.361 94.8492C22.301 95.1492 22.217 95.3412 22.109 95.4252C22.013 95.5212 21.905 95.5692 21.785 95.5692ZM25.318 89.3772C24.994 89.3532 24.844 89.1432 24.868 88.7472C24.88 88.6512 24.946 88.5372 25.066 88.4052C25.186 88.2612 25.324 88.1832 25.48 88.1712C25.852 88.1352 26.308 88.0812 26.848 88.0092C27.4 87.9252 28.006 87.8292 28.666 87.7212C28.786 87.1332 28.93 86.5152 29.098 85.8672C29.266 85.2192 29.452 84.5892 29.656 83.9772C29.86 83.3532 30.076 82.7892 30.304 82.2852C30.532 81.7812 30.772 81.3852 31.024 81.0972C31.156 80.9652 31.276 80.8752 31.384 80.8272C31.492 80.7672 31.588 80.7372 31.672 80.7372C31.84 80.7372 31.972 80.8092 32.068 80.9532C32.176 81.0972 32.23 81.2592 32.23 81.4392C32.23 81.5352 32.212 81.6312 32.176 81.7272C31.936 82.3992 31.678 83.2272 31.402 84.2112C31.126 85.1952 30.832 86.2692 30.52 87.4332C31.624 87.2532 32.728 87.0612 33.832 86.8572C34.936 86.6532 35.884 86.4672 36.676 86.2992C36.904 86.2032 37.078 86.2212 37.198 86.3532C37.33 86.4852 37.396 86.6172 37.396 86.7492C37.396 86.9172 37.348 87.0432 37.252 87.1272C37.168 87.2112 37.078 87.2832 36.982 87.3432L36.964 87.3612C36.724 87.4572 36.364 87.5712 35.884 87.7032C35.404 87.8232 34.852 87.9552 34.228 88.0992C33.604 88.2312 32.938 88.3632 32.23 88.4952C31.534 88.6272 30.844 88.7472 30.16 88.8552C29.884 89.9112 29.602 90.9972 29.314 92.1132C29.038 93.2172 28.762 94.3032 28.486 95.3712C28.366 95.8032 28.228 96.0732 28.072 96.1812C27.928 96.3012 27.772 96.3612 27.604 96.3612C27.412 96.3612 27.244 96.2892 27.1 96.1452C26.968 96.0012 26.95 95.7072 27.046 95.2632L28.36 89.1252C27.64 89.2332 27.004 89.3112 26.452 89.3592C25.912 89.4072 25.534 89.4132 25.318 89.3772ZM35.9477 95.9472C35.6837 95.9472 35.4797 95.8692 35.3357 95.7132C35.1917 95.5692 35.1197 95.2032 35.1197 94.6152C35.1197 94.0752 35.2157 93.3732 35.4077 92.5092C35.5997 91.6332 35.8577 90.6612 36.1817 89.5932C36.5057 88.5252 36.8717 87.4212 37.2797 86.2812C37.6877 85.1292 38.1137 84.0012 38.5577 82.8972C39.0137 81.7812 39.4517 80.7612 39.8717 79.8372C40.0277 79.5012 40.1897 79.2672 40.3577 79.1352C40.5257 79.0032 40.7237 78.9372 40.9517 78.9372C41.1077 78.9372 41.2397 78.9852 41.3477 79.0812C41.4677 79.1652 41.5277 79.3092 41.5277 79.5132C41.5277 79.5852 41.4497 79.8192 41.2937 80.2152C41.1497 80.6112 40.9457 81.1332 40.6817 81.7812C40.4297 82.4292 40.1477 83.1552 39.8357 83.9592C39.5237 84.7632 39.2057 85.6092 38.8817 86.4972C38.5577 87.3852 38.2517 88.2792 37.9637 89.1792C37.6757 90.0672 37.4297 90.9192 37.2257 91.7352C37.0217 92.5512 36.8837 93.2832 36.8117 93.9312C37.0997 93.5832 37.4297 93.1392 37.8017 92.5992C38.1737 92.0592 38.5697 91.4772 38.9897 90.8532C39.4097 90.2292 39.8357 89.6112 40.2677 88.9992C40.6997 88.3872 41.1257 87.8292 41.5457 87.3252C41.9657 86.8212 42.3557 86.4192 42.7157 86.1192C43.0877 85.8072 43.4117 85.6512 43.6877 85.6512C44.1437 85.6512 44.5097 85.7952 44.7857 86.0832C45.0737 86.3592 45.2177 86.8152 45.2177 87.4512C45.2177 87.8112 45.1457 88.2432 45.0017 88.7472C44.8697 89.2512 44.7137 89.7792 44.5337 90.3312C44.3537 90.8832 44.1917 91.4112 44.0477 91.9152C43.9157 92.4192 43.8497 92.8512 43.8497 93.2112C43.8497 93.7032 44.0357 93.9492 44.4077 93.9492C44.9837 93.9492 45.5597 93.8232 46.1357 93.5712C46.7237 93.3192 47.2817 93.0072 47.8097 92.6352C48.3377 92.2512 48.8237 91.8672 49.2677 91.4832C49.7117 91.0872 50.0897 90.7512 50.4017 90.4752C50.7377 90.1752 51.0197 90.0252 51.2477 90.0252C51.5357 90.0252 51.6797 90.1752 51.6797 90.4752C51.6797 90.5592 51.6617 90.6552 51.6257 90.7632C51.5897 90.8712 51.4937 91.0092 51.3377 91.1772C51.1457 91.3932 50.8697 91.6752 50.5097 92.0232C50.1617 92.3712 49.7537 92.7432 49.2857 93.1392C48.8297 93.5352 48.3317 93.9072 47.7917 94.2552C47.2637 94.6032 46.7177 94.8912 46.1537 95.1192C45.6017 95.3352 45.0617 95.4432 44.5337 95.4432C43.8137 95.4432 43.2557 95.2392 42.8597 94.8312C42.4757 94.4112 42.2837 93.8352 42.2837 93.1032C42.2837 92.6472 42.3557 92.0952 42.4997 91.4472C42.6437 90.7992 42.8237 90.1152 43.0397 89.3952C43.2677 88.6632 43.4957 87.9492 43.7237 87.2532C43.3397 87.5172 42.9197 87.9132 42.4637 88.4412C42.0197 88.9572 41.5517 89.5452 41.0597 90.2052C40.5677 90.8532 40.0757 91.5132 39.5837 92.1852C39.1037 92.8572 38.6357 93.4812 38.1797 94.0572C37.7357 94.6212 37.3217 95.0772 36.9377 95.4252C36.5537 95.7732 36.2237 95.9472 35.9477 95.9472ZM57.5798 87.3792C57.5798 87.7632 57.4598 88.1412 57.2198 88.5132C56.9798 88.8732 56.6618 89.2212 56.2658 89.5572C55.8698 89.8812 55.4318 90.1872 54.9518 90.4752C54.4718 90.7632 53.9918 91.0152 53.5118 91.2312C53.0318 91.4472 52.5938 91.6212 52.1978 91.7532C52.1018 92.2212 52.0538 92.6352 52.0538 92.9952C52.0538 93.2232 52.1078 93.3852 52.2158 93.4812C52.3238 93.5772 52.4918 93.6252 52.7198 93.6252C53.2238 93.6252 53.7578 93.5352 54.3218 93.3552C54.8858 93.1752 55.4618 92.9412 56.0498 92.6532C56.6378 92.3652 57.2018 92.0592 57.7418 91.7352C58.2818 91.4112 58.7738 91.1052 59.2178 90.8172C59.6738 90.5292 60.0518 90.2952 60.3518 90.1152C60.6518 89.9352 60.8498 89.8452 60.9458 89.8452C61.0898 89.8452 61.1978 89.8932 61.2698 89.9892C61.3538 90.0732 61.3958 90.1752 61.3958 90.2952C61.3958 90.3912 61.2458 90.5772 60.9458 90.8532C60.6578 91.1292 60.2678 91.4532 59.7758 91.8252C59.2838 92.1852 58.7318 92.5572 58.1198 92.9412C57.5078 93.3252 56.8718 93.6852 56.2118 94.0212C55.5638 94.3572 54.9338 94.6272 54.3218 94.8312C53.7218 95.0352 53.1818 95.1372 52.7018 95.1372C52.0778 95.1372 51.5918 94.9032 51.2438 94.4352C50.8958 93.9672 50.7218 93.2412 50.7218 92.2572C50.7218 91.5972 50.8058 90.9312 50.9738 90.2592C51.1538 89.5872 51.3938 88.9452 51.6938 88.3332C52.0058 87.7092 52.3478 87.1572 52.7198 86.6772C53.1038 86.1852 53.5058 85.8012 53.9258 85.5252C54.3458 85.2372 54.7538 85.0932 55.1498 85.0932C55.9058 85.0932 56.4998 85.3032 56.9318 85.7232C57.3638 86.1432 57.5798 86.6952 57.5798 87.3792ZM52.5758 90.3672C52.9478 90.1392 53.3318 89.8992 53.7278 89.6472C54.1238 89.3952 54.4898 89.1372 54.8258 88.8732C55.1618 88.6092 55.4318 88.3332 55.6358 88.0452C55.8518 87.7452 55.9598 87.4392 55.9598 87.1272C55.9598 86.6832 55.7198 86.4612 55.2398 86.4612C54.9398 86.4612 54.6218 86.6532 54.2858 87.0372C53.9618 87.4092 53.6498 87.8952 53.3498 88.4952C53.0498 89.0952 52.7918 89.7192 52.5758 90.3672ZM61.6517 94.7232C61.3037 94.7232 60.9917 94.5252 60.7157 94.1292C60.4397 93.7332 60.3017 93.2232 60.3017 92.5992C60.3017 91.9152 60.3917 91.1832 60.5717 90.4032C60.7637 89.6232 60.9977 88.8312 61.2737 88.0272C61.5497 87.2112 61.8197 86.4252 62.0837 85.6692C62.1437 85.5132 62.2277 85.3992 62.3357 85.3272C62.4557 85.2432 62.6357 85.2012 62.8757 85.2012C63.3077 85.2012 63.5237 85.4112 63.5237 85.8312C63.5237 85.9272 63.4757 86.1432 63.3797 86.4792C63.2837 86.8152 63.1577 87.2292 63.0017 87.7212C62.8577 88.2132 62.7077 88.7472 62.5517 89.3232C62.3957 89.8872 62.2577 90.4572 62.1377 91.0332C62.0177 91.6092 61.9337 92.1432 61.8857 92.6352C62.0777 92.4312 62.2937 92.1192 62.5337 91.6992C62.7857 91.2792 63.0557 90.8052 63.3437 90.2772C63.6317 89.7372 63.9317 89.1972 64.2437 88.6572C64.5557 88.1052 64.8677 87.6012 65.1797 87.1452C65.5037 86.6772 65.8157 86.3052 66.1157 86.0292C66.4277 85.7412 66.7157 85.5972 66.9797 85.5972C67.3637 85.5972 67.6877 85.7172 67.9517 85.9572C68.2277 86.1852 68.4377 86.5932 68.5817 87.1812C68.7377 87.7572 68.8157 88.5732 68.8157 89.6292C68.8157 90.1932 68.8697 90.7212 68.9777 91.2132C69.0977 91.7052 69.2837 92.1012 69.5357 92.4012C69.7997 92.6892 70.1357 92.8332 70.5437 92.8332C71.1557 92.8332 71.7017 92.7252 72.1817 92.5092C72.6617 92.2812 73.0757 92.0292 73.4237 91.7532C73.7837 91.4652 74.0837 91.2132 74.3237 90.9972C74.5637 90.7692 74.7497 90.6552 74.8817 90.6552C75.1577 90.6552 75.2957 90.7992 75.2957 91.0872C75.2957 91.2072 75.2057 91.3992 75.0257 91.6632C74.8577 91.9152 74.6177 92.2032 74.3057 92.5272C74.0057 92.8392 73.6577 93.1452 73.2617 93.4452C72.8777 93.7332 72.4637 93.9732 72.0197 94.1652C71.5877 94.3572 71.1497 94.4532 70.7057 94.4532C69.8777 94.4532 69.1997 94.2912 68.6717 93.9672C68.1557 93.6432 67.7717 93.1092 67.5197 92.3652C67.2797 91.6212 67.1597 90.6252 67.1597 89.3772C67.1597 88.6932 67.1177 88.1952 67.0337 87.8832C66.9617 87.5592 66.8237 87.3432 66.6197 87.2352C66.4757 87.4872 66.2897 87.8472 66.0617 88.3152C65.8337 88.7712 65.5697 89.2812 65.2697 89.8452C64.9817 90.4092 64.6757 90.9792 64.3517 91.5552C64.0397 92.1192 63.7217 92.6412 63.3977 93.1212C63.0737 93.6012 62.7617 93.9912 62.4617 94.2912C62.1617 94.5792 61.8917 94.7232 61.6517 94.7232ZM72.902 89.3772C72.578 89.3532 72.428 89.1432 72.452 88.7472C72.464 88.6512 72.53 88.5372 72.65 88.4052C72.77 88.2612 72.908 88.1832 73.064 88.1712C73.436 88.1352 73.892 88.0812 74.432 88.0092C74.984 87.9252 75.59 87.8292 76.25 87.7212C76.37 87.1332 76.514 86.5152 76.682 85.8672C76.85 85.2192 77.036 84.5892 77.24 83.9772C77.444 83.3532 77.66 82.7892 77.888 82.2852C78.116 81.7812 78.356 81.3852 78.608 81.0972C78.74 80.9652 78.86 80.8752 78.968 80.8272C79.076 80.7672 79.172 80.7372 79.256 80.7372C79.424 80.7372 79.556 80.8092 79.652 80.9532C79.76 81.0972 79.814 81.2592 79.814 81.4392C79.814 81.5352 79.796 81.6312 79.76 81.7272C79.52 82.3992 79.262 83.2272 78.986 84.2112C78.71 85.1952 78.416 86.2692 78.104 87.4332C79.208 87.2532 80.312 87.0612 81.416 86.8572C82.52 86.6532 83.468 86.4672 84.26 86.2992C84.488 86.2032 84.662 86.2212 84.782 86.3532C84.914 86.4852 84.98 86.6172 84.98 86.7492C84.98 86.9172 84.932 87.0432 84.836 87.1272C84.752 87.2112 84.662 87.2832 84.566 87.3432L84.548 87.3612C84.308 87.4572 83.948 87.5712 83.468 87.7032C82.988 87.8232 82.436 87.9552 81.812 88.0992C81.188 88.2312 80.522 88.3632 79.814 88.4952C79.118 88.6272 78.428 88.7472 77.744 88.8552C77.468 89.9112 77.186 90.9972 76.898 92.1132C76.622 93.2172 76.346 94.3032 76.07 95.3712C75.95 95.8032 75.812 96.0732 75.656 96.1812C75.512 96.3012 75.356 96.3612 75.188 96.3612C74.996 96.3612 74.828 96.2892 74.684 96.1452C74.552 96.0012 74.534 95.7072 74.63 95.2632L75.944 89.1252C75.224 89.2332 74.588 89.3112 74.036 89.3592C73.496 89.4072 73.118 89.4132 72.902 89.3772ZM83.2517 94.2272C83.0237 94.2272 82.8197 94.1432 82.6397 93.9752C82.4597 93.7952 82.3697 93.5192 82.3697 93.1472C82.3697 92.8832 82.4057 92.5172 82.4777 92.0492C82.5497 91.5692 82.6457 91.0472 82.7657 90.4832C82.8857 89.9192 83.0117 89.3612 83.1437 88.8092C83.2877 88.2452 83.4317 87.7412 83.5757 87.2972C83.7197 86.8532 83.8457 86.5232 83.9537 86.3072C84.0497 86.1392 84.1397 86.0312 84.2237 85.9832C84.3197 85.9352 84.4097 85.9112 84.4937 85.9112C84.6617 85.9112 84.8057 85.9652 84.9257 86.0732C85.0577 86.1812 85.1237 86.3912 85.1237 86.7032C85.1237 86.8832 85.0877 87.1832 85.0157 87.6032C84.9557 88.0112 84.8717 88.4912 84.7637 89.0432C84.6677 89.5832 84.5597 90.1412 84.4397 90.7172C84.3317 91.2812 84.2237 91.8212 84.1157 92.3372C84.0077 92.8532 83.9237 93.2852 83.8637 93.6332C83.8157 93.8252 83.7317 93.9752 83.6117 94.0832C83.5037 94.1792 83.3837 94.2272 83.2517 94.2272ZM85.0157 84.2732C84.7397 84.2732 84.4757 84.1892 84.2237 84.0212C83.9837 83.8532 83.8637 83.5832 83.8637 83.2112C83.8637 82.8992 83.9357 82.6472 84.0797 82.4552C84.2357 82.2632 84.4157 82.1252 84.6197 82.0412C84.8357 81.9452 85.0217 81.8972 85.1777 81.8972C85.3337 81.8972 85.5077 81.9332 85.6997 82.0052C85.9037 82.0652 86.0777 82.1852 86.2217 82.3652C86.3657 82.5332 86.4377 82.7852 86.4377 83.1212C86.4377 83.3492 86.3597 83.5532 86.2037 83.7332C86.0477 83.9012 85.8557 84.0332 85.6277 84.1292C85.4117 84.2252 85.2077 84.2732 85.0157 84.2732ZM90.4589 95.3892C89.8709 95.3892 89.3609 95.2572 88.9289 94.9932C88.5089 94.7172 88.1849 94.3632 87.9569 93.9312C87.7289 93.4992 87.6149 93.0552 87.6149 92.5992C87.6149 91.6392 87.7829 90.7632 88.1189 89.9712C88.4549 89.1672 88.8749 88.4592 89.3789 87.8472C89.8949 87.2232 90.4229 86.6952 90.9629 86.2632C91.5149 85.8312 92.0129 85.5072 92.4569 85.2912C92.9129 85.0632 93.2369 84.9492 93.4289 84.9492C93.8129 84.9492 94.0049 85.1412 94.0049 85.5252C94.0049 85.7052 93.8849 85.9152 93.6449 86.1552C93.4049 86.3832 93.0989 86.6532 92.7269 86.9652C92.3549 87.2772 91.9589 87.6312 91.5389 88.0272C91.1189 88.4112 90.7229 88.8492 90.3509 89.3412C89.9789 89.8212 89.6729 90.3612 89.4329 90.9612C89.1929 91.5492 89.0729 92.1972 89.0729 92.9052C89.0729 93.6252 89.3669 93.9852 89.9549 93.9852C90.4949 93.9852 91.0469 93.8832 91.6109 93.6792C92.1869 93.4752 92.7509 93.2112 93.3029 92.8872C93.8669 92.5512 94.4069 92.2032 94.9229 91.8432C95.4389 91.4832 95.9069 91.1412 96.3269 90.8172C96.7469 90.4812 97.1009 90.2112 97.3889 90.0072C97.6769 89.8032 97.8809 89.7012 98.0009 89.7012C98.2409 89.7012 98.3609 89.8332 98.3609 90.0972C98.3609 90.3012 98.2229 90.5712 97.9469 90.9072C97.6709 91.2432 97.2989 91.6092 96.8309 92.0052C96.3629 92.4012 95.8409 92.8032 95.2649 93.2112C94.6889 93.6072 94.1069 93.9732 93.5189 94.3092C92.9309 94.6332 92.3669 94.8972 91.8269 95.1012C91.2989 95.2932 90.8429 95.3892 90.4589 95.3892ZM108.041 94.7412C107.813 94.7412 107.621 94.6332 107.465 94.4172C107.309 94.2012 107.231 93.7452 107.231 93.0492C107.231 92.5452 107.297 91.9212 107.429 91.1772C107.561 90.4332 107.735 89.6352 107.951 88.7832C108.179 87.9312 108.419 87.0792 108.671 86.2272C108.923 85.3752 109.175 84.5772 109.427 83.8332C109.679 83.0892 109.901 82.4592 110.093 81.9432C110.285 81.4152 110.423 81.0612 110.507 80.8812C110.555 80.7612 110.639 80.6532 110.759 80.5572C110.879 80.4612 111.005 80.4132 111.137 80.4132C111.413 80.4132 111.587 80.4852 111.659 80.6292C111.731 80.7732 111.767 80.9292 111.767 81.0972C111.767 81.3612 111.647 81.9672 111.407 82.9152C111.167 83.8512 110.795 85.2432 110.291 87.0912C110.759 86.9832 111.275 86.8812 111.839 86.7852C112.403 86.6892 112.967 86.5992 113.531 86.5152C114.107 86.4312 114.635 86.3592 115.115 86.2992C115.607 86.2272 116.015 86.1732 116.339 86.1372C116.675 86.1012 116.879 86.0832 116.951 86.0832C117.035 86.0832 117.137 86.1072 117.257 86.1552C117.449 85.4232 117.635 84.7452 117.815 84.1212C117.995 83.4972 118.151 82.9752 118.283 82.5552C118.415 82.1232 118.505 81.8352 118.553 81.6912C118.805 81.0912 119.105 80.7912 119.453 80.7912C119.657 80.7912 119.825 80.8632 119.957 81.0072C120.089 81.1512 120.155 81.3612 120.155 81.6372C120.155 81.8652 120.107 82.2492 120.011 82.7892C119.915 83.3292 119.783 83.9652 119.615 84.6972C119.459 85.4292 119.279 86.2092 119.075 87.0372C118.883 87.8532 118.685 88.6692 118.481 89.4852C118.289 90.2892 118.103 91.0452 117.923 91.7532C117.755 92.4492 117.611 93.0372 117.491 93.5172C117.383 93.9972 117.317 94.3092 117.293 94.4532C117.245 94.7532 117.167 95.0292 117.059 95.2812C116.951 95.5452 116.747 95.6772 116.447 95.6772C116.207 95.6772 116.045 95.5212 115.961 95.2092C115.889 94.8972 115.853 94.4952 115.853 94.0032C115.853 93.4512 115.901 92.8212 115.997 92.1132C116.093 91.3932 116.219 90.6372 116.375 89.8452C116.543 89.0532 116.723 88.2672 116.915 87.4872C116.579 87.5712 116.129 87.6672 115.565 87.7752C115.013 87.8832 114.401 87.9972 113.729 88.1172C113.057 88.2372 112.385 88.3512 111.713 88.4592C111.041 88.5672 110.423 88.6572 109.859 88.7292C109.535 90.0252 109.277 91.1232 109.085 92.0232C108.905 92.9112 108.743 93.5892 108.599 94.0572C108.455 94.5132 108.269 94.7412 108.041 94.7412ZM124.912 94.7952C124.456 94.7952 124.078 94.5852 123.778 94.1652C123.49 93.7332 123.346 93.1752 123.346 92.4912C123.346 91.8912 123.496 91.3152 123.796 90.7632C124.096 90.1992 124.492 89.6592 124.984 89.1432C125.488 88.6272 126.046 88.1532 126.658 87.7212C127.27 87.2772 127.888 86.8752 128.512 86.5152C129.148 86.1552 129.748 85.8492 130.312 85.5972C130.888 85.3452 131.38 85.1532 131.788 85.0212C132.196 84.8772 132.478 84.8052 132.634 84.8052C132.898 84.8052 133.03 84.9492 133.03 85.2372C133.03 85.4892 132.928 85.7112 132.724 85.9032C132.532 86.0952 132.298 86.2572 132.022 86.3892C131.518 86.6412 130.942 86.9412 130.294 87.2892C129.658 87.6252 129.01 88.0032 128.35 88.4232C127.702 88.8312 127.096 89.2692 126.532 89.7372C125.98 90.2052 125.536 90.6972 125.2 91.2132C124.864 91.7172 124.696 92.2332 124.696 92.7612C124.696 92.9172 124.726 93.0372 124.786 93.1212C124.858 93.2052 124.978 93.2472 125.146 93.2472C125.362 93.2472 125.638 93.1452 125.974 92.9412C126.322 92.7252 126.7 92.4432 127.108 92.0952C127.528 91.7352 127.942 91.3392 128.35 90.9072C128.77 90.4752 129.16 90.0372 129.52 89.5932C129.88 89.1372 130.174 88.7112 130.402 88.3152C130.534 88.0992 130.684 87.9192 130.852 87.7752C131.02 87.6192 131.2 87.5412 131.392 87.5412C131.656 87.5412 131.788 87.6972 131.788 88.0092C131.788 88.1052 131.752 88.3512 131.68 88.7472C131.62 89.1432 131.554 89.6232 131.482 90.1872C131.41 90.7392 131.374 91.3212 131.374 91.9332C131.374 93.2412 131.686 93.8952 132.31 93.8952C132.658 93.8952 133.018 93.7632 133.39 93.4992C133.774 93.2352 134.146 92.8992 134.506 92.4912C134.878 92.0712 135.22 91.6272 135.532 91.1592C135.844 90.6912 136.108 90.2472 136.324 89.8272C136.54 89.4072 136.69 89.0712 136.774 88.8192C136.966 87.4752 137.236 86.5092 137.584 85.9212C137.944 85.3332 138.31 85.0392 138.682 85.0392C138.922 85.0392 139.114 85.1052 139.258 85.2372C139.402 85.3572 139.474 85.6272 139.474 86.0472C139.474 86.3352 139.36 86.7672 139.132 87.3432C138.904 87.9192 138.598 88.5492 138.214 89.2332C138.106 89.8452 138.046 90.4752 138.034 91.1232C138.022 91.7712 138.088 92.3652 138.232 92.9052C138.544 92.7492 138.856 92.4672 139.168 92.0592C139.48 91.6392 139.798 91.1532 140.122 90.6012C140.446 90.0492 140.764 89.4792 141.076 88.8912C141.4 88.3032 141.718 87.7632 142.03 87.2712C142.354 86.7672 142.666 86.3592 142.966 86.0472C143.278 85.7352 143.584 85.5792 143.884 85.5792C144.268 85.5792 144.586 85.6992 144.838 85.9392C145.09 86.1672 145.282 86.5752 145.414 87.1632C145.546 87.7392 145.612 88.5552 145.612 89.6112C145.612 90.1752 145.666 90.7032 145.774 91.1952C145.894 91.6872 146.08 92.0832 146.332 92.3832C146.596 92.6712 146.932 92.8152 147.34 92.8152C147.952 92.8152 148.498 92.7072 148.978 92.4912C149.458 92.2632 149.872 92.0112 150.22 91.7352C150.58 91.4472 150.88 91.1952 151.12 90.9792C151.36 90.7512 151.546 90.6372 151.678 90.6372C151.954 90.6372 152.092 90.7812 152.092 91.0692C152.092 91.1892 152.002 91.3812 151.822 91.6452C151.654 91.8972 151.414 92.1852 151.102 92.5092C150.802 92.8212 150.454 93.1272 150.058 93.4272C149.674 93.7152 149.26 93.9552 148.816 94.1472C148.384 94.3392 147.946 94.4352 147.502 94.4352C146.674 94.4352 145.996 94.2732 145.468 93.9492C144.952 93.6252 144.568 93.0912 144.316 92.3472C144.076 91.6032 143.956 90.6072 143.956 89.3592C143.956 88.6752 143.932 88.1772 143.884 87.8652C143.836 87.5412 143.716 87.3252 143.524 87.2172C143.38 87.4692 143.188 87.8292 142.948 88.2972C142.72 88.7532 142.456 89.2632 142.156 89.8272C141.868 90.3912 141.556 90.9612 141.22 91.5372C140.884 92.1012 140.542 92.6232 140.194 93.1032C139.846 93.5712 139.498 93.9552 139.15 94.2552C138.802 94.5432 138.472 94.6872 138.16 94.6872C137.956 94.6872 137.746 94.5792 137.53 94.3632C137.314 94.1352 137.134 93.8412 136.99 93.4812C136.846 93.1092 136.774 92.7132 136.774 92.2932C136.774 92.0172 136.78 91.7592 136.792 91.5192C136.3 92.2152 135.784 92.8632 135.244 93.4632C134.704 94.0512 134.164 94.5252 133.624 94.8852C133.084 95.2452 132.58 95.4252 132.112 95.4252C131.74 95.4252 131.392 95.2932 131.068 95.0292C130.744 94.7532 130.48 94.2912 130.276 93.6432C130.084 92.9832 129.976 92.0892 129.952 90.9612C129.424 91.7052 128.866 92.3652 128.278 92.9412C127.69 93.5172 127.108 93.9732 126.532 94.3092C125.956 94.6332 125.416 94.7952 124.912 94.7952ZM157.78 86.0832C158.104 85.3032 158.41 84.4992 158.698 83.6712C158.998 82.8432 159.268 81.9972 159.508 81.1332C159.58 80.8932 159.688 80.7012 159.832 80.5572C159.988 80.4012 160.168 80.3232 160.372 80.3232C160.516 80.3232 160.636 80.3772 160.732 80.4852C160.84 80.5932 160.894 80.7372 160.894 80.9172C160.894 81.1452 160.804 81.5412 160.624 82.1052C160.456 82.6692 160.24 83.3832 159.976 84.2472C159.724 85.1112 159.466 86.1072 159.202 87.2352C158.95 88.3512 158.734 89.5872 158.554 90.9432C158.386 92.2992 158.302 93.7452 158.302 95.2812C158.302 95.6172 158.23 95.8932 158.086 96.1092C157.942 96.3372 157.768 96.4512 157.564 96.4512C157.444 96.4512 157.33 96.4212 157.222 96.3612C157.114 96.3012 157.018 96.1572 156.934 95.9292C156.862 95.7132 156.802 95.3712 156.754 94.9032C156.706 94.4232 156.682 93.7752 156.682 92.9592C156.682 92.3352 156.718 91.6572 156.79 90.9252C156.238 91.9212 155.638 92.7912 154.99 93.5352C154.354 94.2672 153.736 94.8312 153.136 95.2272C152.548 95.6232 152.044 95.8212 151.624 95.8212C151.108 95.8212 150.688 95.6472 150.364 95.2992C150.052 94.9632 149.896 94.4592 149.896 93.7872C149.896 93.1992 150.034 92.5932 150.31 91.9692C150.586 91.3452 150.952 90.7332 151.408 90.1332C151.864 89.5212 152.368 88.9452 152.92 88.4052C153.472 87.8652 154.024 87.3912 154.576 86.9832C155.14 86.5632 155.662 86.2392 156.142 86.0112C156.622 85.7712 157.012 85.6512 157.312 85.6512C157.432 85.6512 157.54 85.6932 157.636 85.7772C157.732 85.8612 157.78 85.9632 157.78 86.0832ZM157.546 86.6412C157.462 86.7252 157.36 86.8092 157.24 86.8932C157.12 86.9772 156.988 87.0672 156.844 87.1632C156.316 87.5352 155.734 87.9672 155.098 88.4592C154.474 88.9392 153.874 89.4672 153.298 90.0432C152.734 90.6072 152.272 91.2012 151.912 91.8252C151.552 92.4492 151.372 93.0912 151.372 93.7512C151.372 94.0392 151.516 94.1832 151.804 94.1832C152.2 94.1832 152.632 93.9972 153.1 93.6252C153.58 93.2412 154.072 92.7132 154.576 92.0412C155.08 91.3572 155.584 90.5592 156.088 89.6472C156.592 88.7232 157.078 87.7212 157.546 86.6412ZM176.143 94.5972C176.131 94.7892 176.053 94.9452 175.909 95.0652C175.765 95.1852 175.597 95.2452 175.405 95.2452C175.189 95.2452 175.009 95.1732 174.865 95.0292C174.721 94.8852 174.649 94.6632 174.649 94.3632C174.649 93.5832 174.685 92.7372 174.757 91.8252C174.829 90.9012 174.919 89.9892 175.027 89.0892C175.135 88.1772 175.243 87.3372 175.351 86.5692C174.955 87.1332 174.523 87.7572 174.055 88.4412C173.599 89.1252 173.131 89.8032 172.651 90.4752C172.171 91.1472 171.703 91.7652 171.247 92.3292C170.791 92.8812 170.377 93.3312 170.005 93.6792C169.633 94.0152 169.327 94.1832 169.087 94.1832C168.643 94.1832 168.259 94.0092 167.935 93.6612C167.611 93.3012 167.449 92.8512 167.449 92.3112C167.449 92.0952 167.473 91.8012 167.521 91.4292C167.569 91.0452 167.623 90.6432 167.683 90.2232C167.743 89.8032 167.797 89.4132 167.845 89.0532C167.893 88.6812 167.917 88.4052 167.917 88.2252C167.917 88.0572 167.899 87.9132 167.863 87.7932C167.839 87.6612 167.779 87.5952 167.683 87.5952C167.539 87.5952 167.341 87.7572 167.089 88.0812C166.837 88.3932 166.555 88.7952 166.243 89.2872C165.943 89.7792 165.631 90.3012 165.307 90.8532C164.995 91.4052 164.701 91.9272 164.425 92.4192C164.149 92.8992 163.915 93.2772 163.723 93.5532C163.567 93.8172 163.423 94.0092 163.291 94.1292C163.159 94.2492 162.997 94.3092 162.805 94.3092C162.577 94.3092 162.367 94.1892 162.175 93.9492C161.995 93.7092 161.905 93.4152 161.905 93.0672C161.905 92.8632 161.941 92.5452 162.013 92.1132C162.085 91.6692 162.175 91.1832 162.283 90.6552C162.403 90.1272 162.517 89.6112 162.625 89.1072C162.745 88.5912 162.847 88.1532 162.931 87.7932C163.027 87.3852 163.147 87.1092 163.291 86.9652C163.435 86.8212 163.591 86.7492 163.759 86.7492C163.987 86.7492 164.167 86.8332 164.299 87.0012C164.443 87.1572 164.515 87.4032 164.515 87.7392C164.515 87.7992 164.479 87.9612 164.407 88.2252C164.335 88.4772 164.245 88.7892 164.137 89.1612C164.041 89.5212 163.933 89.8992 163.813 90.2952C163.705 90.6912 163.615 91.0572 163.543 91.3932C163.807 90.9492 164.083 90.4692 164.371 89.9532C164.671 89.4372 164.971 88.9272 165.271 88.4232C165.571 87.9072 165.871 87.4392 166.171 87.0192C166.471 86.5872 166.765 86.2452 167.053 85.9932C167.341 85.7412 167.617 85.6152 167.881 85.6152C168.193 85.6152 168.481 85.7112 168.745 85.9032C169.021 86.0952 169.243 86.3532 169.411 86.6772C169.579 87.0012 169.663 87.3612 169.663 87.7572C169.663 88.0332 169.615 88.4232 169.519 88.9272C169.423 89.4192 169.321 89.9532 169.213 90.5292C169.117 91.1052 169.057 91.6512 169.033 92.1672C169.033 92.2872 169.069 92.3472 169.141 92.3472C169.201 92.3472 169.273 92.3052 169.357 92.2212C169.705 91.8372 170.089 91.3752 170.509 90.8352C170.929 90.2832 171.355 89.7012 171.787 89.0892C172.231 88.4772 172.669 87.8772 173.101 87.2892C173.533 86.6892 173.935 86.1492 174.307 85.6692C174.691 85.1772 175.027 84.7872 175.315 84.4992C175.615 84.2112 175.849 84.0672 176.017 84.0672C176.377 84.0672 176.653 84.1692 176.845 84.3732C177.037 84.5772 177.133 84.9192 177.133 85.3992C177.133 85.7832 177.103 86.2812 177.043 86.8932C176.995 87.5052 176.929 88.1712 176.845 88.8912C176.773 89.6112 176.689 90.3372 176.593 91.0692C176.509 91.7892 176.425 92.4612 176.341 93.0852C176.257 93.6972 176.191 94.2012 176.143 94.5972ZM180.529 95.6052C180.073 95.6052 179.695 95.3952 179.395 94.9752C179.107 94.5432 178.963 93.9852 178.963 93.3012C178.963 92.6652 179.119 92.0352 179.431 91.4112C179.755 90.7872 180.181 90.1872 180.709 89.6112C181.237 89.0352 181.813 88.5072 182.437 88.0272C183.061 87.5352 183.685 87.1092 184.309 86.7492C184.945 86.3892 185.527 86.1072 186.055 85.9032C186.583 85.6992 187.003 85.5972 187.315 85.5972C187.483 85.5972 187.621 85.6332 187.729 85.7052C187.837 85.7652 187.891 85.8792 187.891 86.0472C187.891 86.1552 187.849 86.2572 187.765 86.3532C187.777 86.3532 187.789 86.3532 187.801 86.3532C188.065 86.3532 188.197 86.5092 188.197 86.8212C188.197 86.9292 188.155 87.1512 188.071 87.4872C187.987 87.8112 187.891 88.2192 187.783 88.7112C187.675 89.2032 187.579 89.7492 187.495 90.3492C187.411 90.9372 187.369 91.5372 187.369 92.1492C187.369 92.6652 187.567 92.9232 187.963 92.9232C188.407 92.9232 188.857 92.8212 189.313 92.6172C189.769 92.4132 190.213 92.1672 190.645 91.8792C191.077 91.5792 191.473 91.2852 191.833 90.9972C192.193 90.6972 192.499 90.4452 192.751 90.2412C193.003 90.0372 193.183 89.9352 193.291 89.9352C193.387 89.9352 193.471 89.9652 193.543 90.0252C193.615 90.0852 193.651 90.1812 193.651 90.3132C193.651 90.4332 193.531 90.6492 193.291 90.9612C193.051 91.2732 192.733 91.6272 192.337 92.0232C191.941 92.4192 191.497 92.8032 191.005 93.1752C190.513 93.5472 190.009 93.8532 189.493 94.0932C188.977 94.3332 188.485 94.4532 188.017 94.4532C187.657 94.4532 187.327 94.3452 187.027 94.1292C186.739 93.9012 186.505 93.5172 186.325 92.9772C186.157 92.4372 186.073 91.6932 186.073 90.7452V90.2952C185.485 91.2672 184.867 92.1552 184.219 92.9592C183.583 93.7632 182.947 94.4052 182.311 94.8852C181.687 95.3652 181.093 95.6052 180.529 95.6052ZM186.973 86.8932C186.913 86.9172 186.829 86.9532 186.721 87.0012C186.169 87.2532 185.593 87.5652 184.993 87.9372C184.405 88.3092 183.829 88.7232 183.265 89.1792C182.713 89.6352 182.215 90.1092 181.771 90.6012C181.327 91.0932 180.973 91.5912 180.709 92.0952C180.445 92.5992 180.313 93.0912 180.313 93.5712C180.313 93.7272 180.343 93.8472 180.403 93.9312C180.475 94.0152 180.595 94.0572 180.763 94.0572C181.003 94.0572 181.315 93.9072 181.699 93.6072C182.083 93.2952 182.503 92.8872 182.959 92.3832C183.427 91.8792 183.895 91.3212 184.363 90.7092C184.831 90.0972 185.275 89.4792 185.695 88.8552C186.127 88.2312 186.499 87.6552 186.811 87.1272C186.859 87.0432 186.913 86.9652 186.973 86.8932ZM199.405 86.0832C199.729 85.3032 200.035 84.4992 200.323 83.6712C200.623 82.8432 200.893 81.9972 201.133 81.1332C201.205 80.8932 201.313 80.7012 201.457 80.5572C201.613 80.4012 201.793 80.3232 201.997 80.3232C202.141 80.3232 202.261 80.3772 202.357 80.4852C202.465 80.5932 202.519 80.7372 202.519 80.9172C202.519 81.1452 202.429 81.5412 202.249 82.1052C202.081 82.6692 201.865 83.3832 201.601 84.2472C201.349 85.1112 201.091 86.1072 200.827 87.2352C200.575 88.3512 200.359 89.5872 200.179 90.9432C200.011 92.2992 199.927 93.7452 199.927 95.2812C199.927 95.6172 199.855 95.8932 199.711 96.1092C199.567 96.3372 199.393 96.4512 199.189 96.4512C199.069 96.4512 198.955 96.4212 198.847 96.3612C198.739 96.3012 198.643 96.1572 198.559 95.9292C198.487 95.7132 198.427 95.3712 198.379 94.9032C198.331 94.4232 198.307 93.7752 198.307 92.9592C198.307 92.3352 198.343 91.6572 198.415 90.9252C197.863 91.9212 197.263 92.7912 196.615 93.5352C195.979 94.2672 195.361 94.8312 194.761 95.2272C194.173 95.6232 193.669 95.8212 193.249 95.8212C192.733 95.8212 192.313 95.6472 191.989 95.2992C191.677 94.9632 191.521 94.4592 191.521 93.7872C191.521 93.1992 191.659 92.5932 191.935 91.9692C192.211 91.3452 192.577 90.7332 193.033 90.1332C193.489 89.5212 193.993 88.9452 194.545 88.4052C195.097 87.8652 195.649 87.3912 196.201 86.9832C196.765 86.5632 197.287 86.2392 197.767 86.0112C198.247 85.7712 198.637 85.6512 198.937 85.6512C199.057 85.6512 199.165 85.6932 199.261 85.7772C199.357 85.8612 199.405 85.9632 199.405 86.0832ZM199.171 86.6412C199.087 86.7252 198.985 86.8092 198.865 86.8932C198.745 86.9772 198.613 87.0672 198.469 87.1632C197.941 87.5352 197.359 87.9672 196.723 88.4592C196.099 88.9392 195.499 89.4672 194.923 90.0432C194.359 90.6072 193.897 91.2012 193.537 91.8252C193.177 92.4492 192.997 93.0912 192.997 93.7512C192.997 94.0392 193.141 94.1832 193.429 94.1832C193.825 94.1832 194.257 93.9972 194.725 93.6252C195.205 93.2412 195.697 92.7132 196.201 92.0412C196.705 91.3572 197.209 90.5592 197.713 89.6472C198.217 88.7232 198.703 87.7212 199.171 86.6412ZM210.545 87.3792C210.545 87.7632 210.425 88.1412 210.185 88.5132C209.945 88.8732 209.627 89.2212 209.231 89.5572C208.835 89.8812 208.397 90.1872 207.917 90.4752C207.437 90.7632 206.957 91.0152 206.477 91.2312C205.997 91.4472 205.559 91.6212 205.163 91.7532C205.067 92.2212 205.019 92.6352 205.019 92.9952C205.019 93.2232 205.073 93.3852 205.181 93.4812C205.289 93.5772 205.457 93.6252 205.685 93.6252C206.189 93.6252 206.723 93.5352 207.287 93.3552C207.851 93.1752 208.427 92.9412 209.015 92.6532C209.603 92.3652 210.167 92.0592 210.707 91.7352C211.247 91.4112 211.739 91.1052 212.183 90.8172C212.639 90.5292 213.017 90.2952 213.317 90.1152C213.617 89.9352 213.815 89.8452 213.911 89.8452C214.055 89.8452 214.163 89.8932 214.235 89.9892C214.319 90.0732 214.361 90.1752 214.361 90.2952C214.361 90.3912 214.211 90.5772 213.911 90.8532C213.623 91.1292 213.233 91.4532 212.741 91.8252C212.249 92.1852 211.697 92.5572 211.085 92.9412C210.473 93.3252 209.837 93.6852 209.177 94.0212C208.529 94.3572 207.899 94.6272 207.287 94.8312C206.687 95.0352 206.147 95.1372 205.667 95.1372C205.043 95.1372 204.557 94.9032 204.209 94.4352C203.861 93.9672 203.687 93.2412 203.687 92.2572C203.687 91.5972 203.771 90.9312 203.939 90.2592C204.119 89.5872 204.359 88.9452 204.659 88.3332C204.971 87.7092 205.313 87.1572 205.685 86.6772C206.069 86.1852 206.471 85.8012 206.891 85.5252C207.311 85.2372 207.719 85.0932 208.115 85.0932C208.871 85.0932 209.465 85.3032 209.897 85.7232C210.329 86.1432 210.545 86.6952 210.545 87.3792ZM205.541 90.3672C205.913 90.1392 206.297 89.8992 206.693 89.6472C207.089 89.3952 207.455 89.1372 207.791 88.8732C208.127 88.6092 208.397 88.3332 208.601 88.0452C208.817 87.7452 208.925 87.4392 208.925 87.1272C208.925 86.6832 208.685 86.4612 208.205 86.4612C207.905 86.4612 207.587 86.6532 207.251 87.0372C206.927 87.4092 206.615 87.8952 206.315 88.4952C206.015 89.0952 205.757 89.7192 205.541 90.3672ZM69.1726 117.515C68.9806 117.515 68.8246 117.449 68.7046 117.317C68.5846 117.185 68.5246 116.951 68.5246 116.615C68.5246 116.363 68.6026 115.955 68.7586 115.391C68.9266 114.815 69.1486 114.143 69.4246 113.375C69.7126 112.607 70.0306 111.797 70.3786 110.945C70.7386 110.081 71.1106 109.223 71.4946 108.371C71.8786 107.519 72.2566 106.733 72.6286 106.013C73.0006 105.281 73.3426 104.663 73.6546 104.159C73.9666 103.655 74.2306 103.325 74.4466 103.169C74.6986 102.989 74.9326 102.899 75.1486 102.899C75.2686 102.899 75.3886 102.911 75.5086 102.935C75.6286 102.959 75.7306 103.001 75.8146 103.061C76.0306 103.193 76.2166 103.487 76.3726 103.943C76.5406 104.387 76.6846 104.933 76.8046 105.581C76.9246 106.217 77.0206 106.901 77.0926 107.633C77.1766 108.353 77.2486 109.067 77.3086 109.775C77.6686 109.727 77.9686 109.691 78.2086 109.667C78.4486 109.643 78.6226 109.631 78.7306 109.631C79.1386 109.631 79.3966 109.685 79.5046 109.793C79.6126 109.901 79.6726 110.027 79.6846 110.171C79.7086 110.387 79.6486 110.579 79.5046 110.747C79.3606 110.915 79.1566 111.041 78.8926 111.125C78.8086 111.149 78.6286 111.191 78.3526 111.251C78.0886 111.299 77.7706 111.359 77.3986 111.431C77.4106 111.791 77.4166 112.127 77.4166 112.439C77.4286 112.739 77.4346 112.997 77.4346 113.213C77.4346 114.305 77.3686 115.127 77.2366 115.679C77.1046 116.219 76.9426 116.585 76.7506 116.777C76.5586 116.969 76.3726 117.065 76.1926 117.065C75.9766 117.065 75.8266 117.005 75.7426 116.885C75.6586 116.753 75.6166 116.567 75.6166 116.327V115.049C75.6166 114.605 75.6106 114.101 75.5986 113.537C75.5986 112.961 75.5926 112.355 75.5806 111.719C74.8726 111.839 74.1526 111.953 73.4206 112.061C72.7006 112.169 72.0766 112.265 71.5486 112.349C71.2846 113.033 71.0566 113.651 70.8646 114.203C70.6726 114.743 70.5406 115.157 70.4686 115.445C70.2886 116.045 70.1266 116.495 69.9826 116.795C69.8386 117.083 69.7006 117.275 69.5686 117.371C69.4486 117.467 69.3166 117.515 69.1726 117.515ZM72.1606 110.747C72.7846 110.603 73.3786 110.471 73.9426 110.351C74.5186 110.231 75.0466 110.129 75.5266 110.045C75.4906 108.965 75.4246 107.933 75.3286 106.949C75.2446 105.953 75.1186 105.167 74.9506 104.591C74.7226 104.987 74.4526 105.515 74.1406 106.175C73.8286 106.835 73.4986 107.567 73.1506 108.371C72.8146 109.163 72.4846 109.955 72.1606 110.747ZM83.1271 117.479C82.9351 117.479 82.7731 117.401 82.6411 117.245C82.5091 117.089 82.4431 116.873 82.4431 116.597C82.4431 116.393 82.4851 116.057 82.5691 115.589C82.6651 115.109 82.7671 114.551 82.8751 113.915C82.9951 113.279 83.0971 112.619 83.1811 111.935C83.2651 111.239 83.3071 110.573 83.3071 109.937C83.3071 109.625 83.3851 109.397 83.5411 109.253C83.7091 109.097 83.8951 109.019 84.0991 109.019C84.2911 109.019 84.4351 109.139 84.5311 109.379C84.6271 109.619 84.6451 110.099 84.5851 110.819C85.1371 109.595 85.7431 108.611 86.4031 107.867C87.0751 107.111 87.7411 106.571 88.4011 106.247C89.0611 105.911 89.6551 105.743 90.1831 105.743C90.5311 105.743 90.7831 105.815 90.9391 105.959C91.1071 106.091 91.1911 106.241 91.1911 106.409C91.1911 106.637 91.0951 106.817 90.9031 106.949C90.7231 107.069 90.4051 107.213 89.9491 107.381C89.4211 107.585 88.9351 107.825 88.4911 108.101C88.0591 108.365 87.6451 108.713 87.2491 109.145C86.8651 109.577 86.4871 110.129 86.1151 110.801C85.7431 111.461 85.3711 112.277 84.9991 113.249C84.6271 114.221 84.2311 115.391 83.8111 116.759C83.7391 117.023 83.6431 117.209 83.5231 117.317C83.4151 117.425 83.2831 117.479 83.1271 117.479ZM89.0827 111.377C88.7587 111.353 88.6087 111.143 88.6327 110.747C88.6447 110.651 88.7107 110.537 88.8307 110.405C88.9507 110.261 89.0887 110.183 89.2447 110.171C89.6167 110.135 90.0727 110.081 90.6127 110.009C91.1647 109.925 91.7707 109.829 92.4307 109.721C92.5507 109.133 92.6947 108.515 92.8627 107.867C93.0307 107.219 93.2167 106.589 93.4207 105.977C93.6247 105.353 93.8407 104.789 94.0687 104.285C94.2967 103.781 94.5367 103.385 94.7887 103.097C94.9207 102.965 95.0407 102.875 95.1487 102.827C95.2567 102.767 95.3527 102.737 95.4367 102.737C95.6047 102.737 95.7367 102.809 95.8327 102.953C95.9407 103.097 95.9947 103.259 95.9947 103.439C95.9947 103.535 95.9767 103.631 95.9407 103.727C95.7007 104.399 95.4427 105.227 95.1667 106.211C94.8907 107.195 94.5967 108.269 94.2847 109.433C95.3887 109.253 96.4927 109.061 97.5967 108.857C98.7007 108.653 99.6487 108.467 100.441 108.299C100.669 108.203 100.843 108.221 100.963 108.353C101.095 108.485 101.161 108.617 101.161 108.749C101.161 108.917 101.113 109.043 101.017 109.127C100.933 109.211 100.843 109.283 100.747 109.343L100.729 109.361C100.489 109.457 100.129 109.571 99.6487 109.703C99.1687 109.823 98.6167 109.955 97.9927 110.099C97.3687 110.231 96.7027 110.363 95.9947 110.495C95.2987 110.627 94.6087 110.747 93.9247 110.855C93.6487 111.911 93.3667 112.997 93.0787 114.113C92.8027 115.217 92.5267 116.303 92.2507 117.371C92.1307 117.803 91.9927 118.073 91.8367 118.181C91.6927 118.301 91.5367 118.361 91.3687 118.361C91.1767 118.361 91.0087 118.289 90.8647 118.145C90.7327 118.001 90.7147 117.707 90.8107 117.263L92.1247 111.125C91.4047 111.233 90.7687 111.311 90.2167 111.359C89.6767 111.407 89.2987 111.413 89.0827 111.377ZM100.908 118.659C100.488 118.659 100.14 118.473 99.8644 118.101C99.6004 117.717 99.4684 117.039 99.4684 116.067C99.4684 115.047 99.4864 114.057 99.5224 113.097C99.5584 112.125 99.6244 111.255 99.7204 110.487C99.8284 109.719 99.9724 109.107 100.152 108.651C100.332 108.195 100.566 107.967 100.854 107.967C101.058 107.967 101.238 108.081 101.394 108.309C101.55 108.525 101.628 108.813 101.628 109.173C101.628 109.545 101.592 110.043 101.52 110.667C101.448 111.291 101.358 111.963 101.25 112.683C101.154 113.391 101.07 114.081 100.998 114.753C100.926 115.413 100.89 115.971 100.89 116.427C100.89 116.619 100.896 116.775 100.908 116.895C100.932 117.003 100.968 117.057 101.016 117.057C101.196 117.057 101.388 116.901 101.592 116.589C101.808 116.265 102.036 115.845 102.276 115.329C102.516 114.801 102.768 114.225 103.032 113.601C103.296 112.965 103.566 112.335 103.842 111.711C104.118 111.087 104.4 110.517 104.688 110.001C104.976 109.473 105.264 109.053 105.552 108.741C105.84 108.417 106.122 108.255 106.398 108.255C106.722 108.255 107.022 108.411 107.298 108.723C107.586 109.023 107.73 109.455 107.73 110.019C107.73 110.187 107.706 110.481 107.658 110.901C107.61 111.309 107.55 111.777 107.478 112.305C107.406 112.833 107.334 113.361 107.262 113.889C107.19 114.405 107.13 114.867 107.082 115.275C107.034 115.671 107.01 115.953 107.01 116.121C107.01 116.745 107.07 117.057 107.19 117.057C107.526 117.057 107.88 116.847 108.252 116.427C108.636 115.995 109.02 115.443 109.404 114.771C109.8 114.087 110.19 113.349 110.574 112.557C110.97 111.753 111.348 110.985 111.708 110.253C111.876 109.869 112.014 109.611 112.122 109.479C112.242 109.335 112.362 109.263 112.482 109.263C112.65 109.263 112.806 109.353 112.95 109.533C113.106 109.713 113.184 109.959 113.184 110.271C113.184 110.379 113.178 110.487 113.166 110.595C113.154 110.691 113.124 110.799 113.076 110.919C112.668 111.999 112.23 113.001 111.762 113.925C111.294 114.837 110.814 115.635 110.322 116.319C109.842 116.991 109.368 117.519 108.9 117.903C108.432 118.275 108 118.461 107.604 118.461C106.92 118.461 106.386 118.269 106.002 117.885C105.63 117.489 105.444 116.961 105.444 116.301C105.444 116.025 105.462 115.665 105.498 115.221C105.546 114.777 105.6 114.297 105.66 113.781C105.732 113.265 105.804 112.767 105.876 112.287C105.948 111.807 106.008 111.387 106.056 111.027C106.116 110.667 106.152 110.421 106.164 110.289C106.176 110.121 106.158 110.037 106.11 110.037C106.062 110.037 105.966 110.193 105.822 110.505C105.69 110.805 105.528 111.189 105.336 111.657C105.156 112.113 104.964 112.587 104.76 113.079C104.532 113.619 104.268 114.213 103.968 114.861C103.68 115.497 103.368 116.103 103.032 116.679C102.708 117.255 102.366 117.729 102.006 118.101C101.646 118.473 101.28 118.659 100.908 118.659ZM117.177 117.317C116.469 117.317 115.911 117.047 115.503 116.507C115.095 115.967 114.891 115.265 114.891 114.401C114.891 114.089 114.933 113.759 115.017 113.411C115.113 113.051 115.233 112.727 115.377 112.439C115.293 112.355 115.227 112.241 115.179 112.097C115.131 111.941 115.107 111.749 115.107 111.521C115.107 110.813 115.227 110.165 115.467 109.577C115.707 108.989 116.025 108.479 116.421 108.047C116.817 107.603 117.255 107.261 117.735 107.021C118.227 106.781 118.725 106.661 119.229 106.661C120.057 106.661 120.729 106.961 121.245 107.561C121.761 108.149 122.019 109.049 122.019 110.261C122.019 110.897 121.923 111.545 121.731 112.205C121.551 112.865 121.299 113.501 120.975 114.113C120.663 114.725 120.297 115.271 119.877 115.751C119.469 116.231 119.031 116.615 118.563 116.903C118.107 117.179 117.645 117.317 117.177 117.317ZM116.565 111.827C116.637 111.923 116.673 112.049 116.673 112.205C116.673 112.385 116.637 112.565 116.565 112.745C116.505 112.925 116.439 113.171 116.367 113.483C116.295 113.795 116.259 114.239 116.259 114.815C116.259 115.391 116.487 115.679 116.943 115.679C117.447 115.679 117.915 115.481 118.347 115.085C118.779 114.677 119.163 114.155 119.499 113.519C119.835 112.883 120.093 112.205 120.273 111.485C120.465 110.753 120.561 110.063 120.561 109.415C120.561 108.995 120.483 108.701 120.327 108.533C120.171 108.353 119.889 108.263 119.481 108.263C119.061 108.263 118.623 108.407 118.167 108.695C117.723 108.971 117.351 109.349 117.051 109.829C116.751 110.309 116.601 110.849 116.601 111.449C116.601 111.581 116.589 111.707 116.565 111.827ZM124.611 117.479C124.419 117.479 124.257 117.401 124.125 117.245C123.993 117.089 123.927 116.873 123.927 116.597C123.927 116.393 123.969 116.057 124.053 115.589C124.149 115.109 124.251 114.551 124.359 113.915C124.479 113.279 124.581 112.619 124.665 111.935C124.749 111.239 124.791 110.573 124.791 109.937C124.791 109.625 124.869 109.397 125.025 109.253C125.193 109.097 125.379 109.019 125.583 109.019C125.775 109.019 125.919 109.139 126.015 109.379C126.111 109.619 126.129 110.099 126.069 110.819C126.621 109.595 127.227 108.611 127.887 107.867C128.559 107.111 129.225 106.571 129.885 106.247C130.545 105.911 131.139 105.743 131.667 105.743C132.015 105.743 132.267 105.815 132.423 105.959C132.591 106.091 132.675 106.241 132.675 106.409C132.675 106.637 132.579 106.817 132.387 106.949C132.207 107.069 131.889 107.213 131.433 107.381C130.905 107.585 130.419 107.825 129.975 108.101C129.543 108.365 129.129 108.713 128.733 109.145C128.349 109.577 127.971 110.129 127.599 110.801C127.227 111.461 126.855 112.277 126.483 113.249C126.111 114.221 125.715 115.391 125.295 116.759C125.223 117.023 125.127 117.209 125.007 117.317C124.899 117.425 124.767 117.479 124.611 117.479ZM141.147 118.091C140.367 118.091 139.647 117.905 138.987 117.533C138.339 117.161 137.751 116.681 137.223 116.093C136.707 115.505 136.245 114.875 135.837 114.203C135.441 113.519 135.099 112.877 134.811 112.277C134.607 113.249 134.445 114.035 134.325 114.635C134.217 115.235 134.127 115.691 134.055 116.003C133.995 116.315 133.935 116.525 133.875 116.633C133.815 116.741 133.737 116.795 133.641 116.795C133.377 116.795 133.125 116.651 132.885 116.363C132.645 116.075 132.525 115.703 132.525 115.247C132.525 114.767 132.609 114.131 132.777 113.339C132.945 112.535 133.167 111.647 133.443 110.675C133.731 109.691 134.061 108.677 134.433 107.633C134.805 106.577 135.189 105.551 135.585 104.555C135.993 103.547 136.401 102.629 136.809 101.801C137.013 101.393 137.187 101.129 137.331 101.009C137.487 100.889 137.673 100.829 137.889 100.829C138.237 100.829 138.411 100.991 138.411 101.315C138.411 101.435 138.375 101.567 138.303 101.711C138.243 101.855 138.177 102.017 138.105 102.197C137.889 102.725 137.649 103.319 137.385 103.979C137.133 104.639 136.875 105.329 136.611 106.049C136.359 106.769 136.119 107.483 135.891 108.191C135.663 108.899 135.465 109.553 135.297 110.153C135.813 109.793 136.419 109.433 137.115 109.073C137.811 108.713 138.531 108.389 139.275 108.101C140.019 107.801 140.721 107.561 141.381 107.381C142.041 107.201 142.587 107.111 143.019 107.111C143.247 107.111 143.421 107.183 143.541 107.327C143.673 107.459 143.739 107.609 143.739 107.777C143.739 107.909 143.697 108.041 143.613 108.173C143.541 108.293 143.385 108.401 143.145 108.497C142.353 108.773 141.567 109.055 140.787 109.343C140.007 109.619 139.191 109.919 138.339 110.243C137.499 110.555 136.581 110.927 135.585 111.359C135.897 111.887 136.263 112.457 136.683 113.069C137.103 113.669 137.553 114.239 138.033 114.779C138.513 115.307 139.005 115.745 139.509 116.093C140.013 116.429 140.517 116.597 141.021 116.597C141.681 116.597 142.317 116.459 142.929 116.183C143.541 115.907 144.105 115.571 144.621 115.175C145.149 114.779 145.611 114.395 146.007 114.023C146.403 113.639 146.715 113.339 146.943 113.123C147.063 113.015 147.171 112.943 147.267 112.907C147.375 112.859 147.471 112.835 147.555 112.835C147.723 112.835 147.837 112.925 147.897 113.105C147.969 113.273 147.909 113.459 147.717 113.663C147.573 113.831 147.351 114.089 147.051 114.437C146.751 114.785 146.385 115.169 145.953 115.589C145.533 115.997 145.065 116.393 144.549 116.777C144.045 117.161 143.499 117.473 142.911 117.713C142.335 117.965 141.747 118.091 141.147 118.091Z" fill="black"/>
</svg>
