<svg width="295" height="168" viewBox="0 0 295 168" fill="none" xmlns="http://www.w3.org/2000/svg">
<path d="M68.3056 135.83C67.2877 133.216 63.1112 133.505 62.8732 133.204C64.2518 132.293 63.2504 131.416 62.5283 129.506C60.1466 133.619 60.9971 133.622 59.2431 129.5C59.323 129.817 59.4849 129.37 59.4248 129.058C60.3785 128.549 60.2744 128.695 60.0063 128.399C59.0256 129.796 59.8392 129.052 58.4821 126.835C58.1214 126.245 57.3223 125.832 57.2752 125.764C57.5073 123.899 56.7681 124.047 60.7808 125.492C60.669 126.793 60.9179 126.612 59.7977 126.417C59.8873 127.355 63.796 124.474 62.1489 123.786C62.3941 125.423 62.5634 124.98 61.5424 125.804C60.4195 125.529 60.8855 126.072 59.1037 122.383C59.6189 122.018 61.7243 120.74 59.1707 122.483C56.6596 122.056 57.1017 121.685 57.5507 124.434C56.647 123.708 55.3697 123.483 55.3493 121.745C55.3383 120.817 54.3288 119.952 53.9147 118.989C49.2558 108.159 59.4233 112.322 55.0495 109.117L55.1376 109.245C55.0396 108.814 54.9417 108.383 54.8433 107.95C43.1296 111.031 53.9712 107.801 50.4141 103.197C50.6476 103.519 50.3964 103.505 52.0246 101.237C54.3149 102.431 53.8726 102.575 54.1566 100.906C54.9411 100.938 55.1804 100.872 54.2383 100.984C50.8615 101.543 51.7628 101.887 48.7533 97.1143L48.6095 97.2171C50.9985 95.4231 50.3737 98.3202 51.3807 93.1992C51.3825 93.19 50.9909 93.1027 50.783 93.0518C51.0222 93.652 50.44 92.0826 51.0228 92.3332C49.2283 92.1314 49.6765 92.7848 49.0464 88.1071C45.3758 89.3492 47.3012 93.2086 46.5972 93.0887C44.1555 94.8293 44.4386 94.5836 44.002 94.2814C46.2557 90.2738 46.1721 91.1116 45.0184 89.8426C45.4262 89.1395 45.8031 88.49 46.1799 87.8404L46.0757 87.9306C49.4726 87.1527 40.35 82.8928 44.2738 82.6773C46.2233 82.5704 45.599 81.1908 45.9128 79.9148C45.3221 80.3906 44.9107 80.7221 44.4995 81.0534C44.9578 81.1313 44.9495 71.1519 45.8159 69.5916C46.8135 67.7951 44.5455 65.5861 46.4848 64.0712C47.9997 65.4473 49.4409 66.7563 50.882 68.0652C50.8724 68.4037 50.8371 68.2872 50.9826 68.4795C50.711 68.0344 50.6264 68.4791 51.7201 66.051C52.713 66.1503 49.543 66.8122 50.1632 64.4053C49.8964 64.2749 50.4237 64.4689 50.6997 64.5545C50.5592 64.2295 50.6227 64.4535 51.5106 64.5873C51.1885 64.7706 51.3544 64.738 51.5018 63.8056L51.605 63.8894C50.2555 61.9097 50.2555 61.9097 47.6917 63.0794C46.9246 60.8428 47.1699 58.8872 49.0112 57.0926C50.2572 57.143 51.5844 57.1967 53.2936 57.2658C49.661 50.1684 49.1008 51.4591 55.4517 52.2873C57.4551 53.2044 55.2514 51.8214 55.8997 51.2502C55.8629 51.3188 55.826 51.3874 55.7892 51.4559C51.5876 50.3764 54.2986 50.5955 55.2559 46.2019C55.5448 46.2511 54.9424 44.265 57.1104 44.1348C56.627 45.7816 56.6326 44.7327 58.0323 42.9741L57.9092 43.0591C59.5518 43.1608 60.5074 40.1925 62.4466 42.1138C64.4382 39.2378 64.5035 40.1292 61.6889 38.3012C61.4852 38.9639 61.354 39.391 61.2228 39.8178L61.2575 39.7819C60.7466 40.0229 60.2358 40.264 59.4572 40.6313C58.602 37.3182 60.4916 37.1518 62.7534 36.1093C62.82 36.399 62.8865 36.6889 62.9531 36.9786C61.9564 37.8828 61.8943 37.7545 63.1569 37.3532C64.2896 35.7953 63.7776 37.1755 65.2094 32.5861C65.2018 34.8134 65.0963 34.5106 65.5314 34.4978C65.4411 31.9201 64.9687 32.8122 67.8832 30.5084C69.5455 32.4887 69.1188 33.1528 69.173 27.5239C70.3328 26.173 73.2222 27.7348 73.6765 24.9021C75.3504 25.2991 76.6596 24.1358 78.1415 23.7118C77.8291 23.8494 77.9987 23.879 78.3073 22.1695C78.9266 23.0609 77.863 19.1055 81.3596 20.3726C82.6371 20.8354 83.1349 20.0534 83.414 19.1296C85.13 13.4489 90.7698 18.8613 94.1105 15.0212C93.978 13.8739 93.8101 12.7752 92.2486 13.6754L92.333 13.6697C90.8647 13.8032 90.5302 12.6924 91.4786 12.0816C97.533 8.18149 98.8908 10.0466 100.143 10.4554C99.6581 12.1553 98.5748 12.4307 98.2999 11.0777C97.9271 11.433 97.8953 11.3045 98.538 11.6312C98.3043 12.5097 97.4728 12.935 99.1053 11.8116C100.103 10.9513 99.6944 10.9902 100.913 11.8189C101.315 11.1507 101.476 11.4365 100.013 10.5479C100.11 9.76062 100.206 8.97356 100.318 8.06097C102.717 7.58633 106.563 9.55482 106.477 10.0695C106.233 4.52391 105.414 5.73347 109.592 4.3498C114.362 10.6324 110.364 5.64385 113.522 5.19701C113.343 2.15293 118.625 2.14093 117.008 5.35389C117.04 5.63196 117.058 5.63162 116.951 5.34477C117.215 4.17624 116.879 4.5895 118.382 4.32267C121.227 3.81812 120.718 3.54405 120.968 4.77607C121.503 4.39238 121.51 4.68557 121.045 3.6747C121.119 3.47101 121.104 3.27599 121.001 3.08932L120.847 3.19027C121.801 3.64734 122.823 4.52146 123.544 2.71452C122.881 6.61114 122.362 6.1176 125.422 5.34433L125.456 5.40814C126.134 5.17477 126.074 5.35978 125.605 4.55226C125.277 4.78841 125.538 4.69446 125.452 1.41757C127.572 0.802951 128.367 0.227468 127.912 1.80137C127.221 4.19203 125.758 3.93797 130.3 2.16205C127.723 -0.251728 129.001 1.24635 131.106 1.02754C139.363 0.169209 139.672 -0.659993 140.285 1.2767C133.973 4.2097 136.303 3.30824 135.424 3.00982C135.511 3.14491 135.599 3.27977 135.686 3.41486C133.871 9.28354 133.979 5.62095 141.94 3.71839C143.56 3.94253 142.523 2.54863 143.022 2.34417C142.797 2.6089 143.143 2.61701 141.063 1.89043C142.988 5.71134 142.178 2.02796 138.433 4.70436C137.292 4.41084 137.069 5.0816 140.263 1.24068C143.19 -1.21457 146.933 0.686542 146.4 0.951268C146.317 0.99274 146.141 1.34008 146.644 0.812069C146.862 0.889008 147.08 0.965833 147.298 1.04277L147.28 0.938707C147.708 2.58355 148.819 0.763147 148.727 1.30539C154.285 0.825187 153.57 0.398469 153.211 2.51005C152.872 3.4819 152.761 3.40674 153.481 2.9112C157.038 2.71052 155.95 2.6567 157.428 3.43543C158.072 3.06652 155.726 5.15443 156.547 4.54148C158.04 4.97364 157.834 4.77818 157.983 5.10573C157.734 4.86868 157.814 5.06192 158.105 4.2554L157.995 4.37715C158.781 3.98312 159.567 3.58897 160.353 3.19494C161.483 4.33379 161.207 4.27853 161.631 3.62288C161.184 3.49992 160.737 3.37706 160.291 3.2542C160.842 1.71943 161.847 1.5471 162.98 2.41966C168.286 6.50274 164.132 8.34215 170.304 3.41119C171.52 7.6139 171.9 6.69286 168.119 7.02786C168.437 9.40951 169.83 9.16868 171.329 9.45153L171.185 9.49901C173.075 9.39227 172.782 9.55916 172.794 8.95299C172.298 8.8686 171.802 8.78421 171.306 8.69983L171.413 8.79844C171.903 6.66451 171.325 7.09546 174.189 7.14471C173.804 13.4062 173.728 9.19481 177.198 7.53919C176.878 7.71408 178.983 8.51882 179.262 8.58186C181.063 8.98801 181.541 10.2563 181.46 12.3904C182.243 11.4363 182.783 10.7784 183.441 9.9762C186.575 13.2157 186.547 11.875 182.949 16.0238C184.455 15.7522 185.674 15.5894 187.807 15.3566C187.487 14.5184 187.84 19.0187 190.092 18.2341C191.593 17.7108 191.977 20.3308 193.288 18.9548C194.743 22.281 193.03 22.2525 196.445 20.6669C197.552 22.0253 199.364 23.2335 199.484 24.6241C199.728 27.4444 204.809 26.779 200.965 29.1643C200.644 28.7593 200.323 28.3543 200.011 27.9614C197.642 29.1401 200.911 30.4655 199.521 30.5892C199.722 31.0234 199.617 31.0285 199.993 30.4744C200.421 30.8133 200.85 31.1522 201.278 31.4911C200.924 30.952 200.647 33.9328 199.914 34.2932C200.347 33.7441 204.828 35.2349 203.342 34.8167C203.66 34.0365 202.837 33.6826 207.397 36.7473C208.082 38.5709 205.277 38.7499 206.159 40.4361C204.638 40.415 204.86 40.296 205.03 40.8903C207.691 39.3936 211.031 41.0499 211.382 44.9337C211.495 46.1805 210.945 47.4457 212.757 48.0422C213.26 48.2082 213.217 50.1028 213.425 51.2043C213.099 50.7795 214.31 52.2977 214.324 52.8442C214.391 55.6747 213.507 55.8889 211.867 57.1967C209.707 55.9376 210.041 57.5655 213.463 58.1939C215.876 58.6367 215.385 58.5134 215.683 55.5812C217.033 57.2411 216.634 58.6372 216.621 59.9468L216.723 59.8483C216.505 63.2055 220.438 61.7618 218.16 65.1225L217.946 65.2361L218.104 65.0935C222.189 70.135 221.98 68.9772 219.687 70.5204C217.798 66.1279 218.832 66.4978 215.339 68.2558L215.425 68.359C214.804 66.4514 213.654 67.5725 212.648 67.8726C211.117 65.8605 213.946 65.2707 212.516 64.7571C212.206 67.2828 210.529 66.3644 214.603 68.9798L214.515 68.8497C214.731 69.1685 214.946 69.4873 215.162 69.8061L215.117 69.7736C214.866 70.1695 214.616 70.5654 214.36 70.9715C216.284 71.9447 216.727 71.6401 217.936 68.346C218.479 71.4223 218.492 70.8861 218.087 71.5084C218.225 71.3909 218.364 71.2735 218.502 71.1561C219.8 73.1885 219.678 73.9389 217.876 75.0166C212.872 78.0094 217.09 77.0566 215.86 81.4752C215.557 81.4236 216.819 82.5904 217.985 82.829C218.295 81.8678 220.019 81.6887 219.45 80.1128C216.586 81.2691 219.437 83.1327 216.932 82.6988C217.563 80.5604 218.801 79.1069 221.118 78.9383C221.578 80.3557 222.098 81.9565 222.619 83.5574L222.655 83.5291C221.841 85.188 220.691 83.5159 219.619 83.8941C218.275 87.7817 217.73 87.2464 220.05 86.7939C219.613 86.1826 220.47 87.8058 219.07 88.4833C219.458 88.9514 219.314 89.016 219.691 88.074C220.226 87.9303 220.762 87.7863 221.297 87.6425L221.189 87.7324C223.916 90.632 223.944 89.6418 220.435 91.9828C220.853 92.0539 218.946 90.6095 217.714 91.4639C217.115 90.288 217.579 90.1756 215.561 92.273C215.997 92.858 215.561 92.8527 217.641 92.1623C218.523 92.577 219.405 92.9917 220.287 93.4064L220.21 93.3008C221.24 95.0257 220.728 95.0281 222.498 92.9205C222.778 92.9682 223.503 99.7539 219.383 102.105C219.891 102.495 220.305 102.812 220.719 103.13C220.02 107.237 221.355 111.873 218.314 114.073C215.978 114.135 216.021 111.545 214.665 110.499C213.46 109.57 215.364 106.46 212.289 111.981C215.097 112.667 214.43 111.99 215.085 115.233C215.376 115.219 215.325 115.087 212.777 116.364C212.714 115.862 212.777 114.995 212.567 114.919C211.614 114.575 211.519 115.352 211.492 116.088C211.199 116.066 210.906 116.043 210.613 116.021C210.296 115.517 209.983 115.849 211.448 116.014C215.278 116.64 213.247 118.348 216.315 116.849C216.162 117.744 219.035 116.288 214.989 120.783C211.978 124.126 214.646 124.273 213.239 126.598C213.205 126.305 213.195 126.312 213.282 126.643C213.506 128.156 211.24 128.734 211.854 130.542C211.912 130.713 210.098 131.594 209.136 132.156C209.459 132.886 209.294 134.209 208.44 137.001C207.119 137.121 207.516 134.709 205.73 135.086C204.994 135.241 203.96 133.763 202.908 132.902C201.549 134.751 199.166 136.208 197.711 134.299C198.743 131.058 197.992 132.285 197.531 131.163C197.8 131.384 197.715 133.307 195.794 134.061C195.486 134.182 195.417 134.983 195.055 135.972C198.368 133.877 197.655 134.006 198.434 135.095C197.01 137.356 197.306 136.72 197.019 137.981C196.547 139.357 196.401 139.118 197.5 139.149C196.869 137.83 196.943 138.318 197.196 136.854C199.912 137.059 199.981 136.223 200.608 137.813C200.842 137.552 200.76 137.7 198.525 138.458C199.929 138.993 201.871 138.981 200.447 141.173C197.36 139.963 198.306 139.485 196.418 143.855C198.593 145.714 198.151 143.103 199.198 142.252C199.431 142.939 199.832 143.969 199.781 143.994C198.278 144.743 200.826 145.202 199.272 146.233C197.387 146.971 197.871 147.2 197.07 145.475C196.482 145.975 196.401 145.687 197.809 146.764C195.472 150.534 196.164 150.398 194.717 147.971C191.846 149.855 192.057 150.299 191.321 147.947C192.204 142.759 192.641 143.749 189.802 143.132C190.768 142.879 191.327 142.732 192.26 142.488C189.972 141.071 187.99 141.896 186.056 142.216C185.88 142.246 185.812 143.059 185.662 143.63C188.541 143.676 188.102 143.142 187.889 145.699C186.228 145.332 184.668 145.029 183.72 146.941C183.579 147.226 182.652 147.098 182.088 147.16C182.703 146.726 183.318 146.291 184.004 145.806C182.439 143.56 181.003 145.796 179.526 145.928C186.92 149.101 185.933 149.123 185.854 150.525C185.572 150.477 182.156 148.484 179.243 148.705C179.209 148.425 179.194 148.427 179.298 148.733C181.181 152.422 180.393 152.165 182.592 150.219C182.659 152.353 182.85 153.126 182.04 153.126C180.195 153.123 180.195 153.117 177.858 151.256C177.911 149.772 177.968 148.187 178.036 146.274C176.47 147.713 177.019 146.287 175.707 151.163C175.994 151.174 175.806 151.166 175.541 151.03C174.833 151.039 175.605 149.95 175.131 149.326C174.203 148.104 173.104 147.021 171.747 145.53C169.547 147.047 169.254 145.978 175.334 150.978C173.925 153.119 173.622 154.327 169.633 152.295C169.347 153.424 169.065 154.533 168.784 155.642C167.491 155.147 166.549 155.541 165.976 156.873C163.747 155.264 164.074 155.051 164.887 157.433C166.159 156.543 165.532 156.401 167.73 158.365C167.43 161.251 166.185 160.274 168.471 158.66C168.857 158.029 168.822 158.029 168.532 158.744C167.303 158.371 167.353 158.949 168.902 155.839C169.575 155.996 170.248 156.152 171.203 156.374C170.969 157.184 172.492 162.159 169.728 160.031C170.402 160.381 170.231 160.046 170.426 161.575C170.896 160.1 170.588 160.11 171.811 161.816C169.702 163.421 170.82 162.979 167.581 163.487C167.823 163.771 167.019 163.057 166.857 162.103C166.45 162.466 166.424 162.329 167.075 162.697C162.885 164.691 163.633 164.925 164.017 161.878C162.033 163.819 162.96 163.508 159.854 162.979C160.048 163.316 159.906 162.929 159.88 162.179C161.556 161.366 161.543 161.649 160.225 160.945C160.158 160.685 160.206 160.701 160.006 160.577C160.41 160.948 160.381 160.655 159.961 162.288C154.378 161.189 157.405 163.917 151.4 162.993C151.925 163.479 149.338 162.16 149.045 162.012C148.049 163.578 148.834 163.489 145.404 162.152C144.864 161.54 145.705 160.421 143.296 157.067C141.797 162.98 148.495 162.841 139.978 162.248C139.55 161.537 141.164 159.675 139.149 159.503C138.581 159.455 137.919 160.429 137.323 160.916C136.708 160.749 135.845 160.516 134.982 160.282C134.739 158.77 134.06 159.321 133.366 160.242C133.927 160.235 134.489 160.227 135.05 160.219C133.961 162.789 135.046 162.592 129.681 160.026C129.3 160.429 129.131 159.98 131.106 162.597C131.422 162.433 131.046 162.761 129.69 165.035C124.495 155.362 126.68 158.776 124.439 159.873C123.653 159.713 123.809 160.22 123.784 158.902C123.303 159.196 123.317 158.996 123.874 159.8C123.146 161.157 122.419 162.513 121.692 163.87L121.808 163.817C120.61 164.711 120.891 164.708 120.941 164.416C114.814 162.832 116.782 162.759 116.577 165.528C116.375 168.264 116.129 167.392 112.125 163.144C114.028 160.802 112.702 160.78 116.964 162.079C117.064 159.551 116.03 158.994 112.755 159.711C112.551 160.908 112.352 162.079 112.153 163.25C110.027 161.321 108.742 164.627 108.299 164.552C107.325 163.132 107.747 163.754 107.741 163.745C108.003 162.082 107.026 160.058 109.194 158.921C109.464 158.78 109.346 157.819 109.407 157.238C112.574 157.777 112.31 158.189 109.782 155.575C109.4 157.815 110.091 157.77 106.854 155.535C108.806 154.521 108.555 154.774 108.515 154.201C104.525 154.528 102.908 154.736 107.015 155.436C104.778 163.243 106.663 160.358 106.274 163.496L106.375 163.413C103.485 163.173 105.761 162.82 103.047 161.253C103.36 161.62 101.843 160.685 101.41 160.983C95.0011 165.398 98.4208 166.216 90.8176 161.196C86.9748 162.09 87.4749 162.661 88.8816 159.003C88.5793 159.085 90.5829 160.822 92.9044 157.198C92.487 157.639 93.09 157.746 88.6055 155.794C88.488 156.484 88.3447 157.326 88.2014 158.168L88.2566 158.071C83.9546 158.875 85.1072 159.297 82.9914 156.594C83.2111 156.932 83.0274 156.787 83.7568 154.948C79.7607 154.61 80.4023 155.268 81.4889 151.736C83.4586 152.424 83.1206 152.475 83.1631 151.673C81.1563 151.898 81.8448 151.757 80.0792 152.334C77.6548 148.534 78.3802 148.637 77.2805 151.939C77.9137 152.047 73.9392 150.123 72.5436 148.29C71.675 146.228 69.7959 148.043 68.6014 147.231C68.1605 144.553 68.1605 144.553 70.3993 143.431L70.3243 143.293C69.9451 144.75 70.826 144.518 71.6537 144.358L71.5916 144.301C72.997 148.691 75.6536 147.634 75.8563 147.969C79.4717 148.993 76.5635 145.927 77.0129 146.003C81.7141 141.546 79.782 143.15 81.9084 143.367C81.3883 143.132 81.5504 143.399 81.1363 141.745C80.1299 143.374 81.0686 143.888 76.5881 137.942C75.9199 137.955 77.0408 140.573 75.2438 139.765L75.2629 139.845C73.4483 139.547 74.3994 139.161 72.5069 140.981C72.3587 136.442 68.0416 135.426 68.3056 135.83ZM94.4129 158.536L94.3971 158.381C94.665 158.516 95.4807 159.081 94.4129 158.536ZM117.271 157.238C117.419 156.284 117.526 156.633 116.703 155.718C116.735 154.971 116.851 155.029 116.129 155.588C113.537 156.91 114.019 156.744 113.336 156.706C113.506 157.23 113.4 157.221 113.82 156.637C115.417 156.905 115.11 156.711 115.313 157.438C115.625 157.085 115.669 157.204 115.035 156.943C116.089 155.583 116.091 154.987 117.511 156.398C117.318 157.418 116.413 158.061 117.271 157.238ZM128.334 158.278C128.188 157.64 128.909 157.614 128.443 157.424C129.117 157.409 127.743 158.519 128.334 158.278ZM104.235 152.971C104.239 153.451 104.03 153.372 105.39 153.112C105.645 151.978 105.747 152.29 105.045 151.688C105.505 153.552 105.941 153.311 104.235 152.971ZM85.1266 143.603L85.1223 143.656C84.8175 143.751 84.8392 143.759 85.1266 143.603ZM141.413 151.751C142 152.334 142.001 152.284 141.315 151.825C141.299 151.52 140.83 151.1 141.413 151.751ZM74.1572 133.641C74.1931 133.993 74.146 133.876 74.2983 134.061C74.0308 133.719 73.8267 133.372 74.1572 133.641ZM76.0984 130.372C76.5077 130.274 76.2473 130.511 74.7088 130.208C73.7565 131.788 73.7894 131.467 74.3904 131.733C74.724 129.773 74.3133 130.035 76.0984 130.372ZM186.26 135.95C188.138 135.691 186.57 134.649 186.696 133.992C186.93 132.722 187.029 133.133 186.147 132.236C186.285 131.21 186.185 131.391 186.486 131.327C185.34 132.545 184.539 131.587 184.407 133.422C185.727 132.816 185.406 133.122 185.329 131.947C186.446 132.204 186.096 132.003 186.932 132.917C186.478 135.679 185.033 133.148 186.306 136.026C185.26 136.639 184.786 136.875 186.26 135.95ZM52.4286 104.323C52.8618 104.847 52.8957 104.82 52.3233 104.399L52.4286 104.323ZM201.308 121.524C203.14 120.418 202.526 120.813 202.282 121.073C201.159 121.809 201.606 121.035 200.716 124.352C201.719 123.809 202.308 123.213 201.121 122.512C201.184 122.183 201.246 121.854 201.308 121.524ZM200.62 117.765L200.836 117.698C200.62 117.971 200.39 118.137 200.62 117.765ZM55.0068 76.8521C54.9988 77.389 55.5232 77.6724 54.7374 76.7456C54.8273 76.7811 54.9171 76.8167 55.0068 76.8521ZM211.635 102.886C211.678 102.001 211.877 102.307 210.663 101.479C210.944 102.973 210.707 102.682 211.635 102.886ZM51.4424 72.7222C51.5967 73.4128 51.4357 73.3429 52.2011 72.9115C53.4932 72.1786 53.4932 72.1786 53.4132 70.7143C51.538 73.2018 51.2089 72.9854 51.4424 72.7222ZM220.319 97.9118C220.867 97.9409 219.361 97.9377 219.21 97.6113L219.073 97.7444C217.628 97.508 217.908 97.709 217.723 96.9193C218.059 97.7457 217.587 97.4749 220.319 97.9118ZM207.244 95.3734C208.266 94.6924 207.895 94.794 208.988 94.938C208.675 95.6516 208.393 96.3508 209.869 96.5831C208.751 94.7289 208.951 94.4518 207.206 95.4398C206.953 95.4695 206.957 95.4872 207.244 95.3734ZM206.369 71.8698C206.484 72.1978 207.003 72.4642 205.86 71.5892C206.03 71.6827 206.199 71.7762 206.369 71.8698ZM204.737 64.3439C205.33 64.6183 205.314 64.5723 204.63 64.4313C204.858 63.2025 205.047 62.7766 204.737 64.3439ZM180.15 53.743C179.71 53.5323 179.776 53.7064 179.733 53.3973C180.083 53.5895 179.785 53.6973 180.15 53.743ZM205.593 46.8354C205.391 46.6573 205.926 45.9753 205.509 47.5249C205.55 47.8066 205.586 47.7589 205.322 47.712C206.659 46.4442 207.49 47.4626 205.593 46.8354ZM191.221 36.3842C191.732 36.2827 191.221 36.8441 191.176 36.1844L191.221 36.3842ZM91.5332 18.4775C92.3227 18.1676 91.3998 18.5803 91.3524 18.8818C91.4127 18.747 91.4729 18.6122 91.5332 18.4775ZM184.538 28.2075C184.092 27.7242 184.16 28.0235 184.321 26.8215C186.232 26.0181 185.593 25.8854 186.226 25.7597C185.633 26.5336 184.77 26.7726 184.303 26.9507C184.694 27.5308 183.941 27.8119 184.538 28.2075ZM167.064 21.9043C169.244 20.2915 167.612 21.7914 166.924 22.0348L167.064 21.9043ZM150.736 13.9551C151.069 14.0025 151.058 13.9599 150.828 14.091C150.271 14.6462 150.304 14.6889 150.736 13.9551ZM131.689 6.30317C131.954 6.41891 131.947 6.39878 131.658 6.34653C131.355 6.3801 131.37 6.38978 131.689 6.30317ZM173.459 12.6406C173.753 12.6882 174.185 12.343 173.4 12.8117L173.459 12.6406ZM150.613 6.6803C150.506 5.99964 150.625 6.05367 150.133 6.35175C151.273 7.17239 150.57 6.63927 150.613 6.6803ZM190.814 105.125C191.066 105.467 191.102 105.439 190.704 105.206C190.734 104.873 190.448 104.453 190.814 105.125ZM212.346 106.028C215.119 106.538 212.512 106.785 215.822 107.349C215.183 106.32 214.814 105.728 214.334 104.956C213.158 106.546 213.646 106.328 212.225 106.099C212.146 105.137 212.106 105.161 212.346 106.028ZM58.1432 54.0693C56.7145 53.9663 56.9393 53.8458 57.004 54.5134C58.6834 53.6757 58.7291 53.2173 58.1432 54.0693ZM215.66 63.0672C215.488 63.1922 215.485 62.4015 215.526 62.8786C215.335 62.6092 215.497 62.8382 215.66 63.0672ZM148.34 11.4956C148.254 10.7458 148.355 10.8111 147.932 11.1167C148.43 11.4045 149.219 12.7268 148.34 11.4956ZM148.163 8.59465C147.877 8.57485 147.426 8.89262 148.11 8.50726C148.431 8.32625 148.349 8.32347 148.163 8.59465ZM141.524 6.56989C141.223 6.62148 141.035 6.08458 142.31 7.38019C142.606 6.99939 142.73 7.18607 141.524 6.56989ZM152.499 7.8008C152.356 7.07945 152.459 7.13926 152.076 7.43901C152.731 7.79569 152.597 7.5403 152.616 8.64134C153.101 8.38629 153.101 8.56696 152.499 7.8008ZM118.433 162.478C118.476 162.804 118.488 162.794 118.396 162.509C118.192 161.931 118.181 161.945 118.433 162.478ZM84.7477 153.355C84.9916 152.342 84.4917 154.493 85.3859 154.184C85.1731 153.907 84.9605 153.631 84.7477 153.355ZM65.7585 130.222C64.3848 130.164 64.583 130.058 64.6464 130.534C66.195 129.911 66.0855 129.429 65.7585 130.222ZM66.9664 126.021L67.0673 125.951C67.0727 126.305 67.2678 126.534 66.9664 126.021ZM207.78 121.405C206.151 121.767 207.224 122.254 208.31 123.813C208.719 123.245 208.878 123.469 207.433 122.827C207.799 120.796 207.604 121.439 208.028 121.206C208.124 121.153 208.33 120.779 207.78 121.405ZM174.998 140.617C176.287 140.179 176.134 140.33 175.91 139.983C174.8 140.848 174.599 140.784 174.998 140.617ZM187.085 139.13C187.047 138.434 187.137 138.507 186.734 138.726C187.303 139.145 187.207 138.736 187.075 140.665C189.06 139.068 189.058 139.466 187.085 139.13ZM181.004 138.032C180.667 136.545 182.333 140.163 179.14 143.29C179.556 142.683 179.107 142.76 181.806 143.219C182.387 139.808 182.438 140.792 181.215 139.695C181.52 139.084 182.531 138.366 181.004 138.032ZM139.054 9.23673C138.214 9.0774 139.584 7.48226 137.926 8.42465C138.184 8.61043 139.313 9.42129 139.054 9.23673ZM55.0228 59.9722C56.0964 60.0571 56.3572 60.0793 56.1065 59.2139C54.8283 59.8328 55.2489 60.3114 55.0228 59.9722ZM209.472 128.775C209.71 130 209.524 129.863 210.234 129.529C208.997 128.565 208.961 128.77 209.472 128.775ZM86.2468 20.6772L86.3328 20.7713C85.8197 20.6675 86.3583 19.242 85.6154 19.3528C85.8258 19.7943 86.0363 20.2358 86.2468 20.6772ZM212.759 79.6352L212.658 79.4936C213.368 79.8064 212.795 80.6868 213.626 79.8411C213.336 79.7725 213.047 79.7038 212.759 79.6352ZM207.381 105.587C208.343 106.473 206.997 106.329 208.635 107.211C208.83 105.637 208.859 106.864 207.381 105.587ZM187.531 21.1355C186.158 21.2966 186.358 21.1825 186.438 21.5619C188.337 20.5634 188.276 20.4529 187.531 21.1355ZM184.64 20.7559C184.845 19.2873 184.332 19.8938 187.669 17.8379C183.144 16.7999 186.389 18.036 184.174 21.5599C184.883 21.7328 184.762 21.8943 184.64 20.7559ZM202.544 101.502C203.277 101.961 203.235 101.537 201.811 100.303C201.491 100.942 201.276 100.698 202.544 101.502ZM167.305 24.7669C167.226 26.2862 167.11 26.056 167.738 25.9242C166.421 23.3879 164.106 24.2222 167.305 24.7669ZM197.461 25.5783L197.323 25.516C198.203 25.6395 196.383 26.1076 197.77 27.1482C198.025 27.34 198.706 27.0235 197.461 25.5783ZM171.737 144.112C171.625 142.689 171.503 142.922 172.188 142.944C171.003 140.598 168.765 140.6 169.751 142.763C169.505 142.513 169.288 142.67 171.959 142.231C171.327 144.238 170.812 143.809 171.737 144.112ZM173.83 143.364C173.677 143.082 173.736 143.069 173.466 143.083C174.069 143.321 174.078 143.069 173.291 144.27C173.949 144.467 173.811 144.643 173.83 143.364ZM175.3 146.506L175.374 146.671C174.864 146.292 175.667 144.966 174.257 145.982C174.605 146.157 174.952 146.331 175.3 146.506ZM157.795 150.225C156.836 151.164 156.873 150.938 157.314 151.266C157.857 149.66 157.589 150.195 158.03 150.138C158.13 150.125 158.458 149.837 157.795 150.225ZM162.915 15.282C163.38 16.1057 163.924 16.9676 164.469 15.5994C166.483 15.9309 166.122 15.4655 165.806 17.8114C168.007 17.3118 166.516 17.692 167.319 17.9171C165.218 15.7018 167.882 16.5367 162.915 15.282ZM174.222 28.8687C173.456 26.733 172.815 27.1713 172.164 28.6762C171.645 28.7489 171.93 28.6823 174.222 28.8687ZM180.826 24.2844C179.981 26.7178 176.048 21.4199 178.907 28.0374C180.368 27.0822 180.093 28.0224 180.528 24.917C182.51 26.2672 182.075 26.2137 182.579 25.3793C180.292 23.9795 180.691 23.9601 180.826 24.2844ZM63.9051 126.705C64.9694 126.576 64.9694 126.576 64.4899 124.93C63.9077 127.089 64.0283 126.86 63.9051 126.705ZM166.754 149.298C167.613 147.209 167.439 147.795 167.588 146.636C169.857 145.96 168.423 144.991 168.684 144.588C168.645 145.093 166.322 144.432 167.663 146.576C167.336 148.941 165.676 148.458 166.754 149.298ZM160.51 147.079C159.785 146.956 159.06 146.833 157.774 146.614C160.147 148.7 160.858 146.073 160.51 147.079ZM164.273 149.879L164.158 149.704C164.52 150.001 164 151.635 165.804 150.781C165.294 150.48 164.784 150.18 164.273 149.879ZM218.779 102.025C218.292 100.618 217.876 100.081 216.958 100.816C216.646 100.961 216.425 100.394 218.779 102.025ZM215.849 94.8295C215.615 94.5116 216.281 94.6292 214.085 95.7577C215.913 96.069 215.913 96.069 215.849 94.8295ZM159.334 153.249C160.534 153.225 161.189 152.751 160.773 150.998C160.216 151.986 159.823 152.682 159.431 153.378C158.82 153.515 158.672 153.758 159.254 154.167C160.052 156.451 159.765 156.185 160.502 155.602C158.882 153.973 159.099 154.496 159.334 153.249ZM215.157 89.5415C214.593 87.0689 214.501 88.6201 217.42 86.467C218.324 85.7996 218.37 84.9883 217.204 83.8454C216.151 85.9582 209.321 90.3384 213.974 88.6625C213.745 90.1037 214.829 89.2927 215.157 89.5415ZM94.6085 149.013C94.9126 147.227 95.0176 147.514 94.2569 147.587C94.9144 149.497 95.0206 149.21 94.6085 149.013ZM177.879 31.2119C176.455 28.8199 176.519 30.7155 175.848 30.8033C176.567 30.5399 179.619 31.9648 177.879 31.2119ZM99.589 17.014C101.872 16.6706 101.598 16.939 101.267 16.0563C99.2393 17.3624 99.1088 17.462 99.589 17.014ZM70.1826 132.39C69.9281 131.998 70.1688 132.047 70.6358 134.047C71.5114 132.813 72.5018 131.708 70.1826 132.39ZM76.7524 136.979C78.3259 136.441 80.6346 135.866 79.6979 135.126C78.9091 137.533 78.5292 133.515 76.7524 136.979ZM144.992 3.04128C145.823 4.49144 146.13 5.30219 146.83 3.90784C148.818 2.86195 148.665 3.19672 148.06 2.49693C146.595 4.40861 147.285 4.21271 144.992 3.04128ZM72.0635 30.0167C71.8116 29.0376 71.4852 28.4093 72.7991 31.4686C74.6923 29.7987 74.778 30.2679 72.0635 30.0167ZM171.647 17.8216C171.431 18.3654 171.232 18.23 172.687 18.3652C171.799 21.4581 171.391 21.1785 174.45 18.7821C174.69 19.0693 172.755 18.5656 171.647 17.8216ZM48.6527 82.7136C46.5477 81.9979 46.8733 83.4051 46.6573 84.2379C46.4317 84.4679 46.0023 84.6127 48.6527 82.7136ZM113.343 14.1516C115.365 14.4225 115.029 14.8177 114.867 12.6587C111.964 15.91 112.704 15.3118 113.343 14.1516ZM54.3791 96.3518C53.2069 95.0425 52.6983 95.2348 52.3325 96.2728C51.3373 97.9579 51.3259 97.6046 52.2011 97.9339C52.2598 95.7173 51.8214 96.1379 54.3791 96.3518ZM187.203 126.531C187.736 127.086 187.77 127.058 187.094 126.612C187.151 125.932 187.209 125.252 187.266 124.573C186.322 125.355 185.755 126.117 187.203 126.531ZM201.869 36.9369C201.433 36.5283 200.998 36.1195 200.265 35.4315C200.194 39.1105 201.9 36.4521 201.869 36.9369ZM51.1034 79.363C48.3635 79.9305 48.4608 79.4049 51.3104 81.2658C51.173 80.3543 51.0885 79.7933 51.0039 79.2324C52.0526 78.659 52.0526 78.659 51.2995 76.4903C51.1967 77.9968 51.1501 78.6799 51.1034 79.363ZM174.568 14.9553C174.644 15.7121 174.663 15.7314 174.534 15.041C174.992 14.7516 175.45 14.4623 175.911 14.1759C174.59 13.8982 174.59 13.8982 174.568 14.9553ZM209.368 43.003C209.063 44.3575 208.882 45.1633 208.701 45.9692C207.22 46.4031 211.179 46.1547 209.368 43.003ZM81.4491 28.7339C80.9009 31.9555 80.5138 31.5869 82.8373 30.767C80.9657 28.2857 80.8559 27.585 81.4491 28.7339ZM96.026 15.9762C97.8039 16.5014 97.8039 16.5014 98.4074 14.6288C99.0466 14.4364 98.9178 14.4893 98.9681 14.7269C98.3734 14.5987 98.8761 14.4194 96.026 15.9762ZM55.9631 66.8509C54.3049 65.5815 54.6659 65.5786 54.2362 66.3696C54.8077 66.5337 55.3792 66.6978 55.9505 66.8619C55.668 68.5625 55.7633 68.6177 58.0547 67.9383C57.8119 67.6581 57.3511 66.8062 55.9631 66.8509ZM91.8249 151.918C90.0211 152.595 91.1635 150.602 88.7589 153.687C89.7386 152.058 92.297 153.78 91.8249 151.918ZM162.015 6.43548C160.995 8.27388 160.995 8.27388 163.16 8.92475C162.668 7.91276 161.58 5.52389 162.015 6.43548ZM181.356 16.8464C180.383 16.8898 178.746 14.3717 178.487 17.409C175.07 16.1565 175.361 15.6589 177.012 18.6814C178.758 16.9304 177.825 17.3694 181.356 16.8464ZM111.225 153.793C111.629 154.962 111.971 155.863 113.093 155.004C113.272 154.866 112.92 153.971 112.813 153.426C114.595 153.318 115.292 153.233 111.225 153.793ZM111.572 12.5111C111.617 12.8366 111.63 12.8233 111.521 12.4961C113.025 11.5755 112.603 10.6029 111.599 9.58295C111.571 10.5804 109.752 11.532 111.572 12.5111ZM145.408 153.863C144.629 154.654 143.952 155.437 145.677 156.177C145.672 155.3 146.945 154.385 145.264 153.947C146.191 152.478 145.953 152.721 146.272 152.549C146.077 152.817 146.333 153.038 144.818 150.789C146.67 151.483 146.689 149.798 147.592 148.801C145.83 148.741 144.773 149.098 144.926 150.885C143.627 152.075 143.65 152.214 145.408 153.863ZM195.878 128.859C196.554 129.582 196.48 129.644 196.104 128.68C195.984 128.217 195.987 127.454 195.723 127.34C194.131 126.652 193.662 127.997 193.099 129.111C191.842 128.801 190.834 127.255 189.45 128.033C192.796 133.129 192.69 132.808 192.26 132.768C192.56 132.433 192.148 132.723 195.201 130.853C191.45 129.949 191.82 130.372 193.06 129.046C194 128.983 194.939 128.921 195.878 128.859ZM191.058 29.0507C191.417 27.1507 190.739 27.7102 194.35 26.6003C196.989 27.2025 195.277 22.7335 194.425 26.7027C193.152 25.8526 191.848 25.1481 190.09 25.4763C190.651 26.3852 191.034 27.0044 191.417 27.6234C188.913 27.4786 190.297 26.8525 189.403 30.5642C189.896 30.5935 190.412 30.7316 190.877 30.6238C192.138 30.3313 191.581 29.9038 192.612 30.298C192.249 29.8341 192.524 30.0775 191.058 29.0507ZM105.018 14.2348C105.92 14.9783 106.785 15.8382 108.459 15.3459C107.298 14.4592 106.387 13.7642 105.276 12.9159C104.991 14.5927 104.656 14.5963 105.018 14.2348ZM210.994 110.139C210.255 108.509 208.96 109.903 206.584 111.435C207.042 112.356 206.321 112.443 210.925 110.039C211.433 110.035 211.751 109.867 210.994 110.139ZM162.236 153.063C165.13 155.319 164.321 155.463 165.876 152.907C163.047 151.223 161.021 154.336 162.236 153.063ZM213.375 93.0916C209.272 93.8199 209.611 93.0117 211.285 96.3488C213.599 92.4566 213.1 93.2019 213.989 92.1452C213.463 91.8588 213.616 91.6763 213.375 93.0916ZM89.8137 148.845C90.089 151.981 89.4869 151.619 92.7576 149.917C91.052 149.289 92.1514 147.731 89.5546 148.968C89.4604 149.013 89.2713 149.336 89.8137 148.845ZM48.7131 75.1065C45.1933 77.1182 45.6289 76.5668 45.9775 77.5832C46.655 77.4357 47.3323 77.2883 48.0097 77.1409C47.4223 77.6097 49.4819 75.8711 48.7131 75.1065ZM190.768 121.224C192.163 120.342 192.116 122.06 192.815 122.433C193.616 123.424 192.202 125.396 194.395 125.918C196.673 123.205 196.903 124.018 192.707 122.497C193.287 121.768 193.868 121.039 194.448 120.309C192.561 121.601 192.005 119.363 190.813 118.514C190.854 121.75 191.056 121.132 190.077 122.033C190.558 122.456 190.396 122.603 190.768 121.224ZM137.269 154.917C137.31 154.386 137.348 153.407 136.751 153.549C136.8 153.764 137.74 156.123 138.453 158.61C140.173 156.915 139.796 155.766 137.269 154.917ZM119.832 159.041C119.897 159.692 119.964 159.368 119.927 159.304C119.729 158.961 119.172 159.496 122.358 157.261C118.292 157.427 118.258 157.453 118.424 160.019C118.965 159.643 119.398 159.342 119.832 159.041ZM176.453 10.8934C178.727 14.1712 177.967 13.4385 179.377 13.3685C179.286 13.0415 179.195 12.7145 179.103 12.3874L178.998 12.4615C179.764 11.8261 181.337 11.5135 179.954 10.0334C175.51 11.2908 176.305 11.5861 176.453 10.8934ZM56.1662 57.166C53.7341 56.942 52.2876 58.9898 50.1856 59.508C51.7715 61.3403 51.7107 60.9983 50.8787 61.2108C51.6275 60.883 50.8276 61.4582 56.1662 57.166ZM194.739 139.604C196.44 139.041 195.449 138.719 193.781 136.983C192.261 138.822 191.164 139.229 192.501 141.179C192.621 141.354 193.443 141.003 193.945 140.893C193.633 141.146 193.894 140.896 194.739 139.604ZM204.641 119.211C204.572 119.855 204.502 120.499 204.432 121.149C205.939 121.302 206.646 120.968 205.909 119.475C207.026 119.029 208.142 118.582 209.28 118.127C209.106 117.556 209.099 117.094 208.884 116.936C208.074 116.34 206.879 117.219 206.737 117.027C205.295 115.078 203.997 117.267 202.642 117.195C202.663 118.504 202.266 118.175 204.641 119.211ZM87.7604 148.293C84.4338 148.838 85.0239 149.283 85.5929 145.94C84.8613 145.71 84.2356 145.513 83.3507 145.235C83.8352 147.364 82.0819 148.521 81.3117 150.16C85.8274 151.283 87.0482 150.902 87.7604 148.293ZM99.7557 160.213C100.116 159.603 100.833 159.25 99.8432 158.275C98.4154 156.868 97.2689 155.355 94.9915 156.48C96.5759 157.721 98.0972 158.913 99.7557 160.213ZM209.364 83.7265C210.143 85.6501 210.143 85.6501 212.834 86.419C212.686 83.6323 212.657 83.6096 209.364 83.7265ZM118.602 6.53476C117.573 8.50959 119.933 8.67125 119.995 9.89193C123.49 8.58742 123.666 9.35225 118.602 6.53476ZM47.7432 85.1031C47.756 85.3116 47.7688 85.5202 47.7816 85.7285C51.9425 85.7386 51.0804 86.2721 51.2057 82.7219C51.2091 82.6247 50.9143 82.5205 50.5508 82.2859C50.4801 84.8407 51.0449 84.1572 47.7432 85.1031ZM153.019 154.433C152.327 158.495 151.931 157.932 154.549 156.604C153.981 155.798 153.554 155.192 153.019 154.433ZM91.1626 19.9858C90.1188 20.9331 89.3473 21.6332 88.5759 22.3333C89.7024 22.0377 91.3928 22.472 91.1626 19.9858ZM120.103 153.353C119.528 155.998 119.17 155.398 122.019 155.729C121.342 154.889 120.826 154.249 120.103 153.353ZM209.015 63.3384C210.07 63.9708 210.776 64.3934 211.936 65.0884C211.347 63.4935 211.034 62.4603 209.015 63.3384ZM105.855 12.004C104.042 11.3297 104.042 11.3297 103.314 12.7951C104.315 12.4833 105.085 12.2437 105.855 12.004ZM210.259 122.169C210.825 123.259 210.372 123.262 212.383 121.933C211.877 121.092 212.325 121.084 210.259 122.169ZM54.4598 118.227C56.0619 116.464 56.1462 117.201 53.8686 115.14C54.1426 116.57 54.259 117.178 54.4598 118.227ZM199.325 115.14C200.098 115.573 199.811 115.777 200.581 114.02C200.017 113.739 200.295 113.527 199.325 115.14ZM205.242 109.969C206.135 109.901 205.956 110.323 205.665 107.669C205 107.729 205.131 107.279 205.242 109.969ZM202.589 130.221C201.033 129.89 200.455 130.173 200.555 131.908C201.299 131.291 201.785 130.888 202.589 130.221ZM130.902 154.959C130.261 154.987 130.438 154.696 130.333 156.552C130.725 156.576 130.585 156.822 130.902 154.959ZM198.258 125.357C199.155 125.41 198.974 125.779 198.955 123.511C198.262 123.488 198.444 123.125 198.258 125.357ZM193.552 117.284C193.097 117.038 193.317 116.901 192.566 118.026C193.402 118.574 193.161 118.706 193.552 117.284ZM133.608 152.873C133.391 153.067 133.174 153.249 132.978 153.453C132.961 153.471 133.107 153.723 133.136 153.714C134.258 153.372 134.002 153.407 133.608 152.873ZM197.802 117.346C198.37 118.076 198.186 118.333 199.253 116.778C199.27 116.754 198.886 116.371 198.861 116.391C198.491 116.686 198.15 117.021 197.802 117.346ZM170.868 17.5997C169.421 16.2765 169.878 16.5128 169.098 16.6585C169.811 18.0367 169.393 17.6897 170.868 17.5997ZM150.593 149.72C150.149 150.49 149.803 150.401 151.783 151.097C151.824 151.111 151.993 150.746 152.102 150.557C151.599 150.278 151.096 149.999 150.593 149.72ZM212.167 60.5362C210.916 61.255 211.182 60.9015 211.317 62.017C212.728 61.4233 212.407 61.7493 212.167 60.5362ZM109.053 161.23C109.605 161.979 109.184 162.045 111.02 160.732C110.619 160.104 111.019 160.085 109.053 161.23ZM145.357 6.71332C145.708 5.87845 145.967 6.17442 143.985 5.43294C143.725 6.12772 143.462 5.83909 145.357 6.71332ZM178.686 137.574C179.761 137.426 179.615 137.842 179.16 135.532C178.39 135.673 178.541 135.27 178.686 137.574ZM68.7946 39.4231C68.1325 39.6002 68.3125 39.4904 68.2189 39.9978C68.8857 39.6973 68.7681 39.827 68.7946 39.4231ZM86.9027 146.467C87.0427 147.122 86.7583 147.045 88.2844 146.699C88.0565 145.979 88.3714 145.991 86.9027 146.467ZM150.448 156.799C150.409 156.919 150.848 157.375 151.003 157.34C152.276 157.05 151.063 154.846 150.448 156.799ZM60.4162 63.611C59.7398 63.1543 60.0273 62.8644 59.1659 65.1669C59.8836 64.2738 60.1499 63.9425 60.4162 63.611ZM209.236 100.231C209.078 100.19 208.92 100.149 208.762 100.107C208.647 100.305 208.395 100.563 208.444 100.688C209.05 102.217 209.125 100.886 209.236 100.231ZM158.776 148.277C159.713 149.17 159.24 149.108 160.451 148.748C160.03 148.629 159.609 148.511 158.776 148.277ZM206.714 114.718C206.461 114.502 205.365 113.35 205.342 114.351C205.314 115.546 205.843 115.087 206.714 114.718ZM165.993 145.106C166.586 143.908 166.715 144.305 165.868 143.515C165.9 143.922 165.932 144.327 165.993 145.106ZM55.7705 103.821C55.1457 103.406 55.3599 103.469 54.9217 103.807C55.5637 104.314 55.3508 104.255 55.7705 103.821ZM109.431 14.3255C108.932 15.5277 108.72 15.2097 109.788 15.8005C110.05 15.1708 110.19 15.5686 109.431 14.3255ZM119.955 160.92C119.306 161.262 119.384 160.911 119.52 162.133C120.364 161.795 120.323 162.141 119.955 160.92ZM102.055 155.598C102 155.942 101.771 155.815 103.445 156.1C103.5 155.769 103.707 155.879 102.055 155.598ZM133.19 2.93711C133.007 3.02305 132.824 3.10888 132.642 3.19472C132.748 3.35004 132.874 3.64745 132.957 3.634C134.09 3.45255 133.446 3.14313 133.19 2.93711ZM182.705 34.8066C183.138 34.3738 183.196 34.6477 182.294 33.5372C181.797 34.0323 181.738 33.7551 182.705 34.8066ZM88.4311 17.4476C87.4135 17.8594 87.6081 17.3903 87.5855 19.2042C88.9285 17.5555 88.8196 17.8894 88.4311 17.4476ZM147.482 12.4908C146.53 13.2282 146.604 12.8119 146.968 13.9573C147.102 13.5745 147.236 13.1915 147.482 12.4908ZM157.193 159.807C156.236 159.175 156.452 160.218 156.761 160.097C156.913 160.037 157.043 159.913 157.193 159.807ZM93.457 148.368C93.2194 147.72 93.4417 147.739 92.6774 148.005C93.0904 148.864 92.9092 148.813 93.457 148.368ZM140.938 155.95C141.608 155.56 141.438 155.71 141.472 155.341C140.889 155.349 140.97 155.151 140.938 155.95ZM155.021 151.93C155.329 151.82 155.273 152.002 155.241 151.223C154.934 151.337 154.989 151.157 155.021 151.93ZM149.784 148.159C150.079 148.429 149.982 148.457 150.212 148.097C149.731 147.778 149.82 147.747 149.784 148.159ZM151.409 147.74C151.632 147.946 151.861 148.157 152.09 148.368C152.196 148.216 152.422 147.982 152.386 147.924C151.746 146.874 151.733 147.233 151.409 147.74ZM156.7 144.052C156.431 143.806 156.211 143.556 155.942 143.39C155.872 143.347 155.51 143.628 155.52 143.654C155.97 144.776 155.995 144.448 156.7 144.052ZM139.553 19.7716C139.906 20.5591 139.74 20.3619 140.342 20.3422C140.152 19.6755 140.384 19.7547 139.553 19.7716ZM197.597 32.204C197.709 32.375 197.819 32.5437 197.93 32.7124C197.993 32.6266 198.113 32.5343 198.106 32.4563C198.037 31.696 197.893 31.9532 197.597 32.204ZM79.4338 33.9834C79.1347 34.1227 79.1535 33.9884 79.2497 34.447C79.4972 34.2196 79.4614 34.329 79.4338 33.9834ZM214.761 66.8809C216.05 66.3246 215.858 66.724 215.724 65.5375C215.491 65.8627 215.258 66.1879 214.761 66.8809ZM217.039 74.0101C216.286 73.102 216.551 73.1034 215.883 73.8455C216.723 74.6385 216.434 74.5648 217.039 74.0101ZM195.047 59.555C194.931 59.4179 194.814 59.2808 194.697 59.1437C194.636 59.224 194.514 59.3166 194.525 59.3822C194.653 60.1161 194.767 59.8542 195.047 59.555ZM94.7324 25.8789C94.3957 26.4194 94.2926 26.2147 94.8699 26.7543C95.2471 26.1261 95.2985 26.3232 94.7324 25.8789ZM57.6839 81.3872C57.4581 81.2237 57.2448 81.0298 56.9961 80.9214C56.9443 80.8989 56.6329 81.2813 56.6606 81.3254C57.2989 82.3379 57.3158 81.9443 57.6839 81.3872ZM199.557 110.547C199.697 110.38 199.816 110.236 199.936 110.092C199.865 110.03 199.769 109.9 199.726 109.917C199.145 110.152 199.323 110.223 199.557 110.547ZM54.2919 86.1893C54.3642 85.7663 54.5281 85.8991 53.2761 85.6859C53.2039 86.1089 53.0399 85.9761 54.2919 86.1893ZM209.102 114.094C208.137 113.154 208.613 113.196 207.397 113.656C207.829 113.767 208.261 113.878 209.102 114.094ZM72.3959 43.0013C72.0993 42.4186 72.3585 42.4631 71.4911 42.584C71.8648 43.473 71.6465 43.4024 72.3959 43.0013ZM62.7695 54.5773C62.4762 54.1808 62.4849 53.7776 61.6906 54.4987C61.6478 54.5376 61.8231 54.8374 61.8978 55.017C62.1768 54.8764 62.4559 54.7355 62.7695 54.5773ZM189.202 121.536C189.008 121.306 189.09 121.236 188.79 121.694C189.081 121.789 188.987 121.856 189.202 121.536ZM204.845 127.154C204.899 126.835 205.097 126.949 203.739 126.718C203.686 127.037 203.487 126.923 204.845 127.154ZM189.313 125.136C188.97 125.079 189.087 124.905 188.878 126.132C189.221 126.19 189.104 126.363 189.313 125.136ZM199.023 129.909C198.838 130.153 198.482 130.543 198.932 130.518C199.615 130.481 199.305 130.267 199.023 129.909ZM189.96 130.675C189.805 130.017 190.028 130.08 189.22 130.164C189.566 131.111 189.39 131.023 189.96 130.675ZM97.739 18.7053C97.4285 18.4778 97.2046 18.165 97.2071 18.8955C97.2073 18.9701 97.3388 19.0423 97.4109 19.1157C97.5199 18.9795 97.6291 18.8433 97.739 18.7053ZM171.654 30.7434C171.434 30.5464 171.227 30.3621 171.021 30.1778C170.758 30.8588 170.967 31.3556 171.654 30.7434ZM71.3132 121.928C71.0684 121.662 71.2314 121.628 70.7131 121.892C71.0652 122.035 70.9362 122.03 71.3132 121.928ZM172.744 139.621C172.42 138.753 172.317 139.344 172.284 139.237C172.497 139.943 172.522 139.755 172.744 139.621ZM194.16 144.453C194.195 143.775 194.423 143.956 192.873 143.882C192.839 144.549 192.581 144.403 194.16 144.453ZM55.7865 82.3577C55.6899 82.4146 55.508 82.4793 55.5114 82.5271C55.5764 83.4499 55.98 83.255 55.7865 82.3577ZM193.159 106.331C192.884 106.354 192.964 106.26 192.806 106.62C193.31 106.599 193.242 106.673 193.159 106.331ZM196.869 109.464C196.888 109.706 196.788 109.651 197.152 109.788C197.14 109.351 197.213 109.415 196.869 109.464ZM186.669 118.771C186.768 118.546 186.827 118.414 186.885 118.282C186.645 118.332 186.642 118.186 186.669 118.771ZM58.929 112.511C58.9747 112.608 59.0325 112.793 59.0641 112.788C59.8614 112.657 59.7056 112.277 58.929 112.511ZM188.657 137.482C188.542 137.241 188.694 137.165 188.014 137.369C188.158 137.586 187.986 137.665 188.657 137.482ZM66.7279 118C66.6959 117.649 66.7484 117.66 66.5323 118.037C66.5974 118.024 66.6627 118.013 66.7279 118ZM163.098 133.715C162.998 133.727 162.883 133.714 162.806 133.765C162.554 133.931 163.155 134.366 163.098 133.715ZM177.705 142.039C177.374 142.225 177.43 142.126 177.533 142.458C178.008 142.15 177.985 142.245 177.705 142.039ZM176.9 143.869C176.809 143.904 176.639 143.943 176.64 143.973C176.659 144.629 177.072 144.695 176.9 143.869ZM69.1901 127.752C68.9406 128.01 68.9316 127.902 69.1983 128.028L69.1901 127.752ZM67.5036 128.703C67.3316 129.045 67.2956 128.954 67.7176 129.078C67.7144 128.646 67.7299 128.77 67.5036 128.703ZM83.9233 132.04C83.6361 132.277 83.6554 132.136 83.7562 132.569C84.0638 132.307 84.0214 132.445 83.9233 132.04ZM163.208 150.784C163.109 150.509 163.281 150.44 162.52 150.596C162.648 150.853 162.451 150.926 163.208 150.784ZM147.777 155.267C147.723 155.242 147.612 155.354 147.527 155.404C148.21 155.911 148.435 155.555 147.777 155.267ZM156.341 157.206C156.048 157.237 156.134 157.131 155.961 157.536C156.501 157.509 156.427 157.594 156.341 157.206ZM135.974 157.453C135.697 157.466 135.774 157.371 135.634 157.743C136.13 157.734 136.067 157.809 135.974 157.453ZM93.9418 151.821C93.6117 151.851 93.654 151.749 93.8049 152.316C94.0779 152.066 94.0467 152.194 93.9418 151.821ZM151.132 161.148C150.986 160.917 151.167 160.824 150.469 161.067C151.083 161.47 150.931 161.336 151.132 161.148ZM86.7758 153.237C86.9128 152.879 86.9692 152.956 86.4675 152.938C86.5214 153.299 86.4501 153.217 86.7758 153.237ZM151.829 3.07186C151.775 2.90175 151.728 2.72875 151.657 2.56687C151.651 2.55252 151.427 2.59678 151.418 2.6388C151.275 3.30312 151.444 3.14646 151.829 3.07186ZM159.392 6.97493C159.408 7.25956 159.314 7.18529 159.679 7.31026C159.673 6.84541 159.747 6.91089 159.392 6.97493ZM139.004 6.46961C139.25 6.34364 139.214 6.45426 139.225 6.08158C138.834 6.25447 138.895 6.1504 139.004 6.46961ZM182.864 13.5515C182.826 13.6977 182.788 13.8438 182.75 13.99C182.976 13.7762 182.96 13.8834 182.864 13.5515ZM126.351 6.8871C126.552 6.8434 126.753 6.79971 126.954 6.75613C126.924 6.66674 126.913 6.51919 126.858 6.49885C126.171 6.24479 126.316 6.45148 126.351 6.8871ZM139.514 13.2525C139.305 12.9151 139.405 12.9276 139.078 13.1678C139.416 13.622 139.319 13.6206 139.514 13.2525ZM178.782 20.3036C178.855 20.6402 178.801 20.6374 178.97 20.334L178.782 20.3036ZM136.022 13.444C136.385 13.6475 136.276 13.6342 136.429 13.3637C136.062 13.1864 136.177 13.2031 136.022 13.444ZM188.849 23.1264C188.679 23.4339 188.646 23.3473 189.048 23.4863C189.057 23.0904 189.075 23.2035 188.849 23.1264ZM108.057 10.1973C108.726 10.6571 108.502 10.5943 108.928 10.1802C108.332 9.77752 108.526 9.75539 108.057 10.1973ZM174.071 23.4337C173.66 24.1882 173.787 24.021 173.934 24.2733C174.45 23.7465 174.354 23.9467 174.071 23.4337ZM95.0265 12.182C94.6397 13.1545 95.4519 12.8915 95.3133 12.5667C95.2536 12.427 95.1319 12.3166 95.0265 12.182ZM130.54 19.1946C130.454 19.2595 130.288 19.352 130.298 19.3847C130.495 20.0366 130.713 19.6577 130.54 19.1946ZM155.816 23.9894C155.13 23.5246 155.273 23.6688 155.046 23.8205C155.379 24.3115 155.182 24.339 155.816 23.9894ZM188.35 31.8191C188.505 32.0759 188.296 32.1715 189.095 31.9408C188.961 31.672 189.135 31.5787 188.35 31.8191ZM153.911 26.6462C153.832 26.7103 153.677 26.7979 153.687 26.8345C153.864 27.4852 154.089 27.0916 153.911 26.6462ZM193.269 37.6958C193.839 38.2635 193.703 38.0898 193.954 37.9016C193.387 37.3257 193.493 37.4734 193.269 37.6958ZM206.817 41.978C207.128 41.8455 207.08 41.9727 207.1 41.5359C206.593 41.7155 206.644 41.6094 206.817 41.978ZM91.9575 22.6905C91.4159 23.4468 91.5913 23.2661 91.7638 23.5248C92.2892 22.779 92.1192 22.9569 91.9575 22.6905ZM204.732 41.9946C204.723 41.7218 204.809 41.785 204.473 41.6882C204.477 42.1225 204.41 42.0631 204.732 41.9946ZM83.4154 23.3406C83.6236 23.1769 83.7035 23.3746 83.5217 22.613C83.3013 22.7607 83.2207 22.5932 83.4154 23.3406ZM187.994 43.433C187.689 43.2572 187.781 43.2681 187.648 43.4987C187.957 43.6563 187.861 43.6423 187.994 43.433ZM75.3487 26.3116C75.298 26.2868 75.1838 26.3991 75.0987 26.4486C75.7489 26.9423 76.0357 26.6476 75.3487 26.3116ZM95.8289 29.9691C96.0788 30.1957 95.959 30.2401 96.073 29.9587L95.8289 29.9691ZM70.7903 28.2991C70.6227 27.8171 70.4759 28.1745 70.4627 28.1301C70.6469 28.7415 70.6556 28.5342 70.7903 28.2991ZM76.5322 34.6931C76.2234 34.5221 76.3105 34.4822 76.1713 34.924C76.5705 34.9152 76.4563 34.9375 76.5322 34.6931ZM213.579 59.7034C213.414 60.0207 213.382 59.9348 213.771 60.0563C213.775 59.651 213.782 59.7671 213.579 59.7034ZM67.0539 37.067C67.4865 36.3618 67.4094 36.5866 67.2307 36.2259C66.7391 36.6058 66.716 36.3945 67.0539 37.067ZM203.482 68.2506C203.846 68.152 203.843 68.2197 203.52 68.0191L203.482 68.2506ZM59.3502 44.3425C58.8799 45.4715 59.7946 45.0549 59.6522 44.73C59.5899 44.5876 59.4611 44.4777 59.3502 44.3425ZM195.584 71.4511C195.324 71.4811 195.388 71.3629 195.222 71.7906C195.737 71.7645 195.667 71.8513 195.584 71.4511ZM214.202 76.6082C214.047 76.3336 214.262 76.2384 213.443 76.4721C213.602 76.8586 213.417 76.8534 214.202 76.6082ZM59.4116 52.4034C59.7182 52.2548 59.6687 52.387 59.6914 51.9407C59.2025 52.1465 59.284 52.037 59.4116 52.4034ZM192.799 79.46C192.132 79.076 192.28 79.1955 192.048 79.3399C192.49 79.8291 192.312 79.7529 192.799 79.46ZM57.5475 59.4877C57.8383 59.662 57.7901 59.7018 57.6711 59.2967C57.6298 59.3605 57.5887 59.4241 57.5475 59.4877ZM207.695 87.1516C207.59 86.9082 207.749 86.8405 207.049 86.9977C207.17 87.2284 206.985 87.3024 207.695 87.1516ZM52.5356 68.0019C52.3373 68.3161 52.2913 68.2232 52.7978 68.3866C52.8071 68.0103 52.8744 68.1113 52.5356 68.0019ZM55.1973 69.3694C54.9825 69.6336 54.9462 69.5217 55.2178 69.6186L55.1973 69.3694ZM210.036 97.9235C210.036 97.6486 210.119 97.7195 209.791 97.588C209.783 98.0426 209.719 97.9765 210.036 97.9235ZM66.9792 77.8052C66.6665 77.6316 66.7516 77.5964 66.6283 78.0146C67.031 78.0138 66.9156 78.0197 66.9792 77.8052ZM206.016 104.091C205.834 104.433 205.792 104.344 206.258 104.453C206.225 104.024 206.247 104.146 206.016 104.091ZM69.9358 82.9432C70.373 82.8503 70.1159 82.6639 69.7805 82.7377C69.8323 82.8062 69.8841 82.8747 69.9358 82.9432ZM149.94 4.51868C149.632 4.70814 149.658 4.60229 149.832 4.92628C150.142 4.73649 150.115 4.842 149.94 4.51868ZM166.349 8.25354C166.154 7.93344 166.258 7.9559 165.945 8.16226C166.142 8.48335 166.036 8.45989 166.349 8.25354ZM164.523 8.70227C164.771 8.93687 164.67 8.94087 164.747 8.65302L164.523 8.70227ZM129.809 7.05121C129.558 7.30926 129.561 7.15227 129.834 7.24511L129.809 7.05121ZM131.926 8.29089C131.71 7.92799 131.828 7.9549 131.475 8.18516C131.691 8.54828 131.573 8.52149 131.926 8.29089ZM115.365 6.20988C115.198 5.91047 115.283 5.92592 114.985 6.10893C115.161 6.42324 115.064 6.395 115.365 6.20988ZM132.992 9.40061C133.297 9.15045 133.264 9.26052 133.046 8.92597C132.718 9.16123 132.719 9.04772 132.992 9.40061ZM183.506 17.936C183.744 17.676 183.746 17.8146 183.472 17.7317L183.506 17.936ZM116.553 7.13748C116.306 6.89499 116.384 6.89444 116.297 7.18273L116.553 7.13748ZM123.854 8.94743C123.614 9.2076 123.612 9.07018 123.886 9.1559L123.854 8.94743ZM193.103 23.6724C192.859 23.9312 192.856 23.7807 193.129 23.8734L193.103 23.6724ZM114.366 10.9472C114.038 11.1541 114.066 11.0407 114.258 11.3819C114.571 11.1851 114.558 11.288 114.366 10.9472ZM119.6 12.0654C119.85 12.2873 119.743 12.3047 119.816 12.0164L119.6 12.0654ZM135.534 18.6252C135.764 18.3634 135.769 18.4625 135.494 18.3815L135.534 18.6252ZM103.175 15.7627C102.957 15.4804 103.06 15.5008 102.767 15.7045C103.083 16.0272 102.991 16.0062 103.175 15.7627ZM133.776 20.9315C133.524 21.189 133.528 21.0258 133.8 21.1198L133.776 20.9315ZM186.427 29.8881C186.175 30.1458 186.182 29.9993 186.454 30.0925L186.427 29.8881ZM146.912 25.4385C147.158 25.6886 147.055 25.6823 147.144 25.3967L146.912 25.4385ZM94.2336 24.5785C94.4326 24.9211 94.323 24.8949 94.6564 24.6828C94.4667 24.3565 94.567 24.3676 94.2336 24.5785ZM183.709 41.4358C183.953 41.1767 183.951 41.3115 183.678 41.2231L183.709 41.4358ZM122.927 31.697C122.681 31.4489 122.803 31.4478 122.716 31.7341L122.927 31.697ZM203.039 57.0664C202.79 56.8309 202.871 56.8302 202.79 57.1173L203.039 57.0664ZM67.5514 34.7397C67.3046 34.4934 67.4206 34.4928 67.3346 34.7788L67.5514 34.7397ZM68.4111 42.2197C68.163 41.9842 68.2434 41.9835 68.1629 42.2706L68.4111 42.2197ZM65.9112 43.4188C66.1425 43.1573 66.1417 43.246 65.8672 43.1655L65.9112 43.4188ZM70.1051 43.7803C69.8743 44.0423 69.874 43.9537 70.1485 44.0345L70.1051 43.7803ZM189.434 69.9257C189.107 70.1322 189.133 70.0193 189.327 70.3609C189.64 70.1633 189.627 70.2665 189.434 69.9257ZM205.229 72.8413C204.985 72.5823 205.142 72.5845 205.048 72.869L205.229 72.8413ZM179.274 70.6011C179.46 70.9191 179.358 70.894 179.667 70.6967C179.49 70.3946 179.577 70.408 179.274 70.6011ZM204.646 76.3564C204.397 76.1221 204.53 76.111 204.453 76.3991L204.646 76.3564ZM69.0013 54.1863C69.2442 53.9266 69.243 54.0564 68.9692 53.9689L69.0013 54.1863ZM205.675 77.4875C205.911 77.227 205.915 77.3053 205.629 77.2195L205.675 77.4875ZM196.715 77.9289C196.513 77.6081 196.62 77.6305 196.307 77.8427C196.636 78.1901 196.552 78.1394 196.715 77.9289ZM188.141 77.3847C188.39 77.1265 188.387 77.2778 188.114 77.1865L188.141 77.3847ZM189.586 77.3864C189.332 77.6448 189.337 77.5043 189.609 77.6024L189.586 77.3864ZM210.947 88.2923C210.646 88.4683 210.674 88.3673 210.836 88.6819C211.124 88.5139 211.106 88.6015 210.947 88.2923ZM208.168 88.7754C207.923 88.524 208.025 88.5309 207.936 88.8163L208.168 88.7754ZM212.685 91.7288C212.514 91.4097 212.614 91.4378 212.302 91.618C212.473 91.937 212.374 91.9093 212.685 91.7288ZM193.055 91.3052C192.84 90.9439 192.957 90.9708 192.606 91.1997C192.82 91.561 192.703 91.5338 193.055 91.3052ZM199.48 94.6034C199.318 94.3088 199.411 94.3334 199.124 94.5062C199.285 94.8002 199.193 94.7766 199.48 94.6034ZM56.8182 72.2676C56.4923 72.4738 56.5194 72.361 56.7123 72.6992C57.0384 72.4933 57.011 72.6058 56.8182 72.2676ZM213.334 102.882L213.472 102.753C213.203 102.641 213.314 102.578 213.334 102.882ZM197.444 101.431C197.198 101.69 197.2 101.547 197.473 101.637L197.444 101.431ZM54.4108 78.7068C54.1658 78.4526 54.2822 78.4543 54.1875 78.7388L54.4108 78.7068ZM48.8784 78.5039C48.6298 78.2698 48.7058 78.2663 48.6253 78.5556L48.8784 78.5039ZM219.602 107.717C219.821 107.454 219.825 107.532 219.547 107.463L219.602 107.717ZM55.3916 80.5136C55.7134 80.2991 55.6885 80.4121 55.4872 80.08C55.1694 80.2919 55.1905 80.1795 55.3916 80.5136ZM205.237 105.856C204.993 105.597 205.146 105.6 205.051 105.884L205.237 105.856ZM213.555 114.057C213.868 113.854 213.843 113.963 213.655 113.637C213.342 113.84 213.367 113.731 213.555 114.057ZM211.225 119.448C211.475 119.19 211.472 119.347 211.2 119.254L211.225 119.448ZM199.649 120.792C199.468 121.022 199.429 120.896 199.658 121.271C199.922 120.73 199.873 120.842 199.649 120.792ZM54.5236 97.9214C54.7681 97.6623 54.7666 97.8032 54.4937 97.7133L54.5236 97.9214ZM206.914 128.249C207.164 127.991 207.161 128.149 206.889 128.056L206.914 128.249ZM198.015 127.217C197.756 127.473 197.767 127.314 198.039 127.412L198.015 127.217ZM200.748 127.565C200.452 127.738 200.479 127.639 200.639 127.949C200.937 127.774 200.908 127.873 200.748 127.565ZM57.8787 107.901C57.6343 107.644 57.7762 107.645 57.6803 107.93L57.8787 107.901ZM158.388 125.011C158.142 124.763 158.267 124.762 158.179 125.048L158.388 125.011ZM59.6714 109.071C59.9119 108.811 59.913 108.952 59.6391 108.867L59.6714 109.071ZM192.548 134.359C192.292 134.617 192.3 134.457 192.571 134.554L192.548 134.359ZM180.131 132.908C179.901 133.174 179.896 133.095 180.18 133.176L180.131 132.908ZM190.385 134.626C190.072 134.822 190.097 134.714 190.282 135.04C190.581 134.852 190.567 134.946 190.385 134.626ZM190.709 136.91C190.476 137.18 190.468 137.102 190.763 137.182L190.709 136.91ZM185.793 140.733C186.066 140.476 186.051 140.649 185.781 140.538L185.793 140.733ZM69.219 123.157C69.4653 122.899 69.4633 123.042 69.1904 122.952L69.219 123.157ZM80.0638 125.749C80.2925 125.488 80.2965 125.565 80.018 125.485L80.0638 125.749ZM71.4087 126.935C71.1694 127.195 71.1708 127.094 71.444 127.182L71.4087 126.935ZM84.2996 129.842C84.0488 130.1 84.0496 129.942 84.3213 130.039L84.2996 129.842ZM76.0243 132.239C76.2698 132.49 76.1595 132.489 76.2522 132.204L76.0243 132.239ZM156.21 149.448C155.955 149.706 155.96 149.552 156.232 149.65L156.21 149.448ZM148.626 153.387C148.379 153.143 148.507 153.14 148.425 153.427L148.626 153.387ZM170.494 157.126C170.249 156.875 170.402 156.872 170.314 157.157L170.494 157.126ZM139.995 153.657C140.321 153.455 140.293 153.566 140.106 153.228C139.781 153.43 139.809 153.318 139.995 153.657ZM158.553 157.199C158.357 157.034 158.463 157.003 158.146 157.212C158.602 157.447 158.507 157.403 158.553 157.199ZM163.755 159.698C163.508 159.45 163.593 159.458 163.507 159.744L163.755 159.698ZM116.552 152.362C116.364 152.043 116.467 152.068 116.155 152.265C116.334 152.569 116.245 152.555 116.552 152.362ZM123.873 153.405C123.646 153.669 123.646 153.585 123.922 153.659L123.873 153.405ZM136.137 155.52C135.914 155.782 135.91 155.691 136.187 155.764L136.137 155.52ZM158.856 159.541C158.608 159.304 158.717 159.3 158.638 159.588L158.856 159.541ZM103.745 151.732C104.001 151.475 103.995 151.616 103.723 151.516L103.745 151.732ZM131.814 156.22C131.592 156.486 131.569 156.414 131.872 156.489L131.814 156.22ZM88.4471 150.667C88.6808 150.406 88.6786 150.495 88.4042 150.414L88.4471 150.667ZM92.8637 153.58C93.1072 153.321 93.1025 153.413 92.8298 153.322L92.8637 153.58Z" fill="#E87C00"/>
<path d="M193.681 141.96C187.569 137.108 169.029 134.692 165.368 129.764C163.676 127.486 165.278 126.89 171.779 119.877C176.744 114.521 171.973 110.851 171.24 86.4769C171.111 82.1784 173.186 73.1787 164.229 69.4656C163.669 69.2335 153.639 65.5595 151.688 64.8564C147.892 63.4883 148.087 60.4929 147.382 58.3733C146.7 56.3202 147.389 54.6517 148.797 52.898C149.27 57.2788 149.227 59.8158 151.093 59.2509C152.012 58.9727 151.679 58.0458 151.609 57.4101C151.152 53.288 151.923 49.4406 153.092 45.5153C154.589 40.4893 152.614 40.8086 152.629 40.1738C152.635 39.8966 153.572 39.3495 153.012 38.2187C152.849 37.8877 152.567 37.6046 152.509 37.24C152.39 36.4874 153.271 35.8345 153.125 35.0866C153.013 34.5145 152.341 34.1771 152.241 33.6026C152.107 32.8304 152.506 32.1152 152.433 31.3348C152.368 30.6315 151.182 30.1519 151.258 29.4494C151.331 28.7639 151.142 27.8433 150.792 27.3191C150.518 26.9089 149.922 26.845 149.593 26.4768C149.036 25.8525 149.752 24.8215 148.65 24.1971C148.102 23.8867 147.113 23.9255 146.896 23.1963C146.714 22.5833 146.858 22.3995 146.832 21.7914C146.756 19.9925 145.176 20.498 144.94 19.6061C144.77 18.96 145.532 18.2874 144.333 17.5495C142.839 16.631 143.583 16.2019 143.086 15.3639C142.643 14.6182 141.749 14.9432 141.226 15.0207C140.102 15.187 139.897 14.6734 139.467 14.1311C138.638 13.0859 136.893 14.076 136.453 14.7204C136.064 15.2897 135.809 15.8767 135.137 16.1733C134.382 16.5063 133.282 16.3669 132.742 17.0877C132.214 17.7939 132.646 18.8834 132.183 19.6335C131.922 20.056 131.427 20.2804 131.126 20.6751C130.101 22.0166 131.413 23.08 130.788 23.7196C130.398 24.118 129.69 24.1374 129.257 24.4725C128.612 24.9731 129.294 26.2919 128.675 26.8254C128.086 27.333 127.243 27.0033 126.895 27.6985C126.587 28.3115 126.988 29.0976 126.638 29.6875C126.43 30.0388 125.944 30.1211 125.682 30.4347C124.965 31.295 126.312 32.417 125.969 33.387C125.791 33.8878 125.217 34.1768 125.072 34.6882C124.907 35.2757 125.376 35.8494 125.435 36.4569C125.523 37.3657 124.705 38.1497 124.754 39.0559C124.78 39.532 125.52 39.9201 125.487 40.2393C125.472 40.3858 124.773 40.7887 124.642 40.9515C123.158 42.8014 124.937 47.1704 125.654 49.3948C126.901 53.2648 126.184 55.379 126.074 58.3817C126.022 59.8361 127.553 59.2315 127.865 58.8035C128.281 58.2334 128.323 57.3509 128.867 53.1314C129.827 54.4114 130.603 55.346 130.476 56.9316C130.131 61.2361 128.46 64.31 124.038 65.6677C120.681 66.6983 117.469 68.1919 114.162 69.3989C107.962 71.6625 105.528 77.8303 106.369 84.3772C106.948 88.8778 106.093 98.1358 105.391 102.803C102.959 118.991 100.51 117.042 116.301 128.975C112.076 133.041 102.227 135.207 90.2892 139.46C81.0299 142.759 79.6741 152.583 86.3934 157.074C89.4486 159.115 92.4443 159.616 94.4471 160.068C94.4681 160.179 94.4893 160.29 94.5103 160.401C93.2396 160.887 91.9687 161.372 90.4525 161.951C94.6503 164.997 99.8452 165.97 104.131 165.297C108.264 164.649 108.634 163.954 110.068 164.44C114.474 165.934 119.734 165.677 124.264 164.798C125.904 164.48 127.027 165.145 127.729 166.703C135.746 168.007 138.778 168.823 150.822 166.674C153.141 161.852 157.685 168.662 169.159 164.47C170.77 163.881 173.475 166.014 177.536 165.715C184.805 165.18 187.841 162.677 188.797 162.079C187.136 161.465 185.825 160.98 184.514 160.495C185.173 160.085 185.757 159.948 186.34 159.805C199.461 156.585 199.657 146.704 193.681 141.96ZM120.858 120.154C119.223 117.137 117.098 114.688 114.266 112.678C117.068 105.623 118.218 98.2274 118.87 90.6819C121.101 93.8775 122.243 97.4408 123.111 101.123C124.653 107.659 123.444 113.871 120.858 120.154Z" fill="#FCFAF7"/>
<path d="M202.761 76.9657C202.764 76.9615 202.766 76.9572 202.768 76.9531C202.736 77.0126 202.74 77.0047 202.761 76.9657Z" fill="#FFF1E3"/>
<path d="M272.267 107.562C271.966 107.535 271.71 107.516 271.484 107.502C274.217 105.755 276.89 103.624 279.161 101.561C279.218 101.869 279.3 101.853 279.329 101.536C279.333 101.492 279.339 101.44 279.344 101.395C283.509 97.5805 286.256 94.0521 285.358 93.7314C284.91 93.5729 285.272 95.8439 279.413 100.743C279.443 100.481 279.475 100.205 279.51 99.9152C283.467 94.675 285.406 89.7505 284.199 80.6295C279.394 86.697 276.457 92.9564 279.122 100.076C279.103 100.444 279.101 100.751 279.11 100.997C277.969 101.935 276.604 102.965 274.969 104.089C272.628 105.697 268.572 108.24 265.062 109.43C270.67 104.553 275.059 95.5918 274.237 96.5193C271.328 99.7998 269.587 102.723 267.597 105.144C268.121 103.807 268.025 101.786 266.082 98.7465C262.236 101.411 261.331 104.441 265.005 107.537C265.024 107.61 265.044 107.681 265.064 107.745C261.918 110.368 257.387 112.024 248.294 112.375C258.108 103.328 268.339 90.5188 272.779 83.6566C275.502 78.9325 273.847 79.6595 273.679 79.9904L273.664 80.0197C265.415 92.0901 267.928 87.6166 255.267 101.699C255.299 101.665 255.267 101.698 255.271 101.693C255.136 101.825 255.006 101.952 254.874 102.082C255.429 97.4024 256.741 91.9824 258.272 86.7708C259.384 87.0615 264.944 88.4816 268.357 81.7931C268.913 80.6906 269.351 79.3464 269.383 77.8878C267.246 78.9863 265.642 79.3512 263.39 80.5131C260.924 81.8114 259.631 83.3483 258.934 84.5708C261.001 77.8589 263.308 71.7386 264.647 68.3343C265.956 68.5161 271.16 68.9709 270.93 61.7363C263.513 62.5487 263.82 66.1336 264.186 67.6341C263.419 69.3785 262.542 71.6334 261.96 73.1711C261.921 70.6301 260.861 68.2659 260.395 64.8286C258.418 66.3866 257.145 68.9786 256.778 71.3962C255.98 76.538 258.852 79.1024 259.461 79.6781C259.462 79.6835 259.463 79.6891 259.465 79.6944C257.573 84.4466 256.06 87.8415 254.903 91.0486C254.439 89.4326 253.272 87.4312 250.705 85.0585C249.168 88.2001 248.726 91.9428 251.121 94.378C251.966 95.2527 252.819 95.5889 253.47 95.7192C252.835 98.2909 252.413 101.102 252.19 104.693C250.044 106.765 248.197 108.481 246.291 110.041C247.318 108.897 248.78 106.378 247.351 100.905C247.101 99.9274 246.772 98.8327 246.492 97.4807C242.888 100.173 240.867 105.716 245.379 110.77C243.826 111.988 242.197 113.128 240.304 114.295C241.217 103.209 242.757 101.029 243.133 98.1066C243.101 98.2097 243.131 98.1103 243.127 98.1217C243.174 97.9454 243.54 96.585 243.577 96.4459C245.26 90.0965 250.815 78.9553 254.928 64.6378C260.8 59.2483 265.216 54.3399 268.525 49.9964C268.576 50.0018 268.629 50.0074 268.684 50.0129C274.355 54.8013 281.387 53.2466 285.152 48.9179C282.381 48.6475 280.738 48.1483 277.718 47.863C272.289 47.3946 269.614 49.2191 268.841 49.7841C268.789 49.7827 268.739 49.7813 268.69 49.7802C273.004 44.0787 275.404 39.3639 276.694 35.8271C276.692 36.0822 276.702 36.2832 276.705 36.4247C275.968 37.4478 276.12 37.8228 276.37 37.4534C276.564 37.1743 276.801 36.8776 277.065 36.5709C282.122 35.8492 285.72 34.5269 288.1 27.7482C285.354 28.1972 282.523 28.7844 280.329 30.1702C279.002 31.0457 278.162 31.9435 277.624 32.7827C278.591 28.7322 277.72 27.3613 277.553 29.2891C277.099 34.2313 274.793 39.1219 271.602 43.7611C271.592 43.7077 271.58 43.6499 271.568 43.5929C272.524 41.7562 276.516 39.2694 268.61 31.1288C267.299 34.2619 267.324 37.4108 268.126 39.5776C269.265 42.4928 270.976 43.3217 271.423 43.7736C271.439 43.8375 271.454 43.898 271.468 43.9574C269.143 47.3064 266.362 50.521 263.481 53.5269C263.472 53.5102 263.465 53.4952 263.457 53.4785C264.115 52.4717 266.951 49.2293 261.764 42.1868C258.921 46.0403 258.458 51.1397 262.301 53.3244C262.748 53.5636 263.096 53.674 263.248 53.7154C263.254 53.7268 263.261 53.7377 263.267 53.7486C260.82 56.2884 258.313 58.6754 255.96 60.8642C258.111 52.5078 259.661 43.1899 259.661 33.1926C259.648 32.2691 259.641 31.7755 259.641 31.7755L258.451 31.7699C258.445 31.8031 258.387 32.5311 258.248 33.7942C257.478 30.7342 255.678 27.8545 253.653 25.3357C251.826 31.4494 252.917 35.6101 254.367 38.0264C255.315 39.6932 256.578 40.5456 257.242 40.9421C256.725 44.0181 256.002 47.6961 255.002 51.7199C254.351 50.5574 253.244 49.239 251.442 47.7711C249.428 51.5397 249.439 55.1707 253.505 57.2373C252.512 60.605 251.329 64.1087 249.917 67.6241C248.731 65.0097 247.322 60.6359 246.578 53.6656C246.617 53.7407 246.663 53.7926 246.723 53.7914C246.964 53.7861 246.881 53.4908 246.908 52.5075C247.633 51.9331 249.921 50.0903 251.146 46.7097C252.095 44.3312 252.578 41.2841 252.18 37.8647C248.779 40.6865 246.965 43.1675 246.078 45.2536C246.002 41.1263 246.135 36.3835 246.566 30.9333C246.588 30.6066 246.617 30.2852 246.65 29.9669C246.655 29.9493 246.658 29.9202 246.659 29.8779C246.718 29.3186 246.792 28.7733 246.87 28.2359C248.283 26.7954 251.897 23.0429 250.493 13.6387C242.044 21.0271 244.828 26.4814 245.983 28.2049C245.689 30.8337 245.436 34.0536 245.311 37.6892C244.198 29.6528 240.011 28.844 237.326 24.4926C235.687 27.8783 236.661 33.5054 241.285 36.2787C241.454 37.1453 241.635 39.853 238.543 48.192C238.499 47.2807 238.261 46.2402 237.697 45.058C236.918 43.4621 235.53 41.8304 233.326 40.2953C231.354 49.8628 235.815 52.0769 236.514 52.7637C236.545 52.8868 236.574 53.0031 236.602 53.1065C236.496 53.3603 236.397 53.6037 236.286 53.8651C234.987 56.8581 234.164 59.2855 233.67 61.2298C230.795 51.8824 226.689 45.7642 225.174 32.503C225.199 32.5285 225.386 32.3015 225.777 31.7461C226.558 31.8128 229.074 32.0702 230.778 28.9716C231.806 27.1885 232.069 24.6693 231.851 22.5905C225.468 24.9842 225.059 27.5366 225.543 31.7426C225.544 31.7421 225.548 31.7425 225.549 31.7419C225.312 32.1572 225.173 32.4304 225.173 32.4905C224.994 30.9227 224.851 29.2565 224.751 27.4718C225.516 26.2926 226.678 23.6409 223.762 20.2631C222.62 18.9205 220.871 17.72 218.369 16.8086C218.73 24.8888 221.842 26.2274 223.821 27.7481C223.857 30.7284 224.304 35.4004 225.385 40.7099C225.297 40.6663 225.209 40.6221 225.119 40.5762C224.755 38.8995 225.933 36.1818 217.316 33.2401C216.94 38.1225 219.745 42.2464 225.096 40.9391C225.228 40.9863 225.348 41.0251 225.458 41.0548C226.006 43.6976 226.712 46.4872 227.599 49.2978C225.622 47.3451 223.209 45.67 220.873 43.6648C216.746 40.2291 214.395 36.1147 213.064 32.5533C213.03 32.3456 212.96 32.0081 212.845 31.5182C215.53 26.0064 214.746 25.6928 211.205 17.4329C208.664 20.5126 207.192 26.6799 212.044 31.23C212.519 33.0363 213.248 35.0467 214.338 37.101C213.36 35.9053 212.155 36.4581 209.103 37.0341C209.087 41.0263 212.708 43.0333 215.032 40.4694C215.352 40.1103 215.515 39.8092 215.559 39.7227C215.678 39.7195 215.796 39.7169 215.916 39.7075C217.044 41.3481 218.431 42.9725 220.139 44.4987C224.224 48.2475 227.197 49.946 229.263 54.1502C231.614 60.9424 233.137 66.6951 233.733 73.2496C232.861 72.1316 231.809 71.0374 230.652 69.9079C230.601 69.8143 230.551 69.7188 230.503 69.6227C231.2 68.5805 234.004 65.6716 229.077 59.6368C227.591 61.4226 226.874 63.043 226.7 64.4715C226.622 65.0883 226.63 65.6295 226.696 66.1128C225.21 64.654 223.689 63.0657 222.244 61.2561C220.569 59.0356 219.785 57.5806 219.824 57.6439C219.622 57.3112 218.54 56.9293 221.696 61.6551C221.932 61.9898 222.17 62.314 222.409 62.6334C221.414 62.5114 220.048 62.8978 217.988 63.8598C219.152 67.5584 221.791 69.312 225.161 66.004C229.227 70.6124 233.013 73.657 233.983 77.5471C233.832 85.8394 233.617 92.074 233.441 96.7588C232.703 93.4064 232.181 91.3157 232.24 91.5156C229.942 84.5863 224.262 78.5771 217.694 73.0893C217.206 71.8575 216.588 70.302 216.314 69.6226C213.496 62.5146 213.718 59.0012 213.81 55.4515C215.398 55.3858 220.349 54.8159 218.264 47.414C215.794 48.3654 214.373 49.421 213.585 50.4473C213.236 48.0872 212.427 45.2341 210.621 41.2747C210.496 41.0101 210.415 40.6972 210.17 40.8135C209.861 40.9563 210.084 40.8956 211.245 44.1043C212.484 47.6954 212.86 49.928 212.898 51.7177C212.646 52.486 212.679 53.2008 212.807 53.7976C212.693 54.9755 212.513 56.1203 212.484 57.6102C212.031 56.1965 210.465 54.3793 203.098 53.6052C203.434 55.5083 204.18 56.9802 205.562 58.3623C208.665 61.2136 211.49 59.997 212.527 59.4714C212.689 61.9815 213.303 65.4404 214.951 70.8614C211.327 67.9941 207.546 65.2605 203.991 62.6006C202.971 60.3532 199.647 56.6085 198.984 53.4937C197.58 47.1257 197.87 41.2305 197.649 36.476C197.776 37.0054 197.915 37.355 197.95 37.4811C197.656 38.5553 197.719 38.8803 197.876 38.4433C197.92 38.2302 198.039 37.8754 198.209 37.427C199.497 36.9375 205.266 34.6462 204.22 24.2412C199.045 27.8627 197.648 31.384 197.45 33.8927C197.158 31.3578 196.544 29.2615 195.152 27.7474C194.924 27.5366 194.718 27.2512 194.524 27.4563C194.448 27.5404 194.45 27.6691 194.529 27.7484C194.724 27.9422 194.636 27.8572 194.828 28.0528C197.715 31.5173 196.424 36.1801 196.73 45.7461C196.101 43.7212 194.325 41.218 189.755 38.9974C189.131 48.4511 194.736 49.4161 196.374 49.6037C196.596 49.8448 196.799 50.0323 196.975 50.1509C197.046 51.0468 197.132 51.976 197.239 52.9455C197.621 53.8345 196.109 52.4402 199.987 59.5411C194.097 54.9114 189.38 50.4366 187.97 45.7776C187.88 45.4648 187.823 45.2218 187.793 45.0574C187.763 44.8928 187.746 44.8069 187.746 44.8069L187.742 44.7803C187.691 44.5043 187.424 44.3209 187.148 44.3718C186.88 44.421 186.7 44.6745 186.736 44.942C186.736 44.942 186.749 45.0404 186.776 45.2304C186.802 45.4213 186.853 45.7011 186.942 46.0614C187.12 46.777 187.483 47.8027 188.15 48.9779C191.342 54.6795 198.103 60.6586 205.121 66.5115C202.858 66.3635 202.6 66.1804 199.096 65.9527C197.719 65.8555 196.39 65.8765 195.1 65.9451C194.87 64.1111 194.499 62.3754 192.537 60.8382C191.61 60.1187 190.585 59.5015 189.589 58.888C189.16 58.5978 188.702 58.2876 188.209 57.9539C187.564 59.8645 187.592 61.4556 188.292 63.3331C189.008 64.8761 189.888 65.7703 190.778 66.2721C186.217 66.6158 182.12 66.5329 178.119 62.3526C178.137 62.2669 178.127 61.869 178.081 61.114C178.683 60.4153 183.269 56.4585 176.974 45.3115C172.261 54.46 177.119 60.1358 177.91 61.0708C177.987 61.7425 178.049 62.1726 178.087 62.3166C177.156 61.3394 176.231 60.1366 175.306 58.6683C175.349 58.6641 175.327 58.587 175.223 58.4446C175.136 58.2763 174.974 58.054 174.768 57.7764C174.663 57.5975 174.558 57.4284 174.453 57.2424C175.132 49.2629 172.293 46.7832 169.812 40.5366C167.558 44.5157 167.441 50.5028 170.453 54.6575C171.853 56.591 173.315 57.2836 174.013 57.5536C174.638 58.7427 175.257 59.7949 175.874 60.7231C175.735 60.7442 175.593 60.7708 175.445 60.8014C174.788 59.8105 171.574 55.8043 165.329 61.0521C171.986 66.6454 175.201 61.6497 175.543 61.0668C175.728 61.0194 175.881 60.9723 176.006 60.9271C177.359 62.9248 178.706 64.3306 180.094 65.327C178.895 64.8411 177.106 64.5341 174.82 65.4922C173.446 66.0445 171.975 67.0748 169.963 68.6357C172.911 70.5027 175.775 70.7513 177.951 70.0216C180.834 69.0781 181.557 66.6882 181.767 66.3291C186.971 68.8508 192.98 66.7247 202.121 68.0232C203.687 68.2506 205.982 68.5794 207.728 68.6745C214.19 74.0201 220.513 79.2154 224.145 83.9503C222.843 83.7421 221.582 83.7929 220.335 84.0129C220.086 83.9427 219.828 83.8704 219.803 83.8637C218.232 83.4305 216.224 82.9809 214.083 82.4011C214.114 82.3497 214.091 82.2893 214.03 82.266C213.768 82.1731 213.518 82.0629 213.274 81.9435C213.128 80.6339 214.904 77.8631 206.887 73.7898C206.323 75.9898 206.55 78.4522 207.72 80.22C205.914 79.4128 204.215 78.4302 202.807 77.1921C202.003 76.4953 201.467 75.7847 201.19 75.2439C201.001 74.8874 200.95 74.6634 200.854 74.3552L200.852 74.3419C200.827 74.2521 200.735 74.1982 200.644 74.2228C200.557 74.2465 200.504 74.3343 200.521 74.4221C200.521 74.4221 200.542 74.5149 200.58 74.6896C200.627 74.8599 200.697 75.1142 200.837 75.4148C201.105 76.0189 201.642 76.8093 202.444 77.5836C206.204 81.2592 212.139 83.1126 217.424 84.7793C213.213 86.1862 208.903 88.5711 203.421 88.0677C203.694 86.6123 204.581 82.5361 197.409 80.0064C196.864 83.5998 197.499 85.6763 198.528 86.8782C197.957 86.6557 197.378 86.4118 196.781 86.1191C196.293 85.8731 195.868 85.6806 195.494 85.5265C195.399 84.9897 195.108 83.8548 193.285 82.9798C190.392 81.5728 187.386 83.1736 184.988 85.2779C190.34 89.2401 192.943 87.5717 195.313 85.9764C197.1 86.8585 199.354 88.6275 203.253 89.0914C199.634 89.2315 198.566 91.7789 195.733 94.0197C196.775 94.7326 197.966 95.0453 199.006 95.1408C205.758 95.7442 206.259 90.006 206.388 89.4843C206.505 89.3714 206.609 89.2674 206.699 89.1721C209.391 88.9717 211.87 88.2085 214.233 87.4499C212.975 88.8275 210.931 90.9935 207.469 94.3288C203.767 97.1914 200.43 95.8452 200.43 96.4965C200.43 96.7669 202.126 96.9727 204.186 96.5635C203.79 96.7055 203.364 96.8881 202.922 97.1346C200.168 98.7067 198.356 103.178 198.375 104.653C199.709 104.219 208.062 104.279 206.213 96.194C206.242 96.104 206.266 96.0191 206.287 95.9386C207.026 95.6377 207.758 95.2477 208.428 94.7351C209.26 94.0124 210.021 93.3513 210.722 92.7405C210.309 93.7815 210.175 95.2428 210.859 97.3009C211.073 97.9778 211.359 98.7851 211.436 99.9139C215.038 99.1898 217.468 93.7162 213.593 90.8885C213.431 90.773 213.283 90.6797 213.154 90.6039C215.49 88.5253 216.721 87.3142 217.128 86.5483C219.886 85.7584 222.53 85.3267 225.231 86.263C225.395 86.3375 225.535 86.4011 225.649 86.452C225.736 86.4911 225.819 86.5186 225.901 86.5448C226.923 88.275 227.513 89.7665 228.152 91.6572C228.237 91.9597 228.322 92.2604 228.409 92.5592C229.167 95.4843 229.401 98.3789 230.069 102.232C231.071 108.176 231.571 112.585 231.91 115.832C231.199 120.183 230.643 124.613 230.203 129.01C229.474 128.263 228.778 127.514 228.099 126.763C228.037 126.468 227.81 126.21 227.522 126.114C226.467 124.917 225.477 123.707 224.555 122.477C224.561 122.468 224.569 122.461 224.575 122.452C227.944 114.621 225.274 108.787 225.441 103.532L225.439 103.526C225.435 103.433 225.355 103.36 225.261 103.365C225.172 103.369 225.102 103.442 225.1 103.531C225.008 107.878 225.212 110.583 225.235 112.775C224.556 111.794 223.056 111.105 220.162 111.607C219.913 118.241 223.992 116.748 224.962 116.507C224.713 117.809 224.259 119.189 223.467 120.963C220.909 117.269 218.963 113.341 217.703 108.913C217.684 108.721 217.664 108.538 217.643 108.362C220.127 104.355 220.78 104.001 221.213 93.0565C218.415 94.8317 216.356 97.2728 215.352 100.629C214.52 104.238 215.48 106.373 216.345 107.562C216.558 108.679 216.898 109.985 217.407 111.463C215.803 108.693 212.344 109.234 209.419 109.29C209.954 112.909 212.909 116.319 217.987 113.84C218.145 113.892 218.272 113.934 218.376 113.969C219.872 117.472 222.261 121.701 225.989 126.49C224.212 126.771 221.369 125.818 219.132 124.984C219.124 124.952 219.116 124.918 219.108 124.883C219.258 124.814 219.504 124.689 219.801 124.478C222.55 122.515 221.444 118.213 217.001 117.293C216.049 120.798 214.922 122.32 218.133 124.47C218.375 124.633 218.586 124.755 218.737 124.836C218.227 124.644 217.753 124.462 217.345 124.31C215.295 123.553 213.718 123.196 212.446 122.947C211.486 121.697 207.258 116.619 198.471 120.247C203.228 124.103 207.064 126.141 211.939 123.606C213.316 123.98 214.967 124.426 216.953 125.289C218.433 125.935 219.72 126.434 220.852 126.823C220.775 126.916 220.544 127.184 220.167 127.569C212.124 127.613 211.637 131.872 206.685 134.15C210.806 136.897 218.334 134.603 220.084 128.785C220.26 128.193 220.312 127.772 220.327 127.626C220.632 127.311 220.858 127.052 220.996 126.872C224.195 127.958 226.067 128.103 227.078 127.861C227.977 128.964 228.944 130.094 229.988 131.25C229.979 131.35 229.971 131.449 229.962 131.549C225.645 130.22 223.773 131.756 219.959 135.415C224.041 137.819 227.967 136.845 229.723 134.346C229.198 140.826 228.888 147.129 228.659 152.878L239.893 153.039C239.447 137.416 239.582 126.661 239.985 119.079C241.782 117.881 243.668 116.42 245.592 114.776C247.813 115.109 252.012 114.374 255.626 113.504C256.156 113.644 256.244 113.858 257.119 114.163C257.858 115.293 260.587 118.875 268.716 118.689C272.359 118.621 275.31 117.931 278.737 117.699C271.046 111.598 257.788 113.712 256.945 113.824C256.512 113.637 256.368 113.491 256.156 113.375C258.588 112.771 260.682 112.128 261.607 111.747C261.907 111.61 262.206 111.45 262.504 111.28C262.749 111.263 263.031 111.22 263.365 111.14C265.797 110.664 268.513 109.372 271.188 107.693C271.468 107.725 271.807 107.757 272.213 107.782C272.252 107.822 272.298 107.867 272.356 107.92C276.861 111.841 287.506 110.772 294.526 102.953C276.876 105.261 286.972 103.177 272.267 107.562ZM215.494 39.4574C215.348 39.0594 215.208 38.7025 215.074 38.3947C215.282 38.7402 215.502 39.0855 215.733 39.4308C215.651 39.4395 215.572 39.4486 215.494 39.4574ZM196.844 49.4472C196.86 49.3715 196.88 49.2772 196.902 49.167C196.909 49.2811 196.919 49.3993 196.927 49.5146C196.9 49.4928 196.873 49.471 196.844 49.4472ZM205.894 96.1322C205.828 96.1424 205.751 96.1558 205.667 96.1705C205.749 96.1428 205.83 96.1145 205.912 96.0847C205.906 96.101 205.9 96.116 205.894 96.1322ZM206.133 89.3979C205.822 89.3304 205.515 89.2668 205.23 89.2222C205.618 89.2252 206.001 89.2142 206.379 89.1926C206.296 89.2627 206.215 89.3301 206.133 89.3979ZM218.034 113.819C218.059 113.806 218.083 113.798 218.109 113.785C218.109 113.785 218.112 113.549 218.043 113.172C218.144 113.425 218.255 113.685 218.366 113.946C218.272 113.91 218.161 113.868 218.034 113.819ZM246.447 52.3213C246.471 52.3572 246.493 52.3902 246.513 52.421C246.502 52.5357 246.492 52.6497 246.486 52.7511C246.473 52.6096 246.46 52.465 246.447 52.3213ZM235.04 65.2541C235.291 55.9034 242.004 47.5322 241.83 37.4555C241.825 37.1256 241.836 36.8313 241.837 36.5865C242.839 37.106 243.991 37.501 245.31 37.7228C245.199 40.9807 245.191 44.5702 245.349 48.3641C245.334 48.7861 245.354 49.1817 245.403 49.5454C245.642 54.2962 246.144 59.3387 247.033 64.4325C247.586 67.4169 248.214 69.2358 248.769 70.3666C247.982 72.1722 247.135 73.9717 246.218 75.7464C246.166 75.8457 245.998 76.1652 245.897 76.3609L245.876 76.4006L245.832 76.479C245.759 76.6132 245.615 76.8774 245.567 76.9654C243.147 81.3925 240.962 85.5534 238.982 90.2249C238.195 91.9798 237.472 93.8191 236.804 95.722C236.796 92.5518 236.768 88.5567 236.693 83.4694C236.708 83.4394 236.718 83.4176 236.727 83.399C237.549 83.1735 240.084 82.3762 241.851 77.8924C243.15 74.5145 243.552 71.8535 243.683 69.6016C241.369 70.891 238.575 72.8073 237.349 75.1669C236.964 75.897 236.689 76.5991 236.486 77.27C236.211 72.9236 235.669 69.2923 234.96 66.1023C235.006 65.8468 235.036 65.5649 235.04 65.2541ZM265.319 107.465C265.372 107.436 265.432 107.403 265.499 107.366C265.442 107.418 265.382 107.467 265.324 107.518C265.323 107.5 265.321 107.483 265.319 107.465Z" fill="#FCFAF7"/>
<path d="M65.3371 78.86C65.3391 78.8562 65.3411 78.8524 65.3432 78.8486C65.3139 78.9023 65.3178 78.8952 65.3371 78.86Z" fill="#FCFAF7"/>
<path d="M0 100.402C6.51231 107.315 16.153 108.05 20.1389 104.41C20.1894 104.361 20.2298 104.319 20.2651 104.282C20.6306 104.251 20.9363 104.215 21.1889 104.179C23.6418 105.638 26.124 106.747 28.3314 107.124C28.6349 107.19 28.8912 107.222 29.1127 107.232C29.3854 107.379 29.6588 107.517 29.9332 107.635C30.7768 107.959 32.6829 108.495 34.8932 108.987C34.7042 109.097 34.5772 109.232 34.1902 109.411C33.4266 109.328 21.4014 107.705 14.5852 113.383C17.6864 113.519 20.3671 114.079 23.6604 114.061C31.009 114.053 33.3968 110.757 34.0399 109.721C34.8239 109.426 34.8986 109.23 35.3747 109.093C38.6585 109.8 42.4687 110.374 44.4683 110.025C46.2425 111.468 47.9775 112.747 49.6276 113.791C50.1559 120.632 50.5107 130.347 50.4457 144.472L60.5928 144.084C60.2612 138.894 59.8446 133.206 59.2297 127.363C60.8708 129.583 64.4389 130.378 68.0743 128.117C64.5491 124.893 62.825 123.546 58.953 124.84C58.9427 124.751 58.9331 124.661 58.9228 124.571C59.8415 123.504 60.6913 122.462 61.4789 121.446C62.3984 121.643 64.0858 121.471 66.9524 120.421C67.0816 120.581 67.2914 120.81 67.5739 121.088C67.59 121.219 67.6463 121.599 67.818 122.129C69.5259 127.348 76.3772 129.258 80.0409 126.686C75.517 124.736 74.9845 120.898 67.7168 121.032C67.3679 120.693 67.154 120.456 67.0821 120.373C68.0968 119.997 69.2479 119.519 70.5712 118.903C72.347 118.08 73.8291 117.641 75.0655 117.273C79.5248 119.458 82.9466 117.534 87.1605 113.947C79.1433 110.86 75.4332 115.539 74.5933 116.689C73.4491 116.942 72.0317 117.298 70.1964 118.027C69.8308 118.173 69.4062 118.348 68.9502 118.533C69.0841 118.455 69.2727 118.341 69.4875 118.189C72.3425 116.177 71.2913 114.826 70.3553 111.679C66.3607 112.607 65.4547 116.518 67.981 118.232C68.2536 118.416 68.4782 118.524 68.6158 118.583C68.6092 118.615 68.6027 118.646 68.5965 118.675C66.5931 119.477 64.0451 120.4 62.4337 120.184C65.6984 115.776 67.7653 111.904 69.041 108.706C69.1343 108.672 69.2474 108.632 69.3897 108.581C74.031 110.711 76.6268 107.566 77.0321 104.285C74.3879 104.298 71.2512 103.883 69.8618 106.421C70.29 105.075 70.5683 103.887 70.7368 102.873C71.4924 101.78 72.3139 99.8307 71.4838 96.5876C70.5041 93.5772 68.5908 91.4163 66.0242 89.8729C66.6529 99.7521 67.2498 100.057 69.5811 103.624C69.5663 103.784 69.5523 103.95 69.5393 104.124C68.4969 108.151 66.8233 111.742 64.5924 115.135C63.8378 113.55 63.3983 112.313 63.1446 111.142C64.027 111.339 67.7446 112.599 67.3758 106.611C64.7498 106.22 63.4096 106.875 62.817 107.776C62.791 105.795 62.9166 103.347 62.7388 99.4209C62.7352 99.3406 62.6703 99.2763 62.5901 99.2741C62.5046 99.2718 62.4342 99.3393 62.433 99.424L62.4313 99.4291C62.6955 104.174 60.4097 109.502 63.6236 116.504C63.6292 116.513 63.6359 116.519 63.6416 116.527C62.8358 117.658 61.9678 118.772 61.0402 119.877C60.7817 119.97 60.582 120.208 60.5326 120.476C59.9356 121.169 59.3233 121.861 58.6802 122.551C58.1881 118.588 57.5895 114.598 56.853 110.682C57.089 107.741 57.4454 103.747 58.2215 98.3548C58.7418 94.8588 58.89 92.2385 59.5116 89.5792C59.5838 89.3074 59.6542 89.0338 59.7244 88.7588C60.2612 87.0367 60.7615 85.6763 61.6476 84.0909C61.7214 84.0655 61.7958 84.0388 61.8735 84.0016C61.9749 83.9531 62.0999 83.8926 62.2469 83.8218C64.6665 82.9173 67.0656 83.2501 69.5741 83.9041C69.9584 84.5873 71.0964 85.6549 73.2525 87.4823C73.1374 87.5537 73.0057 87.6411 72.8619 87.7489C69.4228 90.3877 71.7365 95.2804 75.0064 95.8567C75.0519 94.8353 75.2925 94.0996 75.4709 93.4833C76.0444 91.6089 75.8921 90.2917 75.4964 89.3601C76.1429 89.8967 76.8446 90.4774 77.6121 91.1125C78.2283 91.561 78.8979 91.8976 79.5727 92.1534C79.5934 92.2257 79.6171 92.3018 79.6444 92.3826C78.1496 99.7274 85.6949 99.4926 86.91 99.8556C86.8952 98.5227 85.1609 94.5219 82.6387 93.1611C82.2344 92.9479 81.8449 92.7923 81.4841 92.6725C83.354 92.9975 84.8822 92.7748 84.8764 92.5307C84.8623 91.9422 81.8763 93.2308 78.4694 90.7246C75.2697 87.7861 73.3756 85.8736 72.2093 84.6561C74.3604 85.2904 76.6173 85.9262 79.0535 86.049C79.1373 86.1331 79.2331 86.2248 79.3415 86.3243C79.4695 86.7928 80.046 91.9665 86.1334 91.2752C87.0709 91.1663 88.1404 90.8579 89.0663 90.1913C86.4585 88.2281 85.4381 85.9496 82.1659 85.9014C85.6784 85.3978 87.6767 83.7507 89.2715 82.915C91.4477 84.305 93.8359 85.7562 98.5851 82.0602C96.3734 80.2109 93.6226 78.8298 91.0393 80.1636C89.4114 80.9938 89.173 82.0254 89.0991 82.5124C88.7643 82.6597 88.3846 82.8427 87.9486 83.0757C87.416 83.353 86.8982 83.5859 86.3872 83.7992C87.2908 82.6911 87.8192 80.8013 87.2491 77.5663C80.8238 80.0074 81.7135 83.6711 81.992 84.98C77.0498 85.5536 73.1043 83.492 69.2688 82.3122C74.0077 80.6919 79.3298 78.8887 82.6475 75.4864C83.355 74.7695 83.823 74.0437 84.0525 73.492C84.1723 73.2175 84.2301 72.9862 84.2691 72.8313C84.2995 72.6725 84.3162 72.5883 84.3162 72.5883C84.3298 72.5086 84.2801 72.4302 84.2008 72.4108C84.1184 72.3905 84.0359 72.4414 84.0154 72.5229L84.014 72.535C83.9335 72.8155 83.893 73.0191 83.7292 73.3452C83.4914 73.8397 83.0218 74.4936 82.3108 75.1405C81.0659 76.2895 79.5518 77.2142 77.9376 77.9826C78.9567 76.3601 79.1083 74.1303 78.5507 72.1548C71.3961 76.0088 73.0604 78.4738 72.957 79.6601C72.7394 79.7733 72.5155 79.8784 72.2804 79.9678C72.2261 79.9901 72.2069 80.0453 72.2358 80.091C70.3137 80.6612 68.51 81.1111 67.0996 81.5363C67.0772 81.543 66.8459 81.6138 66.6223 81.6827C65.4908 81.5109 64.35 81.4923 63.1787 81.7086C66.357 77.352 71.9577 72.521 77.6806 67.5513C79.2563 67.4275 81.322 67.0807 82.7325 66.8414C90.9633 65.4702 96.4383 67.2609 101.086 64.87C101.283 65.19 101.988 67.3335 104.613 68.1235C106.595 68.7356 109.177 68.449 111.8 66.6983C109.949 65.3317 108.598 64.4325 107.344 63.9633C105.258 63.147 103.648 63.4632 102.576 63.9283C103.808 62.9979 104.995 61.6985 106.174 59.8643C106.288 59.9025 106.427 59.9416 106.595 59.9805C106.917 60.4996 109.929 64.9439 115.823 59.7461C110.067 55.14 107.25 58.8291 106.678 59.7387C106.543 59.7144 106.415 59.6933 106.289 59.6773C106.826 58.8255 107.362 57.8613 107.901 56.7734C108.526 56.5144 109.832 55.8568 111.055 54.0795C113.686 50.2605 113.451 44.8538 111.328 41.3074C109.222 47.0049 106.711 49.3069 107.497 56.5016C107.406 56.6721 107.315 56.8271 107.224 56.9909C107.044 57.2463 106.902 57.4506 106.827 57.6046C106.737 57.7355 106.718 57.8055 106.757 57.8086C105.953 59.1551 105.143 60.2618 104.324 61.1651C104.355 61.034 104.401 60.6441 104.456 60.0356C105.151 59.1737 109.417 53.9404 104.961 45.7768C99.5143 55.9845 103.744 59.4601 104.302 60.0784C104.277 60.7615 104.277 61.1213 104.295 61.1982C100.771 65.0619 97.0711 65.2255 92.9429 65.0138C93.7356 64.5411 94.5121 63.7142 95.1254 62.3046C95.7168 60.5932 95.708 59.155 95.084 57.4427C94.6454 57.7548 94.2388 58.045 93.8572 58.3164C92.9702 58.8923 92.0577 59.4722 91.2362 60.1423C89.4964 61.5736 89.1986 63.1499 89.0307 64.8119C87.864 64.7779 86.6629 64.7877 85.421 64.9053C82.2598 65.1868 82.0308 65.3579 79.9894 65.5406C86.2033 60.1004 92.1825 54.5519 94.9427 49.3313C95.5202 48.2551 95.8261 47.3205 95.9711 46.6701C96.0437 46.3428 96.0836 46.0888 96.1034 45.9157C96.1231 45.7436 96.1329 45.6544 96.1329 45.6544C96.1597 45.4119 95.992 45.1868 95.7482 45.1482C95.4979 45.1083 95.261 45.2796 95.2208 45.5302L95.2178 45.5542C95.2178 45.5542 95.2043 45.6322 95.1805 45.7816C95.1568 45.9307 95.1108 46.1515 95.0356 46.4361C93.863 50.6762 89.698 54.8212 84.4772 59.1318C87.827 52.6321 86.4907 53.9247 86.8169 53.1131C86.892 52.2349 86.9497 51.3936 86.9947 50.5826C87.1511 50.4715 87.3304 50.2976 87.5263 50.075C89.0014 49.8701 94.0447 48.8768 93.2763 40.3489C89.1956 42.4542 87.6456 44.7542 87.121 46.5973C87.1899 37.9479 85.9227 33.7629 88.4558 30.5702C88.625 30.3894 88.5473 30.4682 88.719 30.2887C88.7891 30.2153 88.788 30.0991 88.7179 30.0246C88.5384 29.8436 88.3582 30.1059 88.157 30.3014C86.9317 31.6996 86.4224 33.6067 86.2136 35.9034C85.9799 33.6411 84.6421 30.4899 79.8881 27.3299C79.1679 36.7535 84.4297 38.6987 85.6048 39.1132C85.7676 39.5147 85.8825 39.8326 85.9271 40.0242C86.078 40.4157 86.1284 40.1206 85.839 39.1564C85.868 39.0417 85.9861 38.7229 86.09 38.2417C85.9935 42.5422 86.3826 47.8623 85.2521 53.6462C84.7207 56.4747 81.7985 59.9301 80.9258 61.9827C77.7708 64.4631 74.4146 67.0147 71.2022 69.6839C72.5732 64.7503 73.0533 61.6118 73.145 59.3403C74.0933 59.7929 76.6721 60.8309 79.4144 58.1875C80.6333 56.909 81.2752 55.5628 81.5372 53.8361C74.8984 54.6951 73.523 56.3708 73.1438 57.6579C73.0849 56.3125 72.8976 55.2821 72.7691 54.2203C72.8721 53.6781 72.8869 53.0317 72.642 52.3429C72.6379 50.7251 72.9292 48.6999 73.9703 45.4286C74.9506 42.5044 75.1527 42.5543 74.8711 42.432C74.6473 42.3321 74.5806 42.6165 74.4727 42.8584C72.9274 46.4746 72.2579 49.0701 71.9937 51.2099C71.2599 50.2997 69.9533 49.3768 67.7008 48.5707C65.977 55.3035 70.4631 55.7111 71.8994 55.7361C72.0594 58.9413 72.3358 62.1108 69.9433 68.594C69.7109 69.2137 69.1861 70.6325 68.7719 71.7559C62.9563 76.8567 57.9545 82.409 56.0286 88.7193C56.078 88.5374 55.6517 90.4378 55.0573 93.4826C54.797 89.2537 54.4673 83.6254 54.1515 76.1365C54.9439 72.6008 58.2981 69.7681 61.8719 65.5162C64.9884 68.432 67.3349 66.7904 68.3064 63.4235C66.4245 62.599 65.182 62.2795 64.2855 62.4113C64.4943 62.1174 64.7025 61.8193 64.9089 61.5119C67.6578 57.1737 66.6879 57.5423 66.5131 57.8472C66.5468 57.7891 65.8702 59.1206 64.4048 61.1632C63.1384 62.8294 61.7985 64.2973 60.487 65.6475C60.5366 65.2095 60.5325 64.7204 60.4479 64.1648C60.2599 62.8779 59.5773 61.4295 58.196 59.8481C53.8753 65.4073 56.4713 67.9748 57.1243 68.9013C57.0823 68.9891 57.0398 69.0766 56.9952 69.1622C55.9747 70.2078 55.0474 71.2192 54.2844 72.2481C54.6805 66.3133 55.9317 61.0827 57.9087 54.8949C59.6849 51.0516 62.3342 49.4526 65.9432 45.9772C67.4534 44.5613 68.6718 43.0635 69.6555 41.5568C69.7638 41.5628 69.8708 41.5625 69.9778 41.5629C70.0195 41.6401 70.1733 41.9087 70.47 42.2261C72.6259 44.4922 75.8537 42.6004 75.7528 38.9938C72.9825 38.5395 71.8818 38.0662 71.0246 39.1678C71.9652 37.288 72.5799 35.4557 72.9697 33.8135C77.2554 29.5973 75.7914 24.0571 73.4287 21.3296C70.4087 28.8691 69.7068 29.1695 72.2522 34.0912C72.1596 34.5362 72.1034 34.8428 72.077 35.0312C70.9516 38.2778 68.9163 42.0461 65.2623 45.2396C63.1949 47.1019 61.0511 48.6676 59.3077 50.4747C60.0482 47.9162 60.6251 45.3804 61.0634 42.9808C61.1615 42.9517 61.2693 42.9141 61.388 42.8685C66.2506 43.9337 68.6953 40.1472 68.2498 35.744C60.5284 38.5885 61.6517 41.0184 61.3594 42.5412C61.279 42.5848 61.2001 42.6267 61.1218 42.6679C61.9829 37.8473 62.2859 33.6163 62.2538 30.9229C64.0089 29.5061 66.7922 28.2293 66.9425 20.921C64.7022 21.7986 63.1479 22.9212 62.1452 24.1589C59.5833 27.274 60.6906 29.6447 61.4079 30.6935C61.356 32.3081 61.2629 33.8167 61.1353 35.237C61.1336 35.1828 61.0025 34.9389 60.7792 34.5688C60.7803 34.5692 60.7837 34.5688 60.7847 34.5692C61.1309 30.7587 60.7065 28.4613 54.8875 26.4369C54.7352 28.32 55.0272 30.5905 55.9945 32.1791C57.6014 34.9419 59.8689 34.6549 60.5732 34.5777C60.9392 35.0709 61.1131 35.272 61.1343 35.2485C60.0533 47.2629 56.4757 52.8795 54.0805 61.3873C53.5919 59.6413 52.7963 57.466 51.5573 54.7899C51.4521 54.5561 51.3571 54.3383 51.2562 54.1114C51.2785 54.0174 51.3027 53.9116 51.3279 53.7998C51.9443 53.164 55.9268 51.067 53.9385 42.4655C51.9801 43.9003 50.7615 45.4046 50.0922 46.8632C49.6078 47.9437 49.4157 48.8888 49.3953 49.7131C46.4216 42.2459 46.5261 39.7955 46.66 39.0089C50.7783 36.403 51.5365 31.2978 49.9815 28.2742C47.6503 32.264 43.8851 33.0853 43.0532 40.3703C42.8613 37.0882 42.5629 34.1846 42.2406 31.8158C43.2467 30.2337 45.6441 25.2453 37.8502 18.7529C36.7859 27.2801 40.1325 30.5922 41.4402 31.8631C41.5225 32.3469 41.6011 32.8379 41.6663 33.342C41.6679 33.3801 41.6712 33.4065 41.6761 33.4222C41.7126 33.7089 41.7458 33.9988 41.773 34.2934C42.2808 39.2084 42.5031 43.4906 42.5239 47.2213C41.6773 45.3557 39.9851 43.1533 36.8512 40.6775C36.5657 43.7755 37.068 46.5181 37.9771 48.6466C39.1573 51.6744 41.2635 53.2899 41.9312 53.7932C41.9772 54.6811 41.9083 54.9496 42.1262 54.9492C42.181 54.9491 42.2211 54.9011 42.2544 54.8324C41.7328 61.1462 40.5553 65.1285 39.5396 67.5163C38.1884 64.3707 37.0431 61.2308 36.0735 58.2095C39.702 56.2542 39.6331 52.9733 37.7319 49.6121C36.1362 50.9773 35.164 52.1925 34.6012 53.257C33.6107 49.6431 32.8778 46.3355 32.3443 43.5676C32.9351 43.195 34.058 42.3975 34.8782 40.871C36.1361 38.6564 37.0317 34.8737 35.249 29.3895C33.4735 31.7091 31.9097 34.3499 31.2804 37.1313C31.127 35.9932 31.0595 35.3367 31.0527 35.3069L29.9781 35.3377C29.9781 35.3377 29.982 35.7838 29.9901 36.6185C30.2066 45.6511 31.8093 54.0361 33.9341 61.5395C31.7602 59.613 29.4433 57.5106 27.1777 55.2689C27.1831 55.2588 27.1887 55.2489 27.1942 55.2386C27.3302 55.1978 27.6423 55.0905 28.0414 54.8648C31.4662 52.8076 30.9372 48.2104 28.2855 44.7904C23.7516 51.2657 26.3838 54.1339 27 55.0292C26.9929 55.0444 26.9869 55.0581 26.9797 55.0734C24.3117 52.4201 21.7289 49.5759 19.5554 46.6003C19.5674 46.5464 19.5795 46.4914 19.5922 46.4334C19.987 46.0154 21.5146 45.2295 22.4804 42.5709C23.1579 40.5957 23.1127 37.7501 21.86 34.9477C14.8938 42.4741 18.5539 44.6344 19.4577 46.273C19.4484 46.3248 19.4389 46.3773 19.4304 46.4259C16.4466 42.3035 14.2579 37.9348 13.7401 33.4793C13.5481 31.7412 12.7908 32.9987 13.7523 36.6374C13.2477 35.8908 12.4696 35.0978 11.2515 34.3355C9.23896 33.131 6.66897 32.6617 4.17781 32.3156C6.47507 38.3886 9.75463 39.5054 14.3389 40.0479C14.5843 40.3192 14.8047 40.5821 14.9862 40.8302C15.2202 41.1585 15.3489 40.8163 14.6615 39.908C14.6608 39.7801 14.6657 39.5982 14.6578 39.3678C15.9002 42.5354 18.1708 46.7432 22.192 51.8011C22.1477 51.8033 22.1033 51.8055 22.0561 51.8079C21.3457 51.3141 18.8887 49.7237 13.9937 50.2645C11.2711 50.5877 9.7981 51.0742 7.29971 51.3788C10.7952 55.2081 17.1826 56.4605 22.2028 52.0113C22.2521 52.0051 22.2997 51.9989 22.346 51.9928C25.4294 55.8455 29.5255 60.1846 34.9474 64.9268C38.9742 77.7736 44.2343 87.7194 45.8924 93.4196C45.9292 93.5444 46.2888 94.7655 46.3354 94.9239C46.3318 94.9136 46.3613 95.0027 46.3299 94.9103C46.7331 97.5427 48.1709 99.4788 49.236 109.475C47.5004 108.462 46.004 107.467 44.5745 106.401C48.5417 101.737 46.5954 96.7721 43.2808 94.4175C43.0571 95.6451 42.7836 96.6413 42.5793 97.5299C41.4064 102.506 42.7822 104.75 43.7352 105.762C41.9792 104.393 40.2731 102.883 38.2889 101.058C38.0101 97.8173 37.5675 95.287 36.9388 92.9772C37.5238 92.8454 38.287 92.5232 39.0315 91.7146C41.1431 89.4625 40.6625 86.0905 39.2056 83.2854C36.9374 85.4847 35.9269 87.3182 35.5425 88.7884C34.428 85.9157 32.987 82.8812 31.1751 78.6286C31.1761 78.6237 31.177 78.6186 31.178 78.6138C31.7156 78.0804 34.2552 75.7014 33.4228 71.0729C33.039 68.8966 31.8322 66.5824 30.0126 65.2175C29.6663 68.3332 28.7591 70.4922 28.7795 72.7888C28.2201 71.4121 27.379 69.3938 26.648 67.8343C26.9463 66.4706 27.1461 63.2251 20.4271 62.6517C20.376 69.1933 25.0682 68.6696 26.2472 68.477C27.5307 71.5239 29.747 77.0035 31.7604 83.023C31.1041 81.9335 29.9025 80.5728 27.6464 79.4533C25.5867 78.4523 24.1292 78.1575 22.1742 77.2113C22.2348 78.5285 22.6603 79.7335 23.1865 80.7176C26.4148 86.6868 31.4074 85.2832 32.4062 84.9963C33.902 89.6719 35.2048 94.5404 35.8079 98.7561C35.6857 98.6423 35.5652 98.53 35.4405 98.4138C35.444 98.4179 35.4143 98.3887 35.4441 98.4188C23.7001 85.9703 26.067 89.9577 18.3525 79.2306L18.3381 79.2044C18.1797 78.9091 16.6684 78.2881 19.2306 82.4973C23.3914 88.6011 32.912 99.9526 41.975 107.914C33.7519 107.794 29.6221 106.396 26.723 104.094C26.7398 104.036 26.7558 103.971 26.7719 103.905C30.0243 101.028 29.1411 98.3105 25.6081 95.986C23.9189 98.7741 23.8757 100.602 24.3778 101.799C22.5278 99.6546 20.8913 97.0512 18.1921 94.1503C17.4288 93.3302 21.589 101.332 26.7613 105.616C23.5638 104.617 19.8445 102.408 17.695 101.005C16.193 100.025 14.9376 99.1239 13.8864 98.3019C13.8889 98.0791 13.8803 97.8022 13.8558 97.4698C16.1085 90.9795 13.3194 85.3877 8.84682 80.0097C7.95436 88.2767 9.81267 92.6841 13.5013 97.3329C13.5394 97.5939 13.5744 97.8423 13.6066 98.079C8.20696 93.7793 8.4847 91.7196 8.08333 91.8725C7.27948 92.1815 9.83724 95.31 13.6836 98.6662C13.6887 98.7069 13.6953 98.754 13.7003 98.7936C13.7328 99.0794 13.8077 99.0921 13.8524 98.8118C15.9493 100.627 18.4104 102.495 20.9176 104.013C20.713 104.031 20.4829 104.054 20.2113 104.085C6.83007 100.442 15.9974 102.106 0 100.402ZM69.8143 41.3036C70.0155 40.9866 70.2064 40.67 70.3876 40.3532C70.2727 40.6343 70.1543 40.9598 70.0309 41.3226C69.9603 41.3162 69.8884 41.3098 69.8143 41.3036ZM87.0233 50.007C87.0284 49.9027 87.0346 49.7957 87.0393 49.6925C87.0612 49.7915 87.0816 49.8764 87.0978 49.9443C87.072 49.9665 87.0476 49.9868 87.0233 50.007ZM79.9142 92.2778C79.989 92.303 80.063 92.3269 80.1376 92.3501C80.0612 92.3386 79.9922 92.3282 79.9323 92.3205C79.9263 92.3058 79.9205 92.2924 79.9142 92.2778ZM79.3429 86.0609C79.6855 86.0723 80.0315 86.0739 80.3817 86.0629C80.1253 86.1094 79.8496 86.1734 79.5698 86.2412C79.4948 86.1816 79.4197 86.1225 79.3429 86.0609ZM69.0493 108.685C69.1441 108.447 69.2386 108.21 69.3247 107.979C69.2705 108.321 69.2783 108.535 69.2783 108.535C69.3017 108.546 69.3234 108.552 69.3466 108.563C69.2326 108.61 69.1332 108.651 69.0493 108.685ZM42.317 54.0048C42.31 53.9133 42.2976 53.8103 42.2852 53.7072C42.3034 53.6789 42.3223 53.6486 42.3429 53.6157C42.3344 53.7456 42.3261 53.8766 42.317 54.0048ZM53.0199 65.8182C52.4489 68.7156 52.0377 72.0083 51.8835 75.9411C51.6856 75.3394 51.4222 74.7109 51.0583 74.0597C49.8993 71.9544 47.3338 70.2834 45.2149 69.1686C45.3815 71.2003 45.803 73.5959 47.0498 76.6196C48.7431 80.6325 51.0508 81.2981 51.7988 81.484C51.8068 81.5005 51.8163 81.5201 51.8302 81.5469C51.8735 86.1449 51.9339 89.7551 51.9959 92.6195C51.3507 90.9146 50.6578 89.2685 49.9085 87.7C48.0185 83.5222 45.9542 79.8101 43.6724 75.8627C43.6269 75.7842 43.4907 75.5486 43.4217 75.429L43.3807 75.3591L43.3611 75.3237C43.2654 75.149 43.1064 74.864 43.0573 74.7754C42.1902 73.1918 41.3866 71.5844 40.6358 69.97C41.1133 68.9362 41.6414 67.2792 42.0759 64.5708C42.7686 59.9493 43.1135 55.3825 43.2263 51.085C43.263 50.7554 43.2722 50.3975 43.2498 50.0164C43.3103 46.5852 43.2255 43.3424 43.0542 40.4011C44.2408 40.1722 45.2737 39.7904 46.1675 39.2993C46.1739 39.5204 46.19 39.7861 46.1926 40.0842C46.2536 49.1924 52.5002 56.6102 52.9292 65.0533C52.9404 65.334 52.973 65.588 53.0199 65.8182ZM26.483 103.895C26.4294 103.85 26.3747 103.807 26.3219 103.761C26.3829 103.793 26.4381 103.822 26.4865 103.847C26.4853 103.863 26.4842 103.879 26.483 103.895Z" fill="#FCFAF7"/>
</svg>
