<svg width="357" height="223" viewBox="0 0 357 223" fill="none" xmlns="http://www.w3.org/2000/svg">
<path d="M91.2895 111.479C91.2895 111.479 64.5929 73.4783 54.1599 78.4045C43.7267 83.3307 91.2895 111.479 91.2895 111.479Z" fill="#A8D29F"/>
<path d="M89.5917 101.268C89.5917 101.268 85.514 72.695 79.0854 73.8161C72.6568 74.9371 89.5917 101.268 89.5917 101.268Z" fill="#A8D29F"/>
<path d="M67.0218 190.325C67.0218 190.325 69.5878 177.611 59.6223 176.013C59.6223 176.013 52.8633 175.777 48.8836 178.326C48.8836 178.326 60.1861 184.851 58.842 186.879C57.498 188.907 46.7719 178.7 46.7719 178.7C46.7719 178.7 34.6555 184.007 31.9512 187.851C31.9512 187.851 46.2692 190.402 44.4673 192.036C42.6652 193.671 27.643 191.708 27.643 191.708C27.643 191.708 17.9625 199.505 22.1788 205.713C26.3951 211.92 31.2068 211.876 32.7299 210.797C34.2531 209.718 41.7088 200.806 42.6569 202.018C43.6049 203.23 40.324 210.755 36.4427 213.19C36.4427 213.19 48.6315 217.294 52.3028 212.093C55.9742 206.892 54.2761 202.848 56.6034 199.676C58.9305 196.503 61.5998 195.016 61.123 197.192C60.6462 199.369 55.7817 203.942 55.7606 208.101C55.7395 212.26 55.3273 215.288 60.0772 211.61C64.8273 207.933 71.1369 199.428 69.0792 194.876C67.0218 190.325 67.0218 190.325 67.0218 190.325Z" fill="#82B378"/>
<path d="M27.5332 202.952C27.5332 202.952 55.9628 185.6 67.0216 190.325C67.0216 190.325 70.8151 193.782 77.3438 195.212L79.0609 196.687C79.0609 196.687 71.0602 194.191 69.0792 194.877C69.0792 194.877 66.1453 183.008 27.5332 202.952Z" fill="#82B378"/>
<path d="M77.3432 195.212C77.3432 195.212 86.1564 196.34 91.1937 204.339L90.1185 205.073C90.1185 205.073 83.366 197.664 77.9043 196.344C72.4424 195.023 77.3432 195.212 77.3432 195.212Z" fill="#82B378"/>
<path d="M75.7232 153.226C75.7232 153.226 96.3674 141.665 86.7333 125.976C86.7333 125.976 79.0262 116.342 70.7686 113.864C70.7686 113.864 75.1726 137.261 70.7686 137.812C66.3645 138.362 67.7408 111.387 67.7408 111.387C67.7408 111.387 45.9957 100.927 37.4626 101.753C37.4626 101.753 50.9502 124.599 46.5462 124.049C42.1421 123.498 27.0029 100.377 27.0029 100.377C27.0029 100.377 4.70727 96.2477 1.12896 109.46C-2.44935 122.672 3.331 129.279 6.63406 130.104C9.93711 130.93 31.1319 130.655 30.5812 133.407C30.0305 136.16 15.7175 140.564 7.7349 138.087C7.7349 138.087 16.5432 159.832 28.1039 158.731C39.6646 157.63 43.2429 150.473 50.3997 149.923C57.5563 149.372 62.7862 151.299 59.2079 153.226C55.6296 155.153 43.5182 153.857 37.7378 158.771C31.9575 163.685 27.2782 166.713 38.0131 168.915C48.748 171.118 68.016 169.741 71.8696 161.483C75.7232 153.226 75.7232 153.226 75.7232 153.226Z" fill="#A8D29F"/>
<path d="M11.3125 113.589C11.3125 113.589 69.1163 132.307 75.7224 153.226C75.7224 153.226 75.4472 162.585 81.2277 173.32V177.449C81.2277 177.449 75.1721 163.411 71.8689 161.484C71.8689 161.484 84.8058 143.317 11.3125 113.589Z" fill="#82B378"/>
<path d="M81.2286 173.32C81.2286 173.32 90.1428 186.857 85.0609 203.335L82.7674 202.719C82.7674 202.719 84.9937 184.569 80.3297 175.441C75.666 166.313 81.2286 173.32 81.2286 173.32Z" fill="#82B378"/>
<path d="M96.7038 56.5022L65.8162 216.188C65.188 219.436 67.6761 222.451 70.9842 222.451H87.2744L96.7038 56.5022Z" fill="#C4B700"/>
<path d="M302.023 102.214C302.023 102.214 288.13 93.3505 295.455 82.8252C295.455 82.8252 301.199 76.4337 307.04 75.0407C307.04 75.0407 303.044 91.134 306.084 91.6927C309.125 92.2514 309.245 73.439 309.245 73.439C309.245 73.439 324.783 67.0338 330.684 67.9485C330.684 67.9485 320.393 83.2966 323.477 83.0896C326.562 82.8827 338.012 67.4092 338.012 67.4092C338.012 67.4092 353.68 65.428 355.641 74.7583C357.602 84.0886 353.319 88.4515 350.989 88.8939C348.659 89.3362 333.932 88.2988 334.205 90.2348C334.478 92.1708 344.255 95.8047 349.905 94.4007C349.905 94.4007 342.912 109.17 334.917 107.943C326.922 106.716 324.719 101.596 319.765 100.928C314.81 100.259 311.097 101.39 313.508 102.873C315.919 104.356 324.393 103.938 328.216 107.586C332.039 111.234 335.172 113.527 327.62 114.629C320.067 115.732 306.724 114.006 304.374 108.11C302.023 102.214 302.023 102.214 302.023 102.214Z" fill="#C7DCFB"/>
<path d="M348.394 77.2227C348.394 77.2227 307.452 87.9306 302.023 102.214C302.023 102.214 301.841 108.732 297.393 115.966L297.229 118.837C297.229 118.837 302 109.317 304.374 108.109C304.374 108.109 296.103 94.9606 348.394 77.2227Z" fill="#C7DCFB"/>
<path d="M297.394 115.966C297.394 115.966 290.655 125.023 293.531 136.685L295.15 136.348C295.15 136.348 294.326 123.638 297.934 117.477C301.541 111.316 297.394 115.966 297.394 115.966Z" fill="#C7DCFB"/>
<path d="M264.616 63.743C264.616 63.743 243.269 59.0555 247.581 42.6047C247.581 42.6047 251.813 32.0232 258.448 27.6206C258.448 27.6206 260.825 49.4829 264.865 48.7894C268.906 48.0958 260.461 24.6192 260.461 24.6192C260.461 24.6192 276.881 9.54625 284.645 7.98967C284.645 7.98967 278.844 31.7994 282.589 30.1327C286.335 28.466 293.522 3.97025 293.522 3.97025C293.522 3.97025 312.124 -5.65408 318.828 5.06657C325.532 15.7872 322.192 23.1757 319.494 24.7908C316.795 26.406 297.986 31.8421 299.21 34.1277C300.434 36.4134 314.267 36.471 320.659 32.1422C320.659 32.1422 318.7 53.7248 308.185 55.8493C297.671 57.9738 292.59 52.6064 286.116 54.0375C279.642 55.4685 275.536 58.5733 279.215 59.3177C282.895 60.0621 293.253 55.6716 299.68 58.4667C306.107 61.2617 311.054 62.6843 302.155 67.5076C293.256 72.3308 275.854 76.2772 270.235 70.0103C264.616 63.743 264.616 63.743 264.616 63.743Z" fill="#DFEBFD"/>
<path d="M310.931 11.4453C310.931 11.4453 264.849 43.4804 264.615 63.7428C264.615 63.7428 267.366 71.9421 265.133 82.9804L266.24 86.6301C266.24 86.6301 267.831 72.5982 270.235 70.0098C270.234 70.0099 253.93 57.4174 310.931 11.4453Z" fill="#DFEBFD"/>
<path d="M265.134 82.9803C265.134 82.9803 260.881 97.3351 269.789 110.54L271.651 109.381C271.651 109.381 264.82 93.9333 266.497 84.6144C268.173 75.2954 265.134 82.9803 265.134 82.9803Z" fill="#DFEBFD"/>
<path d="M97.0748 55.856L76.6018 212.642C75.9231 217.841 79.9704 222.451 85.2131 222.451H115.247L98.3135 55.2898L97.0748 55.856Z" fill="#78ACEA"/>
<path d="M97.0753 55.856L87.9106 211.642C87.5655 217.506 92.2279 222.451 98.1021 222.451H142.895L97.0753 55.856Z" fill="#699DEE"/>
<path d="M96.7324 57.1277L101.188 211.642C100.843 217.506 105.506 222.451 111.38 222.451H156.173L96.7324 57.1277Z" fill="#5288D8"/>
<path d="M311.19 222.451H134.575C130.165 222.451 126.385 219.3 125.592 214.962L98.7175 67.9938C97.4973 61.3211 102.622 55.1741 109.406 55.1741H283.942C288.352 55.1741 292.131 58.3252 292.925 62.6631L320.173 211.677C321.199 217.285 316.891 222.451 311.19 222.451Z" fill="#D7E9FF"/>
<path d="M102.215 87.0806H297.514L292.506 59.3323C292.072 56.9251 289.977 55.1741 287.53 55.1741H98.3612C97.3274 55.1741 96.5464 56.111 96.7326 57.1279L102.215 87.0806Z" fill="#FFDB4D"/>
<path d="M106.782 46.8237C102.112 46.8237 98.3145 50.62 98.3145 55.289H99.9411C99.9411 51.5168 103.009 48.4484 106.782 48.4484C110.554 48.4484 113.625 51.5168 113.625 55.289C113.625 56.0467 113.501 56.7745 113.272 57.4547C112.6 59.4652 111.019 61.0621 109.019 61.754C108.434 61.9568 107.816 62.0842 107.172 62.1199V63.7465C107.923 63.7127 108.647 63.5815 109.335 63.3627C112.081 62.4937 114.227 60.2565 114.969 57.4547C115.152 56.7627 115.249 56.0368 115.249 55.289C115.249 50.62 111.451 46.8237 106.782 46.8237Z" fill="#78ACEA"/>
<path d="M109.399 62.8737C109.399 63.0427 109.375 63.2078 109.334 63.3629C109.119 64.1385 108.409 64.7071 107.566 64.7071C106.554 64.7071 105.732 63.8859 105.732 62.8737C105.732 61.8615 106.554 61.0403 107.566 61.0403C108.156 61.0403 108.681 61.3208 109.018 61.7542C109.258 62.0643 109.399 62.4521 109.399 62.8737Z" fill="#78ACEA"/>
<path d="M137.137 46.8237C132.468 46.8237 128.67 50.62 128.67 55.289H130.295C130.295 51.5168 133.365 48.4484 137.137 48.4484C140.91 48.4484 143.978 51.5168 143.978 55.289C143.978 56.0467 143.855 56.7745 143.626 57.4547C142.954 59.4652 141.373 61.0621 139.374 61.754C138.79 61.9568 138.169 62.0842 137.525 62.1199V63.7465C138.276 63.7127 139 63.5815 139.688 63.3627C142.437 62.4937 144.582 60.2565 145.324 57.4547C145.507 56.7627 145.604 56.0368 145.604 55.289C145.605 50.62 141.806 46.8237 137.137 46.8237Z" fill="#78ACEA"/>
<path d="M139.755 62.8737C139.755 63.0427 139.731 63.2078 139.689 63.3629C139.474 64.1385 138.766 64.7071 137.921 64.7071C136.909 64.7071 136.088 63.8859 136.088 62.8737C136.088 61.8615 136.909 61.0403 137.921 61.0403C138.514 61.0403 139.039 61.3208 139.375 61.7542C139.614 62.0643 139.755 62.4521 139.755 62.8737Z" fill="#78ACEA"/>
<path d="M167.497 46.8237C162.827 46.8237 159.029 50.62 159.029 55.289H160.654C160.654 51.5168 163.722 48.4484 167.497 48.4484C171.269 48.4484 174.337 51.5168 174.337 55.289C174.337 56.0467 174.214 56.7745 173.985 57.4547C173.313 59.4652 171.732 61.0621 169.734 61.754C169.149 61.9568 168.529 62.0842 167.884 62.1199V63.7465C168.634 63.7127 169.36 63.5815 170.048 63.3627C172.796 62.4918 174.94 60.2565 175.681 57.4547C175.864 56.7627 175.962 56.0368 175.962 55.289C175.962 50.62 172.164 46.8237 167.497 46.8237Z" fill="#78ACEA"/>
<path d="M170.114 62.8737C170.114 63.0427 170.09 63.2078 170.049 63.3629C169.834 64.1385 169.124 64.7071 168.281 64.7071C167.268 64.7071 166.447 63.8859 166.447 62.8737C166.447 61.8615 167.268 61.0403 168.281 61.0403C168.871 61.0403 169.396 61.3208 169.734 61.7542C169.973 62.0643 170.114 62.4521 170.114 62.8737Z" fill="#78ACEA"/>
<path d="M197.852 46.8237C193.183 46.8237 189.387 50.62 189.387 55.289H191.011C191.011 51.5168 194.08 48.4484 197.852 48.4484C201.624 48.4484 204.695 51.5168 204.695 55.289C204.695 56.0467 204.571 56.7745 204.343 57.4547C203.671 59.4652 202.09 61.0621 200.089 61.754C199.505 61.9568 198.886 62.0842 198.242 62.1199V63.7465C198.992 63.7127 199.717 63.5815 200.405 63.3627C203.154 62.4918 205.297 60.2565 206.039 57.4547C206.222 56.7627 206.319 56.0368 206.319 55.289C206.319 50.62 202.521 46.8237 197.852 46.8237Z" fill="#78ACEA"/>
<path d="M200.471 62.8737C200.471 63.0427 200.447 63.2078 200.406 63.3629C200.191 64.1385 199.481 64.7071 198.638 64.7071C197.626 64.7071 196.805 63.8859 196.805 62.8737C196.805 61.8615 197.626 61.0403 198.638 61.0403C199.229 61.0403 199.754 61.3208 200.09 61.7542C200.33 62.0643 200.471 62.4521 200.471 62.8737Z" fill="#78ACEA"/>
<path d="M228.21 46.8237C223.54 46.8237 219.742 50.62 219.742 55.289H221.367C221.367 51.5168 224.437 48.4484 228.209 48.4484C231.982 48.4484 235.05 51.5168 235.05 55.289C235.05 56.0467 234.927 56.7745 234.698 57.4547C234.026 59.4652 232.445 61.0621 230.445 61.754C229.862 61.9568 229.241 62.0842 228.597 62.1199V63.7465C229.349 63.7127 230.073 63.5815 230.761 63.3627C233.509 62.4937 235.655 60.2565 236.396 57.4547C236.58 56.7627 236.677 56.0368 236.677 55.289C236.677 50.62 232.879 46.8237 228.21 46.8237Z" fill="#78ACEA"/>
<path d="M230.827 62.8737C230.827 63.0427 230.803 63.2078 230.761 63.3629C230.547 64.1385 229.839 64.7071 228.994 64.7071C227.981 64.7071 227.16 63.8859 227.16 62.8737C227.16 61.8615 227.982 61.0403 228.994 61.0403C229.586 61.0403 230.111 61.3208 230.445 61.7542C230.686 62.0643 230.827 62.4521 230.827 62.8737Z" fill="#78ACEA"/>
<path d="M258.567 46.8237C253.898 46.8237 250.1 50.62 250.1 55.289H251.724C251.724 51.5168 254.793 48.4484 258.567 48.4484C262.339 48.4484 265.408 51.5168 265.408 55.289C265.408 56.0467 265.284 56.7745 265.056 57.4547C264.384 59.4652 262.802 61.0621 260.802 61.754C260.219 61.9568 259.599 62.0842 258.955 62.1199V63.7465C259.706 63.7127 260.43 63.5815 261.118 63.3627C263.864 62.4937 266.01 60.2565 266.752 57.4547C266.935 56.7627 267.032 56.0368 267.032 55.289C267.032 50.62 263.234 46.8237 258.567 46.8237Z" fill="#78ACEA"/>
<path d="M261.184 62.8737C261.184 63.0427 261.16 63.2078 261.119 63.3629C260.904 64.1385 260.194 64.7071 259.351 64.7071C258.339 64.7071 257.518 63.8859 257.518 62.8737C257.518 61.8615 258.339 61.0403 259.351 61.0403C259.942 61.0403 260.466 61.3208 260.803 61.7542C261.043 62.0643 261.184 62.4521 261.184 62.8737Z" fill="#78ACEA"/>
<path d="M288.923 46.8237C284.253 46.8237 280.457 50.62 280.457 55.289H282.082C282.082 51.5168 285.15 48.4484 288.923 48.4484C292.695 48.4484 295.765 51.5168 295.765 55.289C295.765 56.0467 295.642 56.7745 295.413 57.4547C294.741 59.4652 293.16 61.0621 291.16 61.754C290.575 61.9568 289.956 62.0842 289.312 62.1199V63.7465C290.064 63.7127 290.788 63.5815 291.476 63.3627C294.222 62.4937 296.368 60.2565 297.109 57.4547C297.292 56.7627 297.39 56.0368 297.39 55.289C297.39 50.62 293.592 46.8237 288.923 46.8237Z" fill="#78ACEA"/>
<path d="M291.54 62.8737C291.54 63.0427 291.516 63.2078 291.474 63.3629C291.26 64.1385 290.549 64.7071 289.706 64.7071C288.694 64.7071 287.873 63.8859 287.873 62.8737C287.873 61.8615 288.694 61.0403 289.706 61.0403C290.297 61.0403 290.822 61.3208 291.158 61.7542C291.399 62.0643 291.54 62.4521 291.54 62.8737Z" fill="#78ACEA"/>
<path d="M215.154 139.209H205.281C204.14 139.209 203.026 138.275 202.806 137.134L200.902 127.261C200.681 126.12 201.435 125.186 202.576 125.186H212.449C213.59 125.186 214.704 126.12 214.924 127.261L216.829 137.134C217.049 138.275 216.295 139.209 215.154 139.209Z" fill="#AFCDFB"/>
<path d="M240.066 139.209H230.194C229.052 139.209 227.938 138.275 227.718 137.134L225.814 127.261C225.593 126.12 226.347 125.186 227.488 125.186H237.361C238.502 125.186 239.616 126.12 239.836 127.261L241.741 137.134C241.961 138.275 241.208 139.209 240.066 139.209Z" fill="#AFCDFB"/>
<path d="M264.98 139.209H255.108C253.966 139.209 252.852 138.275 252.632 137.134L250.728 127.261C250.507 126.12 251.261 125.186 252.402 125.186H262.275C263.416 125.186 264.53 126.12 264.75 127.261L266.655 137.134C266.875 138.275 266.121 139.209 264.98 139.209Z" fill="#78ACEA"/>
<path d="M140.416 139.209H130.543C129.402 139.209 128.288 138.275 128.068 137.134L126.163 127.261C125.943 126.12 126.697 125.186 127.838 125.186H137.711C138.852 125.186 139.966 126.12 140.186 127.261L142.09 137.134C142.311 138.275 141.557 139.209 140.416 139.209Z" fill="#AFCDFB"/>
<path d="M129.596 109.569H125.354C124.863 109.569 124.385 109.168 124.29 108.678L123.472 104.435C123.377 103.944 123.701 103.543 124.191 103.543H128.434C128.924 103.543 129.403 103.944 129.497 104.435L130.316 108.678C130.411 109.168 130.087 109.569 129.596 109.569Z" fill="#FFEE00"/>
<path d="M165.33 139.209H155.457C154.316 139.209 153.202 138.275 152.982 137.134L151.077 127.261C150.857 126.12 151.611 125.186 152.752 125.186H162.625C163.766 125.186 164.88 126.12 165.1 127.261L167.004 137.134C167.225 138.275 166.471 139.209 165.33 139.209Z" fill="#AFCDFB"/>
<path d="M190.242 139.209H180.369C179.228 139.209 178.114 138.275 177.894 137.134L175.989 127.261C175.769 126.12 176.523 125.186 177.664 125.186H187.537C188.678 125.186 189.792 126.12 190.012 127.261L191.917 137.134C192.137 138.275 191.383 139.209 190.242 139.209Z" fill="#AFCDFB"/>
<path d="M289.892 139.209H280.019C278.878 139.209 277.764 138.275 277.544 137.134L275.64 127.261C275.42 126.12 276.173 125.186 277.314 125.186H287.187C288.329 125.186 289.442 126.12 289.662 127.261L291.567 137.134C291.787 138.275 291.033 139.209 289.892 139.209Z" fill="#78ACEA"/>
<path d="M211.019 117.766H201.147C200.005 117.766 198.891 116.833 198.671 115.691L196.767 105.819C196.547 104.677 197.3 103.744 198.441 103.744H208.314C209.455 103.744 210.569 104.677 210.79 105.819L212.694 115.691C212.914 116.833 212.161 117.766 211.019 117.766Z" fill="#AFCDFB"/>
<path d="M235.931 117.766H226.059C224.917 117.766 223.804 116.833 223.583 115.691L221.679 105.819C221.459 104.677 222.212 103.744 223.354 103.744H233.226C234.368 103.744 235.481 104.677 235.702 105.819L237.606 115.691C237.826 116.833 237.073 117.766 235.931 117.766Z" fill="#AFCDFB"/>
<path d="M260.843 117.766H250.971C249.829 117.766 248.716 116.833 248.495 115.691L246.591 105.819C246.371 104.677 247.125 103.744 248.266 103.744H258.138C259.28 103.744 260.393 104.677 260.614 105.819L262.518 115.691C262.738 116.833 261.985 117.766 260.843 117.766Z" fill="#78ACEA"/>
<path d="M285.756 117.766H275.883C274.742 117.766 273.628 116.833 273.408 115.691L271.503 105.819C271.283 104.677 272.037 103.744 273.178 103.744H283.051C284.192 103.744 285.306 104.677 285.526 105.819L287.43 115.691C287.651 116.833 286.897 117.766 285.756 117.766Z" fill="#78ACEA"/>
<path d="M219.537 161.936H209.664C208.523 161.936 207.409 161.002 207.189 159.861L205.284 149.988C205.064 148.847 205.818 147.913 206.959 147.913H216.832C217.973 147.913 219.087 148.847 219.307 149.988L221.211 159.861C221.432 161.002 220.678 161.936 219.537 161.936Z" fill="#AFCDFB"/>
<path d="M244.451 161.936H234.578C233.437 161.936 232.323 161.002 232.103 159.861L230.198 149.988C229.978 148.847 230.732 147.913 231.873 147.913H241.746C242.887 147.913 244.001 148.847 244.221 149.988L246.126 159.861C246.346 161.002 245.592 161.936 244.451 161.936Z" fill="#AFCDFB"/>
<path d="M269.363 161.936H259.49C258.349 161.936 257.235 161.002 257.015 159.861L255.11 149.988C254.89 148.847 255.644 147.913 256.785 147.913H266.658C267.799 147.913 268.913 148.847 269.133 149.988L271.038 159.861C271.258 161.002 270.504 161.936 269.363 161.936Z" fill="#78ACEA"/>
<path d="M144.8 161.936H134.928C133.787 161.936 132.673 161.002 132.452 159.861L130.548 149.988C130.328 148.847 131.082 147.913 132.223 147.913H142.095C143.237 147.913 144.351 148.847 144.571 149.988L146.475 159.861C146.695 161.002 145.942 161.936 144.8 161.936Z" fill="#AFCDFB"/>
<path d="M169.713 161.936H159.84C158.699 161.936 157.585 161.002 157.365 159.861L155.46 149.988C155.24 148.847 155.994 147.913 157.135 147.913H167.008C168.149 147.913 169.263 148.847 169.483 149.988L171.387 159.861C171.608 161.002 170.854 161.936 169.713 161.936Z" fill="#AFCDFB"/>
<path d="M194.625 161.936H184.752C183.611 161.936 182.497 161.002 182.277 159.861L180.372 149.988C180.152 148.847 180.906 147.913 182.047 147.913H191.92C193.061 147.913 194.175 148.847 194.395 149.988L196.3 159.861C196.52 161.002 195.766 161.936 194.625 161.936Z" fill="#AFCDFB"/>
<path d="M294.277 161.936H284.404C283.263 161.936 282.149 161.002 281.929 159.861L280.025 149.988C279.804 148.847 280.558 147.913 281.699 147.913H291.572C292.713 147.913 293.827 148.847 294.047 149.988L295.952 159.861C296.172 161.002 295.418 161.936 294.277 161.936Z" fill="#78ACEA"/>
<path d="M223.922 184.663H214.049C212.908 184.663 211.794 183.729 211.574 182.588L209.669 172.715C209.449 171.574 210.203 170.64 211.344 170.64H221.217C222.358 170.64 223.472 171.574 223.692 172.715L225.596 182.588C225.817 183.729 225.063 184.663 223.922 184.663Z" fill="#AFCDFB"/>
<path d="M248.834 184.663H238.961C237.82 184.663 236.706 183.729 236.486 182.588L234.581 172.715C234.361 171.574 235.115 170.64 236.256 170.64H246.128C247.27 170.64 248.384 171.574 248.604 172.715L250.508 182.588C250.729 183.729 249.975 184.663 248.834 184.663Z" fill="#AFCDFB"/>
<path d="M273.748 184.663H263.875C262.734 184.663 261.62 183.729 261.4 182.588L259.495 172.715C259.275 171.574 260.029 170.64 261.17 170.64H271.043C272.184 170.64 273.298 171.574 273.518 172.715L275.423 182.588C275.643 183.729 274.889 184.663 273.748 184.663Z" fill="#78ACEA"/>
<path d="M149.185 184.663H139.313C138.171 184.663 137.057 183.729 136.837 182.588L134.933 172.715C134.713 171.574 135.466 170.64 136.608 170.64H146.48C147.621 170.64 148.735 171.574 148.955 172.715L150.86 182.588C151.08 183.729 150.326 184.663 149.185 184.663Z" fill="#AFCDFB"/>
<path d="M174.097 184.663H164.225C163.083 184.663 161.969 183.729 161.749 182.588L159.845 172.715C159.625 171.574 160.378 170.64 161.52 170.64H171.392C172.533 170.64 173.647 171.574 173.868 172.715L175.772 182.588C175.992 183.729 175.238 184.663 174.097 184.663Z" fill="#FFEE00"/>
<path d="M199.009 184.663H189.137C187.995 184.663 186.882 183.729 186.661 182.588L184.757 172.715C184.537 171.574 185.291 170.64 186.432 170.64H196.304C197.446 170.64 198.56 171.574 198.78 172.715L200.684 182.588C200.904 183.729 200.151 184.663 199.009 184.663Z" fill="#AFCDFB"/>
<path d="M298.66 184.663H288.787C287.646 184.663 286.532 183.729 286.312 182.588L284.407 172.715C284.187 171.574 284.941 170.64 286.082 170.64H295.955C297.096 170.64 298.21 171.574 298.43 172.715L300.335 182.588C300.555 183.729 299.801 184.663 298.66 184.663Z" fill="#78ACEA"/>
<path d="M228.058 206.105H218.186C217.044 206.105 215.93 205.171 215.71 204.03L213.806 194.157C213.586 193.016 214.339 192.082 215.481 192.082H225.353C226.495 192.082 227.608 193.016 227.829 194.157L229.733 204.03C229.953 205.171 229.2 206.105 228.058 206.105Z" fill="#AFCDFB"/>
<path d="M252.972 206.105H243.1C241.958 206.105 240.845 205.171 240.624 204.03L238.72 194.157C238.5 193.016 239.253 192.082 240.395 192.082H250.267C251.409 192.082 252.523 193.016 252.743 194.157L254.647 204.03C254.867 205.171 254.114 206.105 252.972 206.105Z" fill="#AFCDFB"/>
<path d="M277.884 206.105H268.012C266.87 206.105 265.757 205.171 265.536 204.03L263.632 194.157C263.412 193.016 264.166 192.082 265.307 192.082H275.179C276.321 192.082 277.434 193.016 277.655 194.157L279.559 204.03C279.779 205.171 279.026 206.105 277.884 206.105Z" fill="#78ACEA"/>
<path d="M153.32 206.105H143.447C142.306 206.105 141.192 205.171 140.972 204.03L139.068 194.157C138.847 193.016 139.601 192.082 140.742 192.082H150.615C151.756 192.082 152.87 193.016 153.09 194.157L154.995 204.03C155.215 205.171 154.461 206.105 153.32 206.105Z" fill="#AFCDFB"/>
<path d="M178.232 206.105H168.359C167.218 206.105 166.104 205.171 165.884 204.03L163.98 194.157C163.759 193.016 164.513 192.082 165.655 192.082H175.527C176.669 192.082 177.782 193.016 178.002 194.157L179.907 204.03C180.127 205.171 179.373 206.105 178.232 206.105Z" fill="#AFCDFB"/>
<path d="M203.146 206.105H193.274C192.132 206.105 191.018 205.171 190.798 204.03L188.894 194.157C188.673 193.016 189.427 192.082 190.569 192.082H200.441C201.582 192.082 202.696 193.016 202.917 194.157L204.821 204.03C205.041 205.171 204.287 206.105 203.146 206.105Z" fill="#AFCDFB"/>
<path d="M159.52 105.673H133.365C132.98 105.673 132.664 105.358 132.664 104.972C132.664 104.587 132.98 104.272 133.365 104.272H159.52C159.905 104.272 160.221 104.587 160.221 104.972C160.221 105.358 159.906 105.673 159.52 105.673Z" fill="#AFCDFB"/>
<path d="M160.315 108.841H134.16C133.774 108.841 133.459 108.525 133.459 108.14C133.459 107.755 133.774 107.439 134.16 107.439H160.315C160.7 107.439 161.016 107.755 161.016 108.14C161.016 108.525 160.7 108.841 160.315 108.841Z" fill="#AFCDFB"/>
<path d="M131.468 82.0853H122.493C121.758 82.0853 121.156 81.4838 121.156 80.7486C121.156 80.0134 121.758 79.4119 122.493 79.4119H131.468C132.204 79.4119 132.805 80.0134 132.805 80.7486C132.805 81.4838 132.204 82.0853 131.468 82.0853Z" fill="white"/>
<path d="M156.095 82.0853H147.12C146.385 82.0853 145.783 81.4838 145.783 80.7486C145.783 80.0134 146.385 79.4119 147.12 79.4119H156.095C156.83 79.4119 157.432 80.0134 157.432 80.7486C157.432 81.4838 156.831 82.0853 156.095 82.0853Z" fill="white"/>
<path d="M180.724 82.0853H171.749C171.014 82.0853 170.412 81.4838 170.412 80.7486C170.412 80.0134 171.014 79.4119 171.749 79.4119H180.724C181.459 79.4119 182.061 80.0134 182.061 80.7486C182.061 81.4838 181.459 82.0853 180.724 82.0853Z" fill="white"/>
<path d="M205.351 82.0853H196.376C195.641 82.0853 195.039 81.4838 195.039 80.7486C195.039 80.0134 195.641 79.4119 196.376 79.4119H205.351C206.087 79.4119 206.688 80.0134 206.688 80.7486C206.688 81.4838 206.086 82.0853 205.351 82.0853Z" fill="white"/>
<path d="M229.978 82.0853H221.003C220.267 82.0853 219.666 81.4838 219.666 80.7486C219.666 80.0134 220.267 79.4119 221.003 79.4119H229.978C230.713 79.4119 231.315 80.0134 231.315 80.7486C231.315 81.4838 230.713 82.0853 229.978 82.0853Z" fill="white"/>
<path d="M254.607 82.0853H245.632C244.896 82.0853 244.295 81.4838 244.295 80.7486C244.295 80.0134 244.896 79.4119 245.632 79.4119H254.607C255.342 79.4119 255.944 80.0134 255.944 80.7486C255.944 81.4838 255.342 82.0853 254.607 82.0853Z" fill="white"/>
<path d="M279.234 82.0853H270.259C269.523 82.0853 268.922 81.4838 268.922 80.7486C268.922 80.0134 269.523 79.4119 270.259 79.4119H279.234C279.969 79.4119 280.571 80.0134 280.571 80.7486C280.571 81.4838 279.969 82.0853 279.234 82.0853Z" fill="white"/>
<path d="M222.47 117.961C220.488 117.961 219.045 117.332 218.258 116.111C216.75 113.77 217.914 110.488 221.719 106.357C224.498 103.34 227.742 100.949 227.775 100.925C227.902 100.832 228.082 100.859 228.175 100.987C228.269 101.114 228.241 101.294 228.113 101.387C227.987 101.48 215.48 110.74 218.74 115.801C219.773 117.404 221.983 117.51 223.659 117.316C226.757 116.958 230.798 115.289 234.466 112.852C238.264 110.33 240.939 107.487 241.806 105.053C242.374 103.456 242.198 102.325 241.282 101.691C240.099 100.872 237.628 100.872 234.671 101.689C231.839 102.472 228.989 103.881 227.232 105.368C227.112 105.47 226.931 105.455 226.828 105.334C226.726 105.213 226.741 105.033 226.862 104.93C228.678 103.394 231.611 101.941 234.518 101.137C237.683 100.262 240.267 100.292 241.608 101.22C242.403 101.77 243.175 102.915 242.345 105.245C241.438 107.794 238.682 110.74 234.783 113.329C231.043 115.814 226.908 117.517 223.724 117.885C223.285 117.936 222.867 117.961 222.47 117.961Z" fill="#267A17"/>
<path d="M274.294 101.686L273.275 99.7639C273.275 99.7639 273.781 96.3385 269.489 94.1719C269.489 94.1719 267.92 93.5332 267.035 94.8125C266.219 95.9908 268.589 95.7779 268.462 97.7939C268.335 99.8099 269.291 100.993 270.623 101.649L271.724 102.924L274.294 101.686Z" fill="#FFB27D"/>
<path d="M314.854 97.0907C314.854 97.0907 311.168 115.181 290.885 121.092C284.554 122.937 270.17 102.092 270.17 102.092C270.17 102.092 270.675 100.17 273.844 100.612C273.844 100.612 287.849 109.884 289.612 110.891C291.177 111.785 301.466 99.402 306.156 97.4047C310.847 95.4072 314.854 97.0907 314.854 97.0907Z" fill="#233862"/>
<path d="M255.556 96.7617L256.369 101.151L278.447 97.062L277.634 92.6731L255.556 96.7617Z" fill="#C65447"/>
<path d="M250.82 99.9113L256.359 101.155L255.547 96.7666L250.82 99.9113Z" fill="#FFB27D"/>
<path d="M280.459 93.659L280.716 95.0465C280.874 95.8999 280.311 96.7199 279.457 96.8781L278.436 97.0673L277.623 92.6786L278.734 92.4728C279.538 92.3237 280.31 92.8549 280.459 93.659Z" fill="#FFB27D"/>
<path d="M339.069 210.811C339.069 210.811 341.585 213.108 341.094 214.739C340.603 216.371 338.332 217.459 338.025 219.453C337.718 221.447 336.491 222.535 335.386 222.535C334.282 222.535 330.12 222.535 330.12 222.535C330.12 222.535 329.307 221.131 331.271 220.708C333.234 220.285 333.975 217.942 333.852 215.767C333.729 213.591 334.036 210.691 334.036 210.691L338.21 209.724L339.069 210.811Z" fill="#233862"/>
<path d="M308.2 216.751C308.2 216.751 308.652 221.976 307.547 222.52L293.41 222.491C293.41 222.491 293.41 220.86 295.681 220.497C297.951 220.135 301.941 218.805 302.616 215.844C303.291 212.883 308.2 216.751 308.2 216.751Z" fill="#233862"/>
<path d="M296.264 142.93C296.264 142.93 297.009 152.091 297.886 163.102C299.077 178.06 300.509 196.433 300.651 199.914C300.896 205.958 301.879 215.626 301.879 215.626C301.879 215.626 304.21 217.923 308.875 216.955C308.875 216.955 313.033 203.154 314.22 188.551C314.239 188.312 314.257 188.071 314.275 187.83C315.38 172.964 317.098 141.661 317.098 141.661L296.264 142.93Z" fill="#FFDB4D"/>
<path d="M296.264 142.93C296.264 142.93 297.009 152.091 297.886 163.102L314.22 188.551C314.239 188.312 314.257 188.071 314.275 187.83C315.38 172.964 317.098 141.661 317.098 141.661L296.264 142.93Z" fill="#C4B700"/>
<path d="M299.67 144.018C299.67 144.018 313.11 177.193 321.947 192.784C330.785 208.375 333.546 212.726 333.546 212.726C333.546 212.726 338.609 210.731 339.07 209.372C339.07 209.372 335.69 179.273 329.772 171.936C326.428 167.79 322.5 155.348 322.316 150.998C322.131 146.647 321.119 138.036 321.119 138.036L299.67 144.018Z" fill="#FFDB4D"/>
<path d="M317.352 92.8922C317.352 92.8922 308.258 97.2799 303.016 95.6521C303.016 95.6521 304.306 94.024 306.564 92.8128C306.383 91.7605 306.242 90.8471 306.161 90.0729C305.939 88.286 305.939 87.2735 305.939 87.2735L309.448 84.514L312.775 81.8733C312.513 89.2985 317.352 92.8922 317.352 92.8922Z" fill="#FFB27D"/>
<path d="M295.69 143.687C295.85 143.826 296.032 143.904 296.235 143.904C298.211 143.864 303.957 144.956 308.815 144.46C312.929 144.063 316.559 142.872 320.45 141.166C320.975 140.927 322.166 140.291 322.144 139.736C322.123 139.101 322.064 138.208 321.984 137.054C321.821 134.786 321.591 131.565 321.518 127.747C321.464 124.916 321.495 121.757 321.7 118.411C321.712 118.187 321.724 117.96 321.733 117.733C321.792 116.507 321.821 115.271 321.821 114.063C321.842 110.172 321.561 106.46 320.996 103.144C320.006 97.3861 318.151 92.8801 315.41 90.874C315.046 90.5953 312.787 91.6869 310.692 92.7005C308.775 93.6337 306.861 93.733 305.047 93.3762L303.232 94.964C301.032 96.9678 298.612 99.7276 297.544 103.898C296.658 107.433 296.134 113.825 295.85 120.457C295.711 123.474 295.609 126.492 295.569 129.37V129.469C295.548 129.767 295.548 130.067 295.548 130.365C295.449 137.73 295.548 143.588 295.69 143.687Z" fill="#2B478B"/>
<path d="M312.835 84.7123C312.835 84.7123 310.537 88.9014 306.161 90.0728C305.939 88.2859 305.939 87.2734 305.939 87.2734L309.448 84.5139L312.835 84.7123Z" fill="#ED985F"/>
<path d="M304.339 87.1524C304.339 87.1524 313.014 88.5716 313.829 83.2384C314.643 77.9053 316.311 74.4966 310.807 73.3651C305.302 72.2336 303.913 74.109 303.201 75.824C302.49 77.5389 302.103 86.6458 304.339 87.1524Z" fill="#FFB27D"/>
<path d="M316.983 72.7265C317.062 72.6362 317.243 72.5634 317.647 72.5413C317.647 72.5413 317.324 72.3392 316.892 72.3286C316.808 71.7664 316.509 70.7715 315.541 70.5297C315.541 70.5297 316.061 70.8068 316.129 71.4046C315.008 70.2537 312.607 69.4161 305.959 69.9408C297.197 70.6324 300.085 76.2424 301.219 76.9112C302.353 77.58 305.208 75.7466 307.322 75.9142C309.436 76.082 309.837 79.1359 310.555 79.5549C311.271 79.974 310.99 79.2329 311.96 78.7944C312.93 78.3559 313.022 79.9634 312.742 81.0085C312.461 82.0536 313.794 83.4323 313.794 83.4323C313.794 83.4323 313.794 83.4323 315.141 81.9816C316.488 80.531 317.758 74.3867 317.145 73.077C317.091 72.9615 317.038 72.8444 316.983 72.7265Z" fill="#2C3A64"/>
<path d="M273.256 99.6726C273.256 99.6726 273.555 98.4937 272.737 97.9636C271.919 97.4335 271.166 95.9922 270.822 96.1875C270.107 96.5918 271.212 97.8495 271.01 99.4183C270.939 99.9677 272.218 101.407 273.256 99.6726Z" fill="#FFB27D"/>
<path d="M321.518 127.747C321.464 124.916 321.495 121.757 321.7 118.411C321.712 118.187 321.724 117.96 321.733 117.733C320.909 113.647 319.661 110.023 317.825 109.905C317.825 109.905 312.355 118.501 321.518 127.747Z" fill="#233862"/>
<path d="M328.755 142.57C328.755 142.57 328.299 147.003 327.799 147.842C327.298 148.68 325.168 151.359 324.261 151.885C323.353 152.411 324.815 148.355 324.63 147.566C324.445 146.776 323.883 149.006 323.483 149.058C323.083 149.111 323.186 147.104 323.172 146.374C323.158 145.643 325.118 143.84 325.809 142.285C326.5 140.73 328.755 142.57 328.755 142.57Z" fill="#FFB27D"/>
<path d="M315.406 90.8298C315.406 90.8298 320.896 93.4289 323.527 97.4248C327.61 103.623 332.341 126.212 332.429 128.304C332.516 130.396 328.975 145.163 328.975 145.163C328.975 145.163 325.384 144.927 324.457 143.114C324.457 143.114 325.175 127.94 324.72 126.965C324.265 125.99 309.747 106.611 311.38 102.476C313.012 98.3411 315.406 90.8298 315.406 90.8298Z" fill="#2B478B"/>
<path d="M253.659 98.0229L253.948 100.614L250.82 99.9114L253.659 98.0229Z" fill="#C65447"/>
<path d="M11.3435 221.699C10.5052 220.382 7.98244 216.965 4.62207 217.417C0.961011 217.91 8.66553 220.324 11.0244 221.709C10.5005 221.717 10.0502 221.675 9.71933 221.557C8.14237 220.995 5.44156 222.073 4.57817 222.451H19.5911C19.4872 222.092 19.2168 221.505 18.5175 221.078C18.271 220.927 17.7756 220.907 17.1359 220.955C18.0285 219.903 18.6484 216.541 16.1634 217.406C14.348 218.038 14.3528 220.092 14.5311 221.307C14.1448 221.368 13.7532 221.429 13.3661 221.485C12.6187 217.675 9.9749 206.511 4.6165 206.213C-0.815778 205.912 9.22301 217.792 12.5654 221.591C12.1377 221.643 11.7254 221.682 11.3435 221.699Z" fill="#82B378"/>
</svg>
