<svg width="237" height="117" viewBox="0 0 237 117" fill="none" xmlns="http://www.w3.org/2000/svg">
<path d="M218.054 69.0964C211.007 77.9446 201.785 84.9506 189.984 85.8069C179.333 86.5798 170.755 81 174.539 69.4682C176.33 64.0093 182.102 58.7341 188.175 59.5612C194.941 60.4827 192.489 69.0921 189.348 72.3582C182.012 79.9868 168.917 81.7523 159.942 74.4087C149.313 65.7123 159.843 56.2929 159.879 56.3797" stroke="#FFCC00" stroke-width="2.43636" stroke-miterlimit="1.5" stroke-linecap="round" stroke-linejoin="round"/>
<path d="M219.798 81.5778C219.119 80.5271 218.949 79.3113 218.716 78.1067C217.953 74.1517 218.396 69.6483 220.614 66.1797C217.157 68.9969 211.719 71.4892 207.304 69.9175" stroke="#FFCC00" stroke-width="2.43636" stroke-miterlimit="1.5" stroke-linecap="round" stroke-linejoin="round"/>
<path d="M51.1653 18.126C50.9493 18.126 50.7633 18.03 50.6073 17.838C50.4633 17.646 50.3913 17.31 50.3913 16.83C50.3913 16.554 50.4453 16.23 50.5533 15.858C50.7933 15.102 51.0393 14.292 51.2913 13.428C51.5553 12.564 51.8013 11.682 52.0293 10.782C52.2693 9.882 52.4613 9.012 52.6053 8.172C52.7493 7.32 52.8213 6.54 52.8213 5.832C52.8213 5.592 52.8093 5.358 52.7853 5.13C52.7733 4.902 52.7433 4.686 52.6953 4.482C51.4833 5.634 50.3613 7.2 49.3293 9.18C48.3093 11.148 47.3793 13.44 46.5393 16.056C46.3953 16.452 46.2153 16.728 45.9993 16.884C45.7833 17.04 45.5793 17.118 45.3873 17.118C45.2193 17.118 45.0573 17.052 44.9013 16.92C44.7453 16.776 44.6673 16.56 44.6673 16.272C44.6673 16.08 44.7153 15.81 44.8113 15.462C44.9073 15.102 45.0753 14.772 45.3153 14.472C45.4473 13.68 45.5553 12.84 45.6393 11.952C45.7353 11.064 45.7833 10.242 45.7833 9.486C45.7833 9.138 45.7653 8.814 45.7293 8.514C45.7053 8.202 45.6633 7.932 45.6033 7.704C44.9793 8.364 44.3973 9.192 43.8573 10.188C43.3293 11.172 42.8613 12.234 42.4533 13.374C42.0453 14.502 41.7033 15.606 41.4273 16.686C41.2113 17.466 40.8633 17.856 40.3833 17.856C40.1913 17.856 40.0293 17.754 39.8973 17.55C39.7773 17.346 39.7173 17.04 39.7173 16.632C39.7173 16.236 39.8133 15.702 40.0053 15.03C40.1973 14.358 40.4553 13.62 40.7793 12.816C41.1153 12.012 41.4873 11.214 41.8953 10.422C42.3153 9.618 42.7473 8.886 43.1913 8.226C43.6473 7.554 44.0913 7.014 44.5233 6.606C44.9553 6.198 45.3453 5.994 45.6933 5.994C45.9213 5.994 46.1253 6.036 46.3053 6.12C46.4853 6.204 46.6413 6.378 46.7733 6.642C46.9053 6.894 47.0013 7.284 47.0613 7.812C47.1333 8.328 47.1693 9.018 47.1693 9.882C47.1693 10.038 47.1693 10.218 47.1693 10.422C47.5173 9.462 47.9193 8.532 48.3753 7.632C48.8433 6.72 49.3353 5.904 49.8513 5.184C50.3673 4.464 50.8833 3.894 51.3993 3.474C51.9153 3.054 52.4013 2.844 52.8573 2.844C53.3733 2.844 53.7933 3.126 54.1173 3.69C54.4413 4.242 54.6033 5.112 54.6033 6.3C54.6033 7.428 54.5133 8.526 54.3333 9.594C54.1533 10.662 53.9253 11.67 53.6493 12.618C53.3853 13.566 53.1093 14.43 52.8213 15.21C52.5453 15.978 52.3053 16.638 52.1013 17.19C51.9693 17.526 51.8313 17.766 51.6873 17.91C51.5433 18.054 51.3693 18.126 51.1653 18.126ZM63.4803 18.432C63.2763 18.432 63.1023 18.342 62.9583 18.162C62.8143 17.982 62.7423 17.718 62.7423 17.37C62.7423 16.962 62.8023 16.38 62.9223 15.624C63.0543 14.868 63.2463 13.866 63.4983 12.618C63.1743 13.386 62.8143 14.112 62.4183 14.796C62.0343 15.48 61.6263 16.038 61.1943 16.47C60.7623 16.902 60.3183 17.118 59.8623 17.118C59.4183 17.118 59.0223 16.944 58.6743 16.596C58.3383 16.248 58.1703 15.636 58.1703 14.76C58.1703 14.268 58.2123 13.716 58.2963 13.104C58.3803 12.48 58.4883 11.862 58.6203 11.25C58.7523 10.638 58.8843 10.092 59.0163 9.612C59.1483 9.12 59.2683 8.76 59.3763 8.532C59.4603 8.34 59.5443 8.214 59.6283 8.154C59.7123 8.082 59.8263 8.046 59.9703 8.046C60.1383 8.046 60.3183 8.118 60.5103 8.262C60.7023 8.406 60.7983 8.646 60.7983 8.982C60.7983 9.066 60.7563 9.264 60.6723 9.576C60.6003 9.876 60.5043 10.248 60.3843 10.692C60.2763 11.124 60.1623 11.592 60.0423 12.096C59.9223 12.6 59.8203 13.104 59.7363 13.608C59.6643 14.112 59.6283 14.574 59.6283 14.994C59.6283 15.222 59.6523 15.408 59.7003 15.552C59.7483 15.696 59.8683 15.768 60.0603 15.768C60.2283 15.768 60.4383 15.6 60.6903 15.264C60.9543 14.928 61.2363 14.484 61.5363 13.932C61.8483 13.368 62.1663 12.744 62.4903 12.06C62.8263 11.376 63.1503 10.674 63.4623 9.954C63.7863 9.234 64.0803 8.55 64.3443 7.902C64.4403 7.686 64.5423 7.554 64.6503 7.506C64.7583 7.446 64.8783 7.416 65.0103 7.416C65.2263 7.416 65.4183 7.506 65.5863 7.686C65.7663 7.854 65.8563 8.076 65.8563 8.352C65.8563 8.532 65.8203 8.844 65.7483 9.288C65.6883 9.732 65.5983 10.254 65.4783 10.854C65.3703 11.442 65.2443 12.066 65.1003 12.726C64.9683 13.386 64.8363 14.04 64.7043 14.688C64.5723 15.324 64.4463 15.906 64.3263 16.434C64.2183 16.962 64.1283 17.388 64.0563 17.712C63.9963 18.012 63.9123 18.204 63.8043 18.288C63.7083 18.384 63.6003 18.432 63.4803 18.432ZM70.7767 18.396C70.5127 18.396 70.3087 18.318 70.1647 18.162C70.0327 18.018 69.9667 17.85 69.9667 17.658C69.9667 17.49 70.0387 17.334 70.1827 17.19C70.3387 17.034 70.5487 16.896 70.8127 16.776C71.2927 16.524 71.7427 16.272 72.1627 16.02C72.5947 15.768 72.9427 15.498 73.2067 15.21C73.4707 14.922 73.6027 14.616 73.6027 14.292C73.6027 14.016 73.5127 13.806 73.3327 13.662C73.1527 13.506 72.9067 13.428 72.5947 13.428C72.4147 13.428 72.1627 13.464 71.8387 13.536C71.5147 13.596 71.1607 13.668 70.7767 13.752C70.4047 13.824 70.0387 13.896 69.6787 13.968C69.3187 14.028 69.0127 14.058 68.7607 14.058C68.3047 14.058 67.9627 13.95 67.7347 13.734C67.5067 13.506 67.3927 13.2 67.3927 12.816C67.3927 12.624 67.5067 12.336 67.7347 11.952C67.9627 11.568 68.2627 11.142 68.6347 10.674C69.0187 10.194 69.4387 9.714 69.8947 9.234C70.3507 8.754 70.8127 8.31 71.2807 7.902C71.7607 7.494 72.2047 7.164 72.6127 6.912C73.0327 6.66 73.3807 6.534 73.6567 6.534C73.9327 6.534 74.1427 6.624 74.2867 6.804C74.4307 6.984 74.5027 7.212 74.5027 7.488C74.5027 7.704 74.4667 7.89 74.3947 8.046C74.3227 8.19 74.1727 8.304 73.9447 8.388C73.7287 8.472 73.3927 8.52 72.9367 8.532C72.4687 8.904 71.9707 9.33 71.4427 9.81C70.9267 10.278 70.4527 10.764 70.0207 11.268C69.6007 11.76 69.2947 12.234 69.1027 12.69C69.4987 12.558 69.9787 12.444 70.5427 12.348C71.1187 12.24 71.7007 12.186 72.2887 12.186C73.2127 12.186 73.8967 12.396 74.3407 12.816C74.7967 13.224 75.0247 13.764 75.0247 14.436C75.0247 14.868 74.8867 15.318 74.6107 15.786C74.3467 16.242 73.9987 16.668 73.5667 17.064C73.1347 17.46 72.6727 17.778 72.1807 18.018C71.6887 18.27 71.2207 18.396 70.7767 18.396ZM84.1755 10.242C84.1755 10.626 84.0555 11.004 83.8155 11.376C83.5755 11.736 83.2575 12.084 82.8615 12.42C82.4655 12.744 82.0275 13.05 81.5475 13.338C81.0675 13.626 80.5875 13.878 80.1075 14.094C79.6275 14.31 79.1895 14.484 78.7935 14.616C78.6975 15.084 78.6495 15.498 78.6495 15.858C78.6495 16.086 78.7035 16.248 78.8115 16.344C78.9195 16.44 79.0875 16.488 79.3155 16.488C79.8195 16.488 80.3535 16.398 80.9175 16.218C81.4815 16.038 82.0575 15.804 82.6455 15.516C83.2335 15.228 83.7975 14.922 84.3375 14.598C84.8775 14.274 85.3695 13.968 85.8135 13.68C86.2695 13.392 86.6475 13.158 86.9475 12.978C87.2475 12.798 87.4455 12.708 87.5415 12.708C87.6855 12.708 87.7935 12.756 87.8655 12.852C87.9495 12.936 87.9915 13.038 87.9915 13.158C87.9915 13.254 87.8415 13.44 87.5415 13.716C87.2535 13.992 86.8635 14.316 86.3715 14.688C85.8795 15.048 85.3275 15.42 84.7155 15.804C84.1035 16.188 83.4675 16.548 82.8075 16.884C82.1595 17.22 81.5295 17.49 80.9175 17.694C80.3175 17.898 79.7775 18 79.2975 18C78.6735 18 78.1875 17.766 77.8395 17.298C77.4915 16.83 77.3175 16.104 77.3175 15.12C77.3175 14.46 77.4015 13.794 77.5695 13.122C77.7495 12.45 77.9895 11.808 78.2895 11.196C78.6015 10.572 78.9435 10.02 79.3155 9.54C79.6995 9.048 80.1015 8.664 80.5215 8.388C80.9415 8.1 81.3495 7.956 81.7455 7.956C82.5015 7.956 83.0955 8.166 83.5275 8.586C83.9595 9.006 84.1755 9.558 84.1755 10.242ZM79.1715 13.23C79.5435 13.002 79.9275 12.762 80.3235 12.51C80.7195 12.258 81.0855 12 81.4215 11.736C81.7575 11.472 82.0275 11.196 82.2315 10.908C82.4475 10.608 82.5555 10.302 82.5555 9.99C82.5555 9.546 82.3155 9.324 81.8355 9.324C81.5355 9.324 81.2175 9.516 80.8815 9.9C80.5575 10.272 80.2455 10.758 79.9455 11.358C79.6455 11.958 79.3875 12.582 79.1715 13.23ZM92.1326 18.432C91.9286 18.432 91.7546 18.342 91.6106 18.162C91.4666 17.982 91.3946 17.718 91.3946 17.37C91.3946 16.962 91.4546 16.38 91.5746 15.624C91.7066 14.868 91.8986 13.866 92.1506 12.618C91.8266 13.386 91.4666 14.112 91.0706 14.796C90.6866 15.48 90.2786 16.038 89.8466 16.47C89.4146 16.902 88.9706 17.118 88.5146 17.118C88.0706 17.118 87.6746 16.944 87.3266 16.596C86.9906 16.248 86.8226 15.636 86.8226 14.76C86.8226 14.268 86.8646 13.716 86.9486 13.104C87.0326 12.48 87.1406 11.862 87.2726 11.25C87.4046 10.638 87.5366 10.092 87.6686 9.612C87.8006 9.12 87.9206 8.76 88.0286 8.532C88.1126 8.34 88.1966 8.214 88.2806 8.154C88.3646 8.082 88.4786 8.046 88.6226 8.046C88.7906 8.046 88.9706 8.118 89.1626 8.262C89.3546 8.406 89.4506 8.646 89.4506 8.982C89.4506 9.066 89.4086 9.264 89.3246 9.576C89.2526 9.876 89.1566 10.248 89.0366 10.692C88.9286 11.124 88.8146 11.592 88.6946 12.096C88.5746 12.6 88.4726 13.104 88.3886 13.608C88.3166 14.112 88.2806 14.574 88.2806 14.994C88.2806 15.222 88.3046 15.408 88.3526 15.552C88.4006 15.696 88.5206 15.768 88.7126 15.768C88.8806 15.768 89.0906 15.6 89.3426 15.264C89.6066 14.928 89.8886 14.484 90.1886 13.932C90.5006 13.368 90.8186 12.744 91.1426 12.06C91.4786 11.376 91.8026 10.674 92.1146 9.954C92.4386 9.234 92.7326 8.55 92.9966 7.902C93.0926 7.686 93.1946 7.554 93.3026 7.506C93.4106 7.446 93.5306 7.416 93.6626 7.416C93.8786 7.416 94.0706 7.506 94.2386 7.686C94.4186 7.854 94.5086 8.076 94.5086 8.352C94.5086 8.532 94.4726 8.844 94.4006 9.288C94.3406 9.732 94.2506 10.254 94.1306 10.854C94.0226 11.442 93.8966 12.066 93.7526 12.726C93.6206 13.386 93.4886 14.04 93.3566 14.688C93.2246 15.324 93.0986 15.906 92.9786 16.434C92.8706 16.962 92.7806 17.388 92.7086 17.712C92.6486 18.012 92.5646 18.204 92.4566 18.288C92.3606 18.384 92.2526 18.432 92.1326 18.432ZM110.875 17.46C110.863 17.652 110.785 17.808 110.641 17.928C110.497 18.048 110.329 18.108 110.137 18.108C109.921 18.108 109.741 18.036 109.597 17.892C109.453 17.748 109.381 17.526 109.381 17.226C109.381 16.446 109.417 15.6 109.489 14.688C109.561 13.764 109.651 12.852 109.759 11.952C109.867 11.04 109.975 10.2 110.083 9.432C109.687 9.996 109.255 10.62 108.787 11.304C108.331 11.988 107.863 12.666 107.383 13.338C106.903 14.01 106.435 14.628 105.979 15.192C105.523 15.744 105.109 16.194 104.737 16.542C104.365 16.878 104.059 17.046 103.819 17.046C103.375 17.046 102.991 16.872 102.667 16.524C102.343 16.164 102.181 15.714 102.181 15.174C102.181 14.958 102.205 14.664 102.253 14.292C102.301 13.908 102.355 13.506 102.415 13.086C102.475 12.666 102.529 12.276 102.577 11.916C102.625 11.544 102.649 11.268 102.649 11.088C102.649 10.92 102.631 10.776 102.595 10.656C102.571 10.524 102.511 10.458 102.415 10.458C102.271 10.458 102.073 10.62 101.821 10.944C101.569 11.256 101.287 11.658 100.975 12.15C100.675 12.642 100.363 13.164 100.039 13.716C99.727 14.268 99.433 14.79 99.157 15.282C98.881 15.762 98.647 16.14 98.455 16.416C98.299 16.68 98.155 16.872 98.023 16.992C97.891 17.112 97.729 17.172 97.537 17.172C97.309 17.172 97.099 17.052 96.907 16.812C96.727 16.572 96.637 16.278 96.637 15.93C96.637 15.726 96.673 15.408 96.745 14.976C96.817 14.532 96.907 14.046 97.015 13.518C97.135 12.99 97.249 12.474 97.357 11.97C97.477 11.454 97.579 11.016 97.663 10.656C97.759 10.248 97.879 9.972 98.023 9.828C98.167 9.684 98.323 9.612 98.491 9.612C98.719 9.612 98.899 9.696 99.031 9.864C99.175 10.02 99.247 10.266 99.247 10.602C99.247 10.662 99.211 10.824 99.139 11.088C99.067 11.34 98.977 11.652 98.869 12.024C98.773 12.384 98.665 12.762 98.545 13.158C98.437 13.554 98.347 13.92 98.275 14.256C98.539 13.812 98.815 13.332 99.103 12.816C99.403 12.3 99.703 11.79 100.003 11.286C100.303 10.77 100.603 10.302 100.903 9.882C101.203 9.45 101.497 9.108 101.785 8.856C102.073 8.604 102.349 8.478 102.613 8.478C102.925 8.478 103.213 8.574 103.477 8.766C103.753 8.958 103.975 9.216 104.143 9.54C104.311 9.864 104.395 10.224 104.395 10.62C104.395 10.896 104.347 11.286 104.251 11.79C104.155 12.282 104.053 12.816 103.945 13.392C103.849 13.968 103.789 14.514 103.765 15.03C103.765 15.15 103.801 15.21 103.873 15.21C103.933 15.21 104.005 15.168 104.089 15.084C104.437 14.7 104.821 14.238 105.241 13.698C105.661 13.146 106.087 12.564 106.519 11.952C106.963 11.34 107.401 10.74 107.833 10.152C108.265 9.552 108.667 9.012 109.039 8.532C109.423 8.04 109.759 7.65 110.047 7.362C110.347 7.074 110.581 6.93 110.749 6.93C111.109 6.93 111.385 7.032 111.577 7.236C111.769 7.44 111.865 7.782 111.865 8.262C111.865 8.646 111.835 9.144 111.775 9.756C111.727 10.368 111.661 11.034 111.577 11.754C111.505 12.474 111.421 13.2 111.325 13.932C111.241 14.652 111.157 15.324 111.073 15.948C110.989 16.56 110.923 17.064 110.875 17.46ZM115.376 11.7C115.052 11.7 114.764 11.628 114.512 11.484C114.272 11.328 114.152 11.16 114.152 10.98C114.152 10.872 114.338 10.752 114.71 10.62C115.094 10.476 115.592 10.338 116.204 10.206C116.816 10.074 117.482 9.966 118.202 9.882C118.934 9.798 119.648 9.756 120.344 9.756C120.944 9.756 121.358 9.834 121.586 9.99C121.814 10.134 121.928 10.296 121.928 10.476C121.928 10.62 121.718 10.77 121.298 10.926C120.89 11.07 120.356 11.202 119.696 11.322C119.048 11.43 118.34 11.52 117.572 11.592C116.816 11.664 116.084 11.7 115.376 11.7ZM124.301 22.752C123.377 22.752 122.699 22.662 122.267 22.482C121.835 22.302 121.619 22.062 121.619 21.762C121.619 21.57 121.679 21.414 121.799 21.294C121.931 21.174 122.093 21.114 122.285 21.114C122.489 21.114 122.783 21.144 123.167 21.204C123.551 21.276 123.929 21.312 124.301 21.312C125.537 21.312 126.551 20.946 127.343 20.214C128.135 19.482 128.741 18.36 129.161 16.848C129.581 15.324 129.863 13.38 130.007 11.016C129.647 11.748 129.239 12.48 128.783 13.212C128.339 13.932 127.859 14.592 127.343 15.192C126.839 15.78 126.317 16.254 125.777 16.614C125.237 16.974 124.703 17.154 124.175 17.154C123.671 17.154 123.299 17.028 123.059 16.776C122.831 16.524 122.717 16.11 122.717 15.534C122.717 15.018 122.861 14.472 123.149 13.896C123.437 13.308 123.821 12.72 124.301 12.132C124.781 11.544 125.309 10.986 125.885 10.458C126.461 9.918 127.037 9.444 127.613 9.036C128.201 8.616 128.747 8.286 129.251 8.046C129.755 7.806 130.163 7.686 130.475 7.686C130.787 7.686 131.027 7.794 131.195 8.01C131.363 8.226 131.447 8.634 131.447 9.234C131.447 10.638 131.399 12.006 131.303 13.338C131.219 14.658 131.045 15.888 130.781 17.028C130.517 18.168 130.121 19.164 129.593 20.016C129.077 20.88 128.387 21.552 127.523 22.032C126.659 22.512 125.585 22.752 124.301 22.752ZM129.683 9.252C129.083 9.636 128.465 10.068 127.829 10.548C127.193 11.028 126.599 11.538 126.047 12.078C125.507 12.618 125.069 13.176 124.733 13.752C124.397 14.328 124.229 14.904 124.229 15.48C124.229 15.66 124.343 15.75 124.571 15.75C124.751 15.75 124.997 15.612 125.309 15.336C125.633 15.048 125.993 14.67 126.389 14.202C126.785 13.722 127.187 13.2 127.595 12.636C128.015 12.06 128.405 11.478 128.765 10.89C129.125 10.302 129.431 9.756 129.683 9.252ZM135.22 18.342C135.028 18.342 134.866 18.264 134.734 18.108C134.602 17.952 134.536 17.736 134.536 17.46C134.536 17.256 134.578 16.92 134.662 16.452C134.758 15.972 134.86 15.414 134.968 14.778C135.088 14.142 135.19 13.482 135.274 12.798C135.358 12.102 135.4 11.436 135.4 10.8C135.4 10.488 135.478 10.26 135.634 10.116C135.802 9.96 135.988 9.882 136.192 9.882C136.384 9.882 136.528 10.002 136.624 10.242C136.72 10.482 136.738 10.962 136.678 11.682C137.23 10.458 137.836 9.474 138.496 8.73C139.168 7.974 139.834 7.434 140.494 7.11C141.154 6.774 141.748 6.606 142.276 6.606C142.624 6.606 142.876 6.678 143.032 6.822C143.2 6.954 143.284 7.104 143.284 7.272C143.284 7.5 143.188 7.68 142.996 7.812C142.816 7.932 142.498 8.076 142.042 8.244C141.514 8.448 141.028 8.688 140.584 8.964C140.152 9.228 139.738 9.576 139.342 10.008C138.958 10.44 138.58 10.992 138.208 11.664C137.836 12.324 137.464 13.14 137.092 14.112C136.72 15.084 136.324 16.254 135.904 17.622C135.832 17.886 135.736 18.072 135.616 18.18C135.508 18.288 135.376 18.342 135.22 18.342ZM142.824 18.468C142.368 18.468 141.99 18.258 141.69 17.838C141.402 17.406 141.258 16.848 141.258 16.164C141.258 15.528 141.414 14.898 141.726 14.274C142.05 13.65 142.476 13.05 143.004 12.474C143.532 11.898 144.108 11.37 144.732 10.89C145.356 10.398 145.98 9.972 146.604 9.612C147.24 9.252 147.822 8.97 148.35 8.766C148.878 8.562 149.298 8.46 149.61 8.46C149.778 8.46 149.916 8.496 150.024 8.568C150.132 8.628 150.186 8.742 150.186 8.91C150.186 9.018 150.144 9.12 150.06 9.216C150.072 9.216 150.084 9.216 150.096 9.216C150.36 9.216 150.492 9.372 150.492 9.684C150.492 9.792 150.45 10.014 150.366 10.35C150.282 10.674 150.186 11.082 150.078 11.574C149.97 12.066 149.874 12.612 149.79 13.212C149.706 13.8 149.664 14.4 149.664 15.012C149.664 15.528 149.862 15.786 150.258 15.786C150.702 15.786 151.152 15.684 151.608 15.48C152.064 15.276 152.508 15.03 152.94 14.742C153.372 14.442 153.768 14.148 154.128 13.86C154.488 13.56 154.794 13.308 155.046 13.104C155.298 12.9 155.478 12.798 155.586 12.798C155.682 12.798 155.766 12.828 155.838 12.888C155.91 12.948 155.946 13.044 155.946 13.176C155.946 13.296 155.826 13.512 155.586 13.824C155.346 14.136 155.028 14.49 154.632 14.886C154.236 15.282 153.792 15.666 153.3 16.038C152.808 16.41 152.304 16.716 151.788 16.956C151.272 17.196 150.78 17.316 150.312 17.316C149.952 17.316 149.622 17.208 149.322 16.992C149.034 16.764 148.8 16.38 148.62 15.84C148.452 15.3 148.368 14.556 148.368 13.608V13.158C147.78 14.13 147.162 15.018 146.514 15.822C145.878 16.626 145.242 17.268 144.606 17.748C143.982 18.228 143.388 18.468 142.824 18.468ZM149.268 9.756C149.208 9.78 149.124 9.816 149.016 9.864C148.464 10.116 147.888 10.428 147.288 10.8C146.7 11.172 146.124 11.586 145.56 12.042C145.008 12.498 144.51 12.972 144.066 13.464C143.622 13.956 143.268 14.454 143.004 14.958C142.74 15.462 142.608 15.954 142.608 16.434C142.608 16.59 142.638 16.71 142.698 16.794C142.77 16.878 142.89 16.92 143.058 16.92C143.298 16.92 143.61 16.77 143.994 16.47C144.378 16.158 144.798 15.75 145.254 15.246C145.722 14.742 146.19 14.184 146.658 13.572C147.126 12.96 147.57 12.342 147.99 11.718C148.422 11.094 148.794 10.518 149.106 9.99C149.154 9.906 149.208 9.828 149.268 9.756ZM161.7 8.946C162.024 8.166 162.33 7.362 162.618 6.534C162.918 5.706 163.188 4.86 163.428 3.996C163.5 3.756 163.608 3.564 163.752 3.42C163.908 3.264 164.088 3.186 164.292 3.186C164.436 3.186 164.556 3.24 164.652 3.348C164.76 3.456 164.814 3.6 164.814 3.78C164.814 4.008 164.724 4.404 164.544 4.968C164.376 5.532 164.16 6.246 163.896 7.11C163.644 7.974 163.386 8.97 163.122 10.098C162.87 11.214 162.654 12.45 162.474 13.806C162.306 15.162 162.222 16.608 162.222 18.144C162.222 18.48 162.15 18.756 162.006 18.972C161.862 19.2 161.688 19.314 161.484 19.314C161.364 19.314 161.25 19.284 161.142 19.224C161.034 19.164 160.938 19.02 160.854 18.792C160.782 18.576 160.722 18.234 160.674 17.766C160.626 17.286 160.602 16.638 160.602 15.822C160.602 15.198 160.638 14.52 160.71 13.788C160.158 14.784 159.558 15.654 158.91 16.398C158.274 17.13 157.656 17.694 157.056 18.09C156.468 18.486 155.964 18.684 155.544 18.684C155.028 18.684 154.608 18.51 154.284 18.162C153.972 17.826 153.816 17.322 153.816 16.65C153.816 16.062 153.954 15.456 154.23 14.832C154.506 14.208 154.872 13.596 155.328 12.996C155.784 12.384 156.288 11.808 156.84 11.268C157.392 10.728 157.944 10.254 158.496 9.846C159.06 9.426 159.582 9.102 160.062 8.874C160.542 8.634 160.932 8.514 161.232 8.514C161.352 8.514 161.46 8.556 161.556 8.64C161.652 8.724 161.7 8.826 161.7 8.946ZM161.466 9.504C161.382 9.588 161.28 9.672 161.16 9.756C161.04 9.84 160.908 9.93 160.764 10.026C160.236 10.398 159.654 10.83 159.018 11.322C158.394 11.802 157.794 12.33 157.218 12.906C156.654 13.47 156.192 14.064 155.832 14.688C155.472 15.312 155.292 15.954 155.292 16.614C155.292 16.902 155.436 17.046 155.724 17.046C156.12 17.046 156.552 16.86 157.02 16.488C157.5 16.104 157.992 15.576 158.496 14.904C159 14.22 159.504 13.422 160.008 12.51C160.512 11.586 160.998 10.584 161.466 9.504ZM172.84 10.242C172.84 10.626 172.72 11.004 172.48 11.376C172.24 11.736 171.922 12.084 171.526 12.42C171.13 12.744 170.692 13.05 170.212 13.338C169.732 13.626 169.252 13.878 168.772 14.094C168.292 14.31 167.854 14.484 167.458 14.616C167.362 15.084 167.314 15.498 167.314 15.858C167.314 16.086 167.368 16.248 167.476 16.344C167.584 16.44 167.752 16.488 167.98 16.488C168.484 16.488 169.018 16.398 169.582 16.218C170.146 16.038 170.722 15.804 171.31 15.516C171.898 15.228 172.462 14.922 173.002 14.598C173.542 14.274 174.034 13.968 174.478 13.68C174.934 13.392 175.312 13.158 175.612 12.978C175.912 12.798 176.11 12.708 176.206 12.708C176.35 12.708 176.458 12.756 176.53 12.852C176.614 12.936 176.656 13.038 176.656 13.158C176.656 13.254 176.506 13.44 176.206 13.716C175.918 13.992 175.528 14.316 175.036 14.688C174.544 15.048 173.992 15.42 173.38 15.804C172.768 16.188 172.132 16.548 171.472 16.884C170.824 17.22 170.194 17.49 169.582 17.694C168.982 17.898 168.442 18 167.962 18C167.338 18 166.852 17.766 166.504 17.298C166.156 16.83 165.982 16.104 165.982 15.12C165.982 14.46 166.066 13.794 166.234 13.122C166.414 12.45 166.654 11.808 166.954 11.196C167.266 10.572 167.608 10.02 167.98 9.54C168.364 9.048 168.766 8.664 169.186 8.388C169.606 8.1 170.014 7.956 170.41 7.956C171.166 7.956 171.76 8.166 172.192 8.586C172.624 9.006 172.84 9.558 172.84 10.242ZM167.836 13.23C168.208 13.002 168.592 12.762 168.988 12.51C169.384 12.258 169.75 12 170.086 11.736C170.422 11.472 170.692 11.196 170.896 10.908C171.112 10.608 171.22 10.302 171.22 9.99C171.22 9.546 170.98 9.324 170.5 9.324C170.2 9.324 169.882 9.516 169.546 9.9C169.222 10.272 168.91 10.758 168.61 11.358C168.31 11.958 168.052 12.582 167.836 13.23ZM75.2566 40.144C74.4406 40.144 73.6966 39.928 73.0246 39.496C72.3526 39.064 71.8126 38.452 71.4046 37.66C71.0086 36.868 70.8106 35.938 70.8106 34.87C70.8106 34.186 70.9126 33.526 71.1166 32.89C71.3206 32.242 71.5726 31.66 71.8726 31.144C72.1726 30.628 72.4786 30.22 72.7906 29.92C73.1146 29.608 73.3906 29.452 73.6186 29.452C73.7026 29.452 73.7866 29.464 73.8706 29.488C74.0026 28.756 74.2606 28.096 74.6446 27.508C75.0406 26.908 75.5386 26.434 76.1386 26.086C76.7506 25.738 77.4286 25.564 78.1726 25.564C78.8206 25.564 79.3786 25.822 79.8466 26.338C80.3146 26.842 80.6746 27.514 80.9266 28.354C81.1906 29.194 81.3226 30.124 81.3226 31.144C81.3226 32.632 81.0946 33.988 80.6386 35.212C80.1826 36.424 79.6006 37.432 78.8926 38.236C79.7566 39.16 80.6746 40 81.6466 40.756C82.6186 41.524 83.5126 42.16 84.3286 42.664C84.5806 42.82 84.7066 42.97 84.7066 43.114C84.7066 43.186 84.6646 43.258 84.5806 43.33C84.5086 43.402 84.3166 43.438 84.0046 43.438C83.6446 43.438 83.1226 43.264 82.4386 42.916C81.7666 42.568 81.0226 42.076 80.2066 41.44C79.4026 40.816 78.6106 40.072 77.8306 39.208C76.9906 39.832 76.1326 40.144 75.2566 40.144ZM76.8406 38.02C76.6006 37.72 76.3726 37.408 76.1566 37.084C75.9406 36.748 75.7366 36.406 75.5446 36.058C75.4966 35.962 75.4486 35.86 75.4006 35.752C75.3646 35.632 75.3466 35.524 75.3466 35.428C75.3466 35.272 75.4126 35.14 75.5446 35.032C75.6766 34.912 75.8206 34.852 75.9766 34.852C76.0846 34.852 76.1986 34.888 76.3186 34.96C76.4506 35.032 76.5706 35.17 76.6786 35.374C76.8466 35.662 77.0266 35.944 77.2186 36.22C77.4226 36.496 77.6326 36.772 77.8486 37.048C78.2446 36.532 78.5746 35.92 78.8386 35.212C79.1026 34.504 79.3006 33.748 79.4326 32.944C79.5646 32.14 79.6306 31.324 79.6306 30.496C79.6306 29.416 79.5586 28.564 79.4146 27.94C79.2706 27.316 79.0126 27.004 78.6406 27.004C78.0886 27.004 77.5486 27.112 77.0206 27.328C76.4926 27.544 76.0546 27.904 75.7066 28.408C75.3706 28.912 75.2026 29.596 75.2026 30.46C75.2026 31.048 74.9626 31.342 74.4826 31.342C74.3266 31.342 74.1946 31.318 74.0866 31.27C73.9906 31.222 73.9186 31.132 73.8706 31C73.5706 31.384 73.3066 31.822 73.0786 32.314C72.8506 32.794 72.6706 33.298 72.5386 33.826C72.4186 34.342 72.3586 34.834 72.3586 35.302C72.3586 36.418 72.5866 37.252 73.0426 37.804C73.5106 38.344 74.1466 38.614 74.9506 38.614C75.3106 38.614 75.6466 38.566 75.9586 38.47C76.2706 38.362 76.5646 38.212 76.8406 38.02ZM91.1834 40.432C90.9794 40.432 90.8054 40.342 90.6614 40.162C90.5174 39.982 90.4454 39.718 90.4454 39.37C90.4454 38.962 90.5054 38.38 90.6254 37.624C90.7574 36.868 90.9494 35.866 91.2014 34.618C90.8774 35.386 90.5174 36.112 90.1214 36.796C89.7374 37.48 89.3294 38.038 88.8974 38.47C88.4654 38.902 88.0214 39.118 87.5654 39.118C87.1214 39.118 86.7254 38.944 86.3774 38.596C86.0414 38.248 85.8734 37.636 85.8734 36.76C85.8734 36.268 85.9154 35.716 85.9994 35.104C86.0834 34.48 86.1914 33.862 86.3234 33.25C86.4554 32.638 86.5874 32.092 86.7194 31.612C86.8514 31.12 86.9714 30.76 87.0794 30.532C87.1634 30.34 87.2474 30.214 87.3314 30.154C87.4154 30.082 87.5294 30.046 87.6734 30.046C87.8414 30.046 88.0214 30.118 88.2134 30.262C88.4054 30.406 88.5014 30.646 88.5014 30.982C88.5014 31.066 88.4594 31.264 88.3754 31.576C88.3034 31.876 88.2074 32.248 88.0874 32.692C87.9794 33.124 87.8654 33.592 87.7454 34.096C87.6254 34.6 87.5234 35.104 87.4394 35.608C87.3674 36.112 87.3314 36.574 87.3314 36.994C87.3314 37.222 87.3554 37.408 87.4034 37.552C87.4514 37.696 87.5714 37.768 87.7634 37.768C87.9314 37.768 88.1414 37.6 88.3934 37.264C88.6574 36.928 88.9394 36.484 89.2394 35.932C89.5514 35.368 89.8694 34.744 90.1934 34.06C90.5294 33.376 90.8534 32.674 91.1654 31.954C91.4894 31.234 91.7834 30.55 92.0474 29.902C92.1434 29.686 92.2454 29.554 92.3534 29.506C92.4614 29.446 92.5814 29.416 92.7134 29.416C92.9294 29.416 93.1214 29.506 93.2894 29.686C93.4694 29.854 93.5594 30.076 93.5594 30.352C93.5594 30.532 93.5234 30.844 93.4514 31.288C93.3914 31.732 93.3014 32.254 93.1814 32.854C93.0734 33.442 92.9474 34.066 92.8034 34.726C92.6714 35.386 92.5394 36.04 92.4074 36.688C92.2754 37.324 92.1494 37.906 92.0294 38.434C91.9214 38.962 91.8314 39.388 91.7594 39.712C91.6994 40.012 91.6154 40.204 91.5074 40.288C91.4114 40.384 91.3034 40.432 91.1834 40.432ZM96.5581 40.468C96.1021 40.468 95.7241 40.258 95.4241 39.838C95.1361 39.406 94.9921 38.848 94.9921 38.164C94.9921 37.528 95.1481 36.898 95.4601 36.274C95.7841 35.65 96.2101 35.05 96.7381 34.474C97.2661 33.898 97.8421 33.37 98.4661 32.89C99.0901 32.398 99.7141 31.972 100.338 31.612C100.974 31.252 101.556 30.97 102.084 30.766C102.612 30.562 103.032 30.46 103.344 30.46C103.512 30.46 103.65 30.496 103.758 30.568C103.866 30.628 103.92 30.742 103.92 30.91C103.92 31.018 103.878 31.12 103.794 31.216C103.806 31.216 103.818 31.216 103.83 31.216C104.094 31.216 104.226 31.372 104.226 31.684C104.226 31.792 104.184 32.014 104.1 32.35C104.016 32.674 103.92 33.082 103.812 33.574C103.704 34.066 103.608 34.612 103.524 35.212C103.44 35.8 103.398 36.4 103.398 37.012C103.398 37.528 103.596 37.786 103.992 37.786C104.436 37.786 104.886 37.684 105.342 37.48C105.798 37.276 106.242 37.03 106.674 36.742C107.106 36.442 107.502 36.148 107.862 35.86C108.222 35.56 108.528 35.308 108.78 35.104C109.032 34.9 109.212 34.798 109.32 34.798C109.416 34.798 109.5 34.828 109.572 34.888C109.644 34.948 109.68 35.044 109.68 35.176C109.68 35.296 109.56 35.512 109.32 35.824C109.08 36.136 108.762 36.49 108.366 36.886C107.97 37.282 107.526 37.666 107.034 38.038C106.542 38.41 106.038 38.716 105.522 38.956C105.006 39.196 104.514 39.316 104.046 39.316C103.686 39.316 103.356 39.208 103.056 38.992C102.768 38.764 102.534 38.38 102.354 37.84C102.186 37.3 102.102 36.556 102.102 35.608V35.158C101.514 36.13 100.896 37.018 100.248 37.822C99.6121 38.626 98.9761 39.268 98.3401 39.748C97.7161 40.228 97.1221 40.468 96.5581 40.468ZM103.002 31.756C102.942 31.78 102.858 31.816 102.75 31.864C102.198 32.116 101.622 32.428 101.022 32.8C100.434 33.172 99.8581 33.586 99.2941 34.042C98.7421 34.498 98.2441 34.972 97.8001 35.464C97.3561 35.956 97.0021 36.454 96.7381 36.958C96.4741 37.462 96.3421 37.954 96.3421 38.434C96.3421 38.59 96.3721 38.71 96.4321 38.794C96.5041 38.878 96.6241 38.92 96.7921 38.92C97.0321 38.92 97.3441 38.77 97.7281 38.47C98.1121 38.158 98.5321 37.75 98.9881 37.246C99.4561 36.742 99.9241 36.184 100.392 35.572C100.86 34.96 101.304 34.342 101.724 33.718C102.156 33.094 102.528 32.518 102.84 31.99C102.888 31.906 102.942 31.828 103.002 31.756ZM111.848 40.72C110.924 40.72 110.198 40.42 109.67 39.82C109.154 39.208 108.896 38.356 108.896 37.264C108.896 36.592 108.986 35.806 109.166 34.906C109.358 33.994 109.598 33.034 109.886 32.026C110.186 31.006 110.51 29.998 110.858 29.002C111.206 28.006 111.542 27.082 111.866 26.23C112.202 25.366 112.496 24.646 112.748 24.07C112.892 23.746 113.096 23.584 113.36 23.584C113.72 23.584 113.9 23.806 113.9 24.25C113.9 24.394 113.834 24.688 113.702 25.132C113.57 25.576 113.396 26.128 113.18 26.788C112.964 27.436 112.73 28.156 112.478 28.948C112.226 29.74 111.968 30.556 111.704 31.396C111.452 32.224 111.218 33.046 111.002 33.862C110.786 34.666 110.612 35.422 110.48 36.13C110.348 36.838 110.282 37.444 110.282 37.948C110.282 38.272 110.366 38.53 110.534 38.722C110.714 38.902 110.954 38.992 111.254 38.992C111.806 38.992 112.358 38.884 112.91 38.668C113.474 38.44 114.014 38.164 114.53 37.84C115.046 37.504 115.514 37.174 115.934 36.85C116.366 36.514 116.732 36.238 117.032 36.022C117.332 35.794 117.542 35.68 117.662 35.68C117.926 35.68 118.058 35.824 118.058 36.112C118.058 36.208 117.962 36.388 117.77 36.652C117.578 36.904 117.32 37.204 116.996 37.552C116.672 37.9 116.294 38.26 115.862 38.632C115.442 38.992 114.998 39.334 114.53 39.658C114.074 39.97 113.612 40.222 113.144 40.414C112.688 40.618 112.256 40.72 111.848 40.72ZM119.642 40.45C119.102 40.45 118.622 40.288 118.202 39.964C117.794 39.628 117.476 39.172 117.248 38.596C117.02 38.02 116.906 37.354 116.906 36.598C116.906 35.806 116.996 35.008 117.176 34.204C117.356 33.4 117.584 32.662 117.86 31.99C118.136 31.318 118.418 30.784 118.706 30.388C118.994 29.98 119.252 29.776 119.48 29.776C119.648 29.776 119.786 29.83 119.894 29.938C120.002 30.046 120.056 30.202 120.056 30.406C120.056 30.454 120.008 30.622 119.912 30.91C119.816 31.186 119.696 31.546 119.552 31.99C119.408 32.422 119.264 32.902 119.12 33.43C118.976 33.958 118.856 34.498 118.76 35.05C118.664 35.602 118.616 36.124 118.616 36.616C118.616 37.456 118.694 38.05 118.85 38.398C119.018 38.734 119.282 38.902 119.642 38.902C120.518 38.902 121.334 38.674 122.09 38.218C122.858 37.75 123.566 37.138 124.214 36.382C124.874 35.614 125.48 34.768 126.032 33.844C125.612 33.904 125.204 33.952 124.808 33.988C124.412 34.012 124.034 34.03 123.674 34.042C123.326 34.054 123.098 34.012 122.99 33.916C122.882 33.82 122.828 33.67 122.828 33.466C122.816 33.286 122.888 33.124 123.044 32.98C123.212 32.836 123.386 32.758 123.566 32.746C124.106 32.698 124.658 32.638 125.222 32.566C125.786 32.494 126.344 32.41 126.896 32.314C127.184 31.762 127.46 31.204 127.724 30.64C127.988 30.076 128.228 29.536 128.444 29.02C128.696 28.24 128.96 27.514 129.236 26.842C129.512 26.158 129.788 25.606 130.064 25.186C130.34 24.754 130.598 24.538 130.838 24.538C131.246 24.538 131.45 24.742 131.45 25.15C131.45 25.234 131.396 25.468 131.288 25.852C131.18 26.236 131.03 26.734 130.838 27.346C130.658 27.958 130.448 28.654 130.208 29.434C129.968 30.202 129.722 31.012 129.47 31.864C130.55 31.648 131.534 31.438 132.422 31.234C133.322 31.018 134.06 30.844 134.636 30.712C135.212 30.568 135.554 30.496 135.662 30.496C135.818 30.496 135.944 30.574 136.04 30.73C136.136 30.874 136.184 31.012 136.184 31.144C136.184 31.252 135.986 31.396 135.59 31.576C135.206 31.756 134.672 31.954 133.988 32.17C133.316 32.374 132.548 32.584 131.684 32.8C130.832 33.004 129.944 33.196 129.02 33.376C128.72 34.396 128.432 35.404 128.156 36.4C127.88 37.396 127.646 38.308 127.454 39.136C127.346 39.664 127.082 39.928 126.662 39.928C126.446 39.928 126.284 39.874 126.176 39.766C126.08 39.658 126.032 39.472 126.032 39.208C126.032 39.172 126.062 38.992 126.122 38.668C126.194 38.332 126.284 37.918 126.392 37.426C126.5 36.922 126.614 36.4 126.734 35.86C126.854 35.308 126.968 34.798 127.076 34.33C126.44 35.458 125.738 36.484 124.97 37.408C124.202 38.332 123.368 39.07 122.468 39.622C121.58 40.174 120.638 40.45 119.642 40.45ZM119.858 28.012C119.57 28.012 119.33 27.922 119.138 27.742C118.958 27.562 118.868 27.34 118.868 27.076C118.868 26.752 118.982 26.482 119.21 26.266C119.45 26.038 119.726 25.924 120.038 25.924C120.386 25.924 120.65 26.026 120.83 26.23C121.01 26.422 121.1 26.674 121.1 26.986C121.1 27.238 120.98 27.472 120.74 27.688C120.5 27.904 120.206 28.012 119.858 28.012ZM135.545 44.626C134.945 44.626 134.393 44.584 133.889 44.5C133.397 44.428 132.911 44.308 132.431 44.14C131.951 43.984 131.429 43.78 130.865 43.528C130.697 43.444 130.547 43.342 130.415 43.222C130.283 43.114 130.217 42.988 130.217 42.844C130.217 42.664 130.331 42.472 130.559 42.268C130.775 42.076 130.979 41.98 131.171 41.98C131.375 41.98 131.627 42.052 131.927 42.196C132.239 42.34 132.599 42.508 133.007 42.7C133.415 42.904 133.865 43.078 134.357 43.222C134.861 43.366 135.401 43.438 135.977 43.438C136.601 43.438 137.189 43.18 137.741 42.664C138.293 42.148 138.743 41.404 139.091 40.432C139.439 39.472 139.613 38.314 139.613 36.958C139.613 36.55 139.601 36.1 139.577 35.608C139.565 35.104 139.541 34.576 139.505 34.024C139.217 34.648 138.893 35.266 138.533 35.878C138.185 36.49 137.819 37.042 137.435 37.534C137.063 38.026 136.673 38.422 136.265 38.722C135.869 39.01 135.467 39.154 135.059 39.154C134.543 39.154 134.171 39.022 133.943 38.758C133.715 38.494 133.601 38.086 133.601 37.534C133.601 36.958 133.643 36.334 133.727 35.662C133.811 34.99 133.919 34.312 134.051 33.628C134.195 32.932 134.363 32.272 134.555 31.648C134.747 31.024 134.951 30.484 135.167 30.028C135.287 29.788 135.467 29.668 135.707 29.668C135.875 29.668 136.037 29.758 136.193 29.938C136.361 30.106 136.445 30.328 136.445 30.604C136.445 30.82 136.397 31.126 136.301 31.522C136.205 31.918 136.085 32.368 135.941 32.872C135.797 33.376 135.653 33.904 135.509 34.456C135.365 34.996 135.245 35.53 135.149 36.058C135.053 36.574 135.005 37.048 135.005 37.48C135.005 37.66 135.125 37.75 135.365 37.75C135.497 37.75 135.683 37.63 135.923 37.39C136.175 37.138 136.451 36.814 136.751 36.418C137.063 36.01 137.375 35.566 137.687 35.086C138.011 34.594 138.323 34.108 138.623 33.628C138.923 33.136 139.181 32.686 139.397 32.278C139.385 32.182 139.379 32.092 139.379 32.008C139.379 31.924 139.379 31.846 139.379 31.774C139.379 31.186 139.439 30.82 139.559 30.676C139.691 30.52 139.859 30.442 140.063 30.442C140.411 30.442 140.657 30.52 140.801 30.676C140.945 30.832 141.017 31.102 141.017 31.486C141.017 31.63 140.999 31.786 140.963 31.954C140.927 32.11 140.867 32.338 140.783 32.638C140.879 33.586 140.957 34.438 141.017 35.194C141.089 35.95 141.125 36.712 141.125 37.48C141.125 38.932 140.891 40.192 140.423 41.26C139.967 42.328 139.319 43.156 138.479 43.744C137.651 44.332 136.673 44.626 135.545 44.626Z" fill="black"/>
</svg>
