<svg width="263" height="385" viewBox="0 0 263 385" fill="none" xmlns="http://www.w3.org/2000/svg">
<path d="M231.279 158.422H225.981V384.25H231.279V158.422Z" fill="#B28036"/>
<path d="M149.306 76.798C149.306 76.798 151.766 68.2919 155.46 68.5379C159.155 68.7839 165.573 76.988 156.608 77.864" fill="#FACEBB"/>
<path d="M117.092 76.6099C122.694 79.9499 135.025 108.202 135.025 108.202C135.025 108.202 145.531 86.1599 149.786 75.3699L157.104 78.1659C157.104 78.1659 148.7 129.396 142.45 133.829C136.201 138.261 113.537 114.236 113.537 114.236" fill="#FACEBB"/>
<path d="M116.373 99.1479C116.373 99.1479 124.503 93.6219 128.807 93.0919C128.807 93.0919 123.045 81.8329 120.661 79.1839C118.277 76.5349 113.856 75.3699 113.856 75.3699" fill="#FFF0C9"/>
<path d="M104.53 371.842C104.53 371.842 108.755 376.856 116.81 384.25H94.4351L95.468 371.842H104.53Z" fill="#E0AA53"/>
<path d="M66.0291 371.842C66.0291 371.842 70.2541 376.856 78.3091 384.25H55.9351L56.9681 371.842H66.0291Z" fill="#E0AA53"/>
<path d="M117.061 76.6009C114.782 74.7779 89.724 69.8099 82.248 68.4809V68.1499C82.248 68.1499 81.913 68.2079 81.31 68.3149C80.706 68.2079 80.372 68.1499 80.372 68.1499V68.4809C72.896 69.8099 45.492 74.7779 43.214 76.6009C40.573 78.7139 46.32 162.725 46.32 162.725H80.372H82.249H113.956C113.956 162.725 119.701 78.7129 117.061 76.6009Z" fill="#FFF0C9"/>
<path d="M81.7469 81.61C77.7339 81.61 74.481 78.357 74.481 74.343V55.113H89.0139V74.343C89.0139 78.357 85.7599 81.61 81.7469 81.61Z" fill="#FACEBB"/>
<path opacity="0.86" d="M74.481 63.062C78.919 65.976 83.9819 67.511 89.0139 67.195V55.114H74.481V63.062Z" fill="#F5A8A4"/>
<path d="M104.169 29.9829C108.255 43.9729 102.12 59.0199 89.916 62.5849C77.712 66.1499 64.06 56.8829 59.973 42.8919C55.886 28.9019 64.984 14.9029 77.189 11.3379C89.393 7.77393 100.082 15.9929 104.169 29.9829Z" fill="#FACEBB"/>
<path d="M62.393 42.7529C64.209 45.3299 65.194 48.344 63.011 49.883C60.828 51.421 56.304 50.9009 54.488 48.3229C52.672 45.7459 52.97 42.41 55.152 40.872C57.335 39.333 60.577 40.1749 62.393 42.7529Z" fill="#FACEBB"/>
<path d="M56.6959 47.8929C55.6639 46.4279 55.833 44.5309 57.074 43.6569C58.315 42.7829 60.1579 43.2609 61.1899 44.7269C61.4479 45.0929 61.6769 45.4749 61.8549 45.8549" stroke="#F5A8A4" stroke-width="0.5" stroke-miterlimit="10" stroke-linecap="round" stroke-linejoin="round"/>
<path d="M62.243 47.2338C61.991 47.5078 61.63 47.6798 61.228 47.6798C60.467 47.6798 59.85 47.0628 59.85 46.3018C59.85 45.5408 60.467 44.9238 61.228 44.9238" stroke="#F5A8A4" stroke-width="0.5" stroke-miterlimit="10" stroke-linecap="round" stroke-linejoin="round"/>
<path d="M80.266 24.8979C80.266 24.8979 80.765 22.9849 83.053 22.9019" stroke="#A36D66" stroke-width="0.5" stroke-miterlimit="10" stroke-linecap="round" stroke-linejoin="round"/>
<path d="M95.78 22.319C95.78 22.319 97.277 21.778 98.816 23.276" stroke="#A36D66" stroke-width="0.5" stroke-miterlimit="10" stroke-linecap="round" stroke-linejoin="round"/>
<path d="M90.9969 27.5588C90.9969 27.5588 92.328 31.5518 93.326 34.2968C93.326 34.2968 95.2389 33.7978 96.1129 34.1308C96.9859 34.4638 95.448 36.4188 93.555 37.2918" stroke="#A36D66" stroke-width="0.5" stroke-miterlimit="10" stroke-linecap="round" stroke-linejoin="round"/>
<path opacity="0.86" d="M79.0909 37.61C79.3039 39.206 77.6309 40.746 75.3539 41.05C73.0769 41.354 71.0589 40.307 70.8459 38.71C70.6329 37.114 72.3059 35.574 74.5829 35.27C76.8589 34.966 78.8779 36.014 79.0909 37.61Z" fill="#F5A8A4"/>
<path opacity="0.86" d="M110.738 33.906C110.738 35.516 108.876 36.821 106.579 36.821C104.282 36.821 102.42 35.516 102.42 33.906C102.42 32.296 104.282 30.991 106.579 30.991C108.875 30.991 110.738 32.296 110.738 33.906Z" fill="#F5A8A4"/>
<path d="M94.4569 40.8058C94.4569 40.8058 94.9209 39.7798 95.7489 39.8458C96.5769 39.9118 95.4839 41.8658 95.4839 41.8658C95.4839 41.8658 96.7089 42.4948 96.6099 43.4558C96.5109 44.4158 94.7219 43.4558 94.7219 43.4558" stroke="#A36D66" stroke-width="0.5" stroke-miterlimit="10" stroke-linecap="round" stroke-linejoin="round"/>
<path d="M83.5289 29.6789C83.5289 29.6789 84.3899 32.9569 86.3109 32.6259C88.2319 32.2949 87.3039 28.5859 87.3039 28.5859" stroke="#A36D66" stroke-width="0.5" stroke-miterlimit="10" stroke-linecap="round" stroke-linejoin="round"/>
<path d="M94.7219 27.03C94.7219 27.03 95.4509 29.878 96.9409 29.878C98.4309 29.878 97.6359 26.533 97.6359 26.533" stroke="#A36D66" stroke-width="0.5" stroke-miterlimit="10" stroke-linecap="round" stroke-linejoin="round"/>
<path d="M81.659 0.0918963C77.127 0.886896 82.96 4.24189 74.48 8.83389C66.001 13.4259 53.412 13.3369 58.779 25.4349C58.779 25.4349 54.874 20.5119 53.815 22.2229C52.755 23.9339 58.318 26.5329 58.318 26.5329C58.318 26.5329 51.077 27.3219 50.989 28.5859C50.901 29.8499 57.965 28.2049 57.965 28.2049C57.965 28.2049 53.373 30.6319 52.402 33.9059C51.77 36.0349 54.234 38.7519 56.037 40.3969C57.824 39.7009 60.015 40.2659 61.606 41.8279C62.564 40.0099 64.489 35.1929 65.206 24.8969C65.206 24.8969 74.478 25.3469 78.275 16.2509C78.275 16.2509 89.092 18.0169 94.721 10.8649C100.35 3.7129 86.191 -0.702104 81.659 0.0918963Z" fill="#F86866"/>
<path d="M46.153 162.724H113.789C113.789 162.724 115.65 258.898 110.715 371.842H91.0851C91.0851 371.842 87.398 260.463 82.66 181.417L77.213 182.077C77.213 182.077 75.0191 245.814 72.8361 371.842H50.9171C50.9171 371.842 45.846 214.114 46.153 162.724Z" fill="#3D3130"/>
<path d="M50.344 140.901L55.112 274.454C55.112 274.454 93.259 274.454 120.281 268.891C120.281 268.891 116.837 168.881 116.572 162.725C116.307 156.568 118.161 140.271 118.956 115.438C118.956 115.438 90.61 115.507 65.973 122.395L67.562 133.786C67.562 133.786 60.675 135.375 50.344 140.901Z" fill="#E0AA53"/>
<path d="M80.137 131.533L81.0739 143.322C81.0739 143.322 105.049 141.733 119.354 140.938C119.354 140.938 120.016 133.256 120.281 125.441C120.281 125.441 98.047 127.576 80.137 131.533Z" fill="#F4CF99"/>
<path d="M83.193 139.348L86.107 167.164L116.642 164.508" stroke="#F4CF99" stroke-miterlimit="10"/>
<path d="M117.755 117.758C117.755 117.758 97.499 116.963 68.623 124.381L70.212 135.772C70.212 135.772 60.631 138.797 52.993 143.322L58.026 270.878C58.026 270.878 92.1811 271.275 117.754 265.845" stroke="#F4CF99" stroke-width="0.5" stroke-miterlimit="10" stroke-linecap="round" stroke-dasharray="2 2"/>
<path d="M57.1 71.9279L68.755 122.526L71.669 121.864L61.205 70.8679L57.1 71.9279Z" fill="#E0AA53"/>
<path d="M106.152 117.007L108.89 73.1199L112.069 74.0029L108.448 116.566L106.152 117.007Z" fill="#E0AA53"/>
<path d="M40.984 146.63C40.984 146.63 44.733 149.88 46.584 152.209C48.434 154.537 46.323 161.964 43.784 163.541C41.246 165.118 36.835 161.625 36.501 160.065C36.166 158.505 41.815 159.528 41.815 159.528C41.815 159.528 38.81 156.49 38.324 154.305" fill="#FACEBB"/>
<path d="M46.676 75.387C46.676 75.387 6.73 89.008 0 107.719C0.541 128.571 38.592 155.104 38.592 155.104L40.984 146.63C40.984 146.63 21.775 117.162 21.568 114.036C21.361 110.91 45.74 102.46 45.74 102.46L46.676 75.387Z" fill="#FACEBB"/>
<path d="M18.7839 87.6389C18.7839 87.6389 21.9629 96.0279 31.2349 109.141L47.0419 103.71L48.2979 74.9019C48.2979 74.9019 36.3559 77.4839 18.7839 87.6389Z" fill="#FFF0C9"/>
<path d="M168.255 64.6069C168.255 64.6069 171.675 59.3149 176.356 62.9909C176.356 62.9909 176.235 67.4539 169.726 67.5429" fill="#F4CF99"/>
<path d="M166.602 65.0068L167.895 68.4058C167.895 68.4058 127.548 84.0748 126.794 82.0918C126.039 80.1088 166.602 65.0068 166.602 65.0068Z" fill="#E0AA53"/>
<path d="M168.36 63.5278L164.017 65.5038L165.488 69.7678L170.546 68.0868L168.36 63.5278Z" fill="#FFF0C9"/>
<path d="M149.926 75.7609C149.926 75.7609 152.797 71.6309 155.109 70.9759C157.421 70.3209 159.391 74.8579 159.33 76.0539C159.269 77.2499 155.303 75.5039 155.303 75.5039C155.303 75.5039 156.851 76.9529 157.103 78.1659L149.926 75.7609Z" fill="#FACEBB"/>
<path d="M170.546 62.2589C170.546 62.2589 170.426 63.8039 172.535 63.8489C174.643 63.8929 174.423 65.2509 175.548 65.6809C175.548 65.6809 176.641 64.4339 176.486 62.8549C176.486 62.8549 173.525 59.8409 170.546 62.2589Z" fill="#F86866"/>
<path d="M174.555 66.1439C174.555 66.6009 174.184 66.9719 173.727 66.9719C173.27 66.9719 172.899 66.6009 172.899 66.1439C172.899 65.6869 173.27 65.3159 173.727 65.3159C174.184 65.3159 174.555 65.6869 174.555 66.1439Z" fill="#F86866"/>
<path d="M175.499 66.2318C175.499 66.3388 175.412 66.4248 175.306 66.4248C175.199 66.4248 175.113 66.3378 175.113 66.2318C175.113 66.1248 175.2 66.0388 175.306 66.0388C175.412 66.0388 175.499 66.1258 175.499 66.2318Z" fill="#F86866"/>
<path d="M169.941 62.9318C169.941 63.1028 169.803 63.2408 169.632 63.2408C169.461 63.2408 169.323 63.1028 169.323 62.9318C169.323 62.7608 169.461 62.6228 169.632 62.6228C169.803 62.6228 169.941 62.7608 169.941 62.9318Z" fill="#F86866"/>
<path d="M174.93 60.636C174.93 60.843 174.762 61.011 174.555 61.011C174.348 61.011 174.18 60.843 174.18 60.636C174.18 60.429 174.348 60.261 174.555 60.261C174.762 60.261 174.93 60.429 174.93 60.636Z" fill="#F86866"/>
<path d="M175.99 32.4438L169.632 185.838H174.224L183.054 33.4868L175.99 32.4438Z" fill="#F4CF99"/>
<path d="M174.224 185.838L250.519 179.48L262.881 34.8638L183.054 33.4868L174.224 185.838Z" fill="#E0AA53"/>
<path d="M175.99 32.4438L254.404 33.4868L262.881 34.8638L183.054 33.4868L175.99 32.4438Z" fill="#B28036"/>
<path d="M200.549 158.422L180.265 384.25H186.818L205.318 158.422H200.549Z" fill="#E0AA53"/>
<path d="M218.553 164.78L257.771 384.25H262.881L223.509 162.724L218.553 164.78Z" fill="#E0AA53"/>
<path d="M118.008 203.218C118.008 203.218 114.76 198.977 111.051 200.699C107.342 202.421 110.389 208.381 110.256 212.355C110.124 216.329 98.203 222.157 101.646 230.104C105.09 238.051 119.101 234.727 119.101 234.727L118.008 203.218Z" fill="#63D8CC"/>
<path d="M103.388 244.675C104.694 244.675 105.753 243.281 105.753 241.562C105.753 239.843 104.694 238.449 103.388 238.449C102.082 238.449 101.023 239.843 101.023 241.562C101.023 243.281 102.082 244.675 103.388 244.675Z" fill="#63D8CC"/>
<path d="M99.917 234.935C99.917 235.408 99.533 235.792 99.06 235.792C98.587 235.792 98.203 235.408 98.203 234.935C98.203 234.461 98.587 234.078 99.06 234.078C99.534 234.078 99.917 234.462 99.917 234.935Z" fill="#63D8CC"/>
<path d="M108.27 196.908C108.27 198.343 107.321 199.507 106.151 199.507C104.98 199.507 104.032 198.343 104.032 196.908C104.032 195.472 104.981 194.309 106.151 194.309C107.321 194.309 108.27 195.472 108.27 196.908Z" fill="#63D8CC"/>
<path d="M75.42 195.798C75.42 195.798 73.301 186.261 67.208 188.645C61.115 191.029 68.268 199.109 67.208 204.142C66.148 209.175 64.691 216.858 72.506 215.666C80.321 214.475 77.179 202.872 75.42 195.798Z" fill="#FFDB4D"/>
<path d="M75.023 184.076C75.023 185.32 73.837 186.328 72.374 186.328C70.911 186.328 69.725 185.32 69.725 184.076C69.725 182.832 70.911 181.824 72.374 181.824C73.837 181.824 75.023 182.832 75.023 184.076Z" fill="#FFDB4D"/>
<path d="M68.9959 186.493C68.9959 186.841 68.581 187.122 68.069 187.122C67.557 187.122 67.142 186.84 67.142 186.493C67.142 186.146 67.557 185.864 68.069 185.864C68.581 185.864 68.9959 186.146 68.9959 186.493Z" fill="#FFDB4D"/>
<path d="M69.839 221.471C69.839 222.884 68.693 224.03 67.28 224.03C65.867 224.03 64.7209 222.884 64.7209 221.471C64.7209 220.058 65.867 218.912 67.28 218.912C68.693 218.912 69.839 220.058 69.839 221.471Z" fill="#FFDB4D"/>
<path d="M77.5959 119.654C77.5959 119.654 78.864 126.391 84.228 126.259C89.592 126.127 91.2479 121.424 95.3539 121.358C99.4599 121.292 97.2639 116.755 97.2639 116.755C97.2639 116.755 87.5209 117.751 77.5959 119.654Z" fill="#F86866"/>
<path d="M79.571 127.385C79.571 128.738 78.751 129.835 77.739 129.835C76.727 129.835 75.907 128.738 75.907 127.385C75.907 126.032 76.727 124.934 77.739 124.934C78.75 124.934 79.571 126.031 79.571 127.385Z" fill="#F86866"/>
<path d="M82.9481 127.815C82.9481 128.211 82.627 128.532 82.231 128.532C81.835 128.532 81.5131 128.211 81.5131 127.815C81.5131 127.419 81.834 127.098 82.231 127.098C82.627 127.098 82.9481 127.419 82.9481 127.815Z" fill="#F86866"/>
<path d="M97.8521 121.953C97.8521 122.452 98.257 122.857 98.756 122.857C99.255 122.857 99.66 122.452 99.66 121.953C99.66 121.454 99.255 121.049 98.756 121.049C98.257 121.049 97.8521 121.454 97.8521 121.953Z" fill="#F86866"/>
</svg>
