<svg width="60" height="60" viewBox="0 0 60 60" fill="none" xmlns="http://www.w3.org/2000/svg">
<rect width="60" height="60" rx="12" fill="white"/>
<path d="M21 29H24C24.5304 29 25.0391 29.2107 25.4142 29.5858C25.7893 29.9609 26 30.4696 26 31V34C26 34.5304 25.7893 35.0391 25.4142 35.4142C25.0391 35.7893 24.5304 36 24 36H23C22.4696 36 21.9609 35.7893 21.5858 35.4142C21.2107 35.0391 21 34.5304 21 34V29ZM21 29C21 27.8181 21.2328 26.6478 21.6851 25.5558C22.1374 24.4639 22.8003 23.4718 23.636 22.636C24.4718 21.8003 25.4639 21.1374 26.5558 20.6851C27.6478 20.2328 28.8181 20 30 20C31.1819 20 32.3522 20.2328 33.4442 20.6851C34.5361 21.1374 35.5282 21.8003 36.364 22.636C37.1997 23.4718 37.8626 24.4639 38.3149 25.5558C38.7672 26.6478 39 27.8181 39 29M39 29V34C39 34.5304 38.7893 35.0391 38.4142 35.4142C38.0391 35.7893 37.5304 36 37 36H36C35.4696 36 34.9609 35.7893 34.5858 35.4142C34.2107 35.0391 34 34.5304 34 34V31C34 30.4696 34.2107 29.9609 34.5858 29.5858C34.9609 29.2107 35.4696 29 36 29H39Z" stroke="black" stroke-width="1.35" stroke-linecap="round" stroke-linejoin="round"/>
<path d="M39 34V36C39 37.0609 38.5786 38.0783 37.8284 38.8284C37.0783 39.5786 36.0609 40 35 40H30" stroke="black" stroke-width="1.35" stroke-linecap="round" stroke-linejoin="round"/>
</svg>
